<svg version="1.1" viewBox="0.0 0.0 960.0 540.0" fill="none" stroke="none" stroke-linecap="square" stroke-miterlimit="10" xmlns:xlink="http://www.w3.org/1999/xlink" xmlns="http://www.w3.org/2000/svg"><clipPath id="p6.0"><path d="m0 0l960.0 0l0 540.0l-960.0 0l0 -540.0z" clip-rule="nonzero"/></clipPath><g clip-path="url(#p6.0)"><path fill="#ffffff" d="m0 0l960.0 0l0 540.0l-960.0 0z" fill-rule="evenodd"/><path fill="#c9daf8" d="m707.7139 43.716534l173.1496 0l0 348.86615l-173.1496 0z" fill-rule="evenodd"/><path fill="#d3e1f9" d="m678.85565 14.858268l230.86615 0l-28.858276 28.858265l-173.1496 0z" fill-rule="evenodd"/><path fill="#a0aec6" d="m678.85565 421.44095l28.858276 -28.858276l173.1496 0l28.858276 28.858276z" fill-rule="evenodd"/><path fill="#dee8fa" d="m678.85565 14.858268l28.858276 28.858265l0 348.86615l-28.858276 28.858276z" fill-rule="evenodd"/><path fill="#788294" d="m909.7218 14.858268l0 406.58267l-28.858276 -28.858276l0 -348.86615z" fill-rule="evenodd"/><path fill="#000000" fill-opacity="0.0" d="m678.85565 14.858268l230.86615 0l0 406.58267l-230.86615 0zm28.858276 28.858265l173.1496 0l0 348.86615l-173.1496 0zm-28.858276 -28.858265l28.858276 28.858265m-28.858276 377.72443l28.858276 -28.858276m202.00787 -377.7244l-28.858276 28.858265m28.858276 377.72443l-28.858276 -28.858276" fill-rule="evenodd"/><path stroke="#595959" stroke-width="1.0" stroke-linejoin="round" stroke-linecap="butt" d="m678.85565 14.858268l230.86615 0l0 406.58267l-230.86615 0zm28.858276 28.858265l173.1496 0l0 348.86615l-173.1496 0zm-28.858276 -28.858265l28.858276 28.858265m-28.858276 377.72443l28.858276 -28.858276m202.00787 -377.7244l-28.858276 28.858265m28.858276 377.72443l-28.858276 -28.858276" fill-rule="evenodd"/><path fill="#000000" fill-opacity="0.0" d="m700.00525 421.44357l188.56696 0l0 42.015747l-188.56696 0z" fill-rule="evenodd"/><path fill="#000000" d="m728.0226 443.67606l1.765625 0.453125q-0.5625 2.171875 -2.0 3.328125q-1.4375 1.140625 -3.53125 1.140625q-2.15625 0 -3.515625 -0.875q-1.34375 -0.890625 -2.0625 -2.546875q-0.703125 -1.671875 -0.703125 -3.59375q0 -2.078125 0.796875 -3.625q0.796875 -1.5625 2.265625 -2.359375q1.484375 -0.8125 3.25 -0.8125q2.0 0 3.359375 1.015625q1.375 1.015625 1.90625 2.875l-1.734375 0.40625q-0.46875 -1.453125 -1.359375 -2.109375q-0.875 -0.671875 -2.203125 -0.671875q-1.546875 0 -2.578125 0.734375q-1.03125 0.734375 -1.453125 1.984375q-0.421875 1.234375 -0.421875 2.5625q0 1.703125 0.5 2.96875q0.5 1.265625 1.546875 1.90625q1.046875 0.625 2.265625 0.625q1.484375 0 2.515625 -0.859375q1.03125 -0.859375 1.390625 -2.546875zm3.1292114 -0.15625q0 -2.6875 1.484375 -3.96875q1.25 -1.078125 3.046875 -1.078125q2.0 0 3.265625 1.3125q1.265625 1.296875 1.265625 3.609375q0 1.859375 -0.5625 2.9375q-0.5625 1.0625 -1.640625 1.65625q-1.0625 0.59375 -2.328125 0.59375q-2.03125 0 -3.28125 -1.296875q-1.25 -1.3125 -1.25 -3.765625zm1.6875 0q0 1.859375 0.796875 2.796875q0.8125 0.921875 2.046875 0.921875q1.21875 0 2.03125 -0.921875q0.8125 -0.9375 0.8125 -2.84375q0 -1.796875 -0.8125 -2.71875q-0.8125 -0.921875 -2.03125 -0.921875q-1.234375 0 -2.046875 0.921875q-0.796875 0.90625 -0.796875 2.765625zm9.297607 4.84375l0 -9.671875l1.46875 0l0 1.359375q0.453125 -0.71875 1.203125 -1.140625q0.765625 -0.4375 1.71875 -0.4375q1.078125 0 1.765625 0.453125q0.6875 0.4375 0.96875 1.234375q1.15625 -1.6875 2.984375 -1.6875q1.453125 0 2.21875 0.796875q0.78125 0.796875 0.78125 2.453125l0 6.640625l-1.640625 0l0 -6.09375q0 -0.984375 -0.15625 -1.40625q-0.15625 -0.4375 -0.578125 -0.703125q-0.421875 -0.265625 -0.984375 -0.265625q-1.015625 0 -1.6875 0.6875q-0.671875 0.671875 -0.671875 2.15625l0 5.625l-1.640625 0l0 -6.28125q0 -1.09375 -0.40625 -1.640625q-0.40625 -0.546875 -1.3125 -0.546875q-0.6875 0 -1.28125 0.359375q-0.59375 0.359375 -0.859375 1.0625q-0.25 0.703125 -0.25 2.03125l0 5.015625l-1.640625 0zm15.5407715 3.703125l0 -13.375l1.484375 0l0 1.25q0.53125 -0.734375 1.1875 -1.09375q0.671875 -0.375 1.625 -0.375q1.234375 0 2.171875 0.640625q0.953125 0.625 1.4375 1.796875q0.484375 1.15625 0.484375 2.546875q0 1.484375 -0.53125 2.671875q-0.53125 1.1875 -1.546875 1.828125q-1.015625 0.625 -2.140625 0.625q-0.8125 0 -1.46875 -0.34375q-0.65625 -0.34375 -1.0625 -0.875l0 4.703125l-1.640625 0zm1.484375 -8.484375q0 1.859375 0.75 2.765625q0.765625 0.890625 1.828125 0.890625q1.09375 0 1.875 -0.921875q0.78125 -0.9375 0.78125 -2.875q0 -1.84375 -0.765625 -2.765625q-0.75 -0.921875 -1.8125 -0.921875q-1.046875 0 -1.859375 0.984375q-0.796875 0.96875 -0.796875 2.84375zm15.219482 4.78125l0 -1.421875q-1.125 1.640625 -3.0625 1.640625q-0.859375 0 -1.609375 -0.328125q-0.734375 -0.328125 -1.09375 -0.828125q-0.359375 -0.5 -0.5 -1.21875q-0.109375 -0.46875 -0.109375 -1.53125l0 -5.984375l1.640625 0l0 5.359375q0 1.28125 0.109375 1.734375q0.15625 0.640625 0.65625 1.015625q0.5 0.375 1.234375 0.375q0.734375 0 1.375 -0.375q0.65625 -0.390625 0.921875 -1.03125q0.265625 -0.65625 0.265625 -1.890625l0 -5.1875l1.640625 0l0 9.671875l-1.46875 0zm7.6257324 -1.46875l0.234375 1.453125q-0.6875 0.140625 -1.234375 0.140625q-0.890625 0 -1.390625 -0.28125q-0.484375 -0.28125 -0.6875 -0.734375q-0.203125 -0.46875 -0.203125 -1.9375l0 -5.578125l-1.203125 0l0 -1.265625l1.203125 0l0 -2.390625l1.625 -0.984375l0 3.375l1.65625 0l0 1.265625l-1.65625 0l0 5.671875q0 0.6875 0.078125 0.890625q0.09375 0.203125 0.28125 0.328125q0.203125 0.109375 0.578125 0.109375q0.265625 0 0.71875 -0.0625zm8.230164 -1.640625l1.6875 0.203125q-0.40625 1.484375 -1.484375 2.3125q-1.078125 0.8125 -2.765625 0.8125q-2.125 0 -3.375 -1.296875q-1.234375 -1.3125 -1.234375 -3.671875q0 -2.453125 1.25 -3.796875q1.265625 -1.34375 3.265625 -1.34375q1.9375 0 3.15625 1.328125q1.234375 1.3125 1.234375 3.703125q0 0.15625 0 0.4375l-7.21875 0q0.09375 1.59375 0.90625 2.453125q0.8125 0.84375 2.015625 0.84375q0.90625 0 1.546875 -0.46875q0.640625 -0.484375 1.015625 -1.515625zm-5.390625 -2.65625l5.40625 0q-0.109375 -1.21875 -0.625 -1.828125q-0.78125 -0.953125 -2.03125 -0.953125q-1.125 0 -1.90625 0.765625q-0.765625 0.75 -0.84375 2.015625zm9.125732 5.765625l0 -9.671875l1.46875 0l0 1.46875q0.5625 -1.03125 1.03125 -1.359375q0.484375 -0.328125 1.0625 -0.328125q0.828125 0 1.6875 0.53125l-0.5625 1.515625q-0.609375 -0.359375 -1.203125 -0.359375q-0.546875 0 -0.96875 0.328125q-0.421875 0.328125 -0.609375 0.890625q-0.28125 0.875 -0.28125 1.921875l0 5.0625l-1.625 0zm11.56781 0l0 -13.359375l2.65625 0l3.15625 9.453125q0.4375 1.328125 0.640625 1.984375q0.234375 -0.734375 0.703125 -2.140625l3.203125 -9.296875l2.375 0l0 13.359375l-1.703125 0l0 -11.171875l-3.875 11.171875l-1.59375 0l-3.859375 -11.375l0 11.375l-1.703125 0zm22.009583 -3.109375l1.6875 0.203125q-0.40625 1.484375 -1.484375 2.3125q-1.078125 0.8125 -2.765625 0.8125q-2.125 0 -3.375 -1.296875q-1.234375 -1.3125 -1.234375 -3.671875q0 -2.453125 1.25 -3.796875q1.265625 -1.34375 3.265625 -1.34375q1.9375 0 3.15625 1.328125q1.234375 1.3125 1.234375 3.703125q0 0.15625 0 0.4375l-7.21875 0q0.09375 1.59375 0.90625 2.453125q0.8125 0.84375 2.015625 0.84375q0.90625 0 1.546875 -0.46875q0.640625 -0.484375 1.015625 -1.515625zm-5.390625 -2.65625l5.40625 0q-0.109375 -1.21875 -0.625 -1.828125q-0.78125 -0.953125 -2.03125 -0.953125q-1.125 0 -1.90625 0.765625q-0.765625 0.75 -0.84375 2.015625zm9.141357 5.765625l0 -9.671875l1.46875 0l0 1.359375q0.453125 -0.71875 1.203125 -1.140625q0.765625 -0.4375 1.71875 -0.4375q1.078125 0 1.765625 0.453125q0.6875 0.4375 0.96875 1.234375q1.15625 -1.6875 2.984375 -1.6875q1.453125 0 2.21875 0.796875q0.78125 0.796875 0.78125 2.453125l0 6.640625l-1.640625 0l0 -6.09375q0 -0.984375 -0.15625 -1.40625q-0.15625 -0.4375 -0.578125 -0.703125q-0.421875 -0.265625 -0.984375 -0.265625q-1.015625 0 -1.6875 0.6875q-0.671875 0.671875 -0.671875 2.15625l0 5.625l-1.640625 0l0 -6.28125q0 -1.09375 -0.40625 -1.640625q-0.40625 -0.546875 -1.3125 -0.546875q-0.6875 0 -1.28125 0.359375q-0.59375 0.359375 -0.859375 1.0625q-0.25 0.703125 -0.25 2.03125l0 5.015625l-1.640625 0zm14.9313965 -4.84375q0 -2.6875 1.484375 -3.96875q1.25 -1.078125 3.046875 -1.078125q2.0 0 3.265625 1.3125q1.265625 1.296875 1.265625 3.609375q0 1.859375 -0.5625 2.9375q-0.5625 1.0625 -1.640625 1.65625q-1.0625 0.59375 -2.328125 0.59375q-2.03125 0 -3.28125 -1.296875q-1.25 -1.3125 -1.25 -3.765625zm1.6875 0q0 1.859375 0.796875 2.796875q0.8125 0.921875 2.046875 0.921875q1.21875 0 2.03125 -0.921875q0.8125 -0.9375 0.8125 -2.84375q0 -1.796875 -0.8125 -2.71875q-0.8125 -0.921875 -2.03125 -0.921875q-1.234375 0 -2.046875 0.921875q-0.796875 0.90625 -0.796875 2.765625zm9.281982 4.84375l0 -9.671875l1.46875 0l0 1.46875q0.5625 -1.03125 1.03125 -1.359375q0.484375 -0.328125 1.0625 -0.328125q0.828125 0 1.6875 0.53125l-0.5625 1.515625q-0.609375 -0.359375 -1.203125 -0.359375q-0.546875 0 -0.96875 0.328125q-0.421875 0.328125 -0.609375 0.890625q-0.28125 0.875 -0.28125 1.921875l0 5.0625l-1.625 0zm6.1502075 3.71875l-0.1875 -1.53125q0.546875 0.140625 0.9375 0.140625q0.546875 0 0.875 -0.1875q0.328125 -0.171875 0.546875 -0.5q0.15625 -0.25 0.5 -1.21875q0.046875 -0.140625 0.140625 -0.40625l-3.671875 -9.6875l1.765625 0l2.015625 5.59375q0.390625 1.078125 0.703125 2.25q0.28125 -1.125 0.671875 -2.203125l2.078125 -5.640625l1.640625 0l-3.6875 9.828125q-0.59375 1.609375 -0.921875 2.203125q-0.4375 0.8125 -1.0 1.1875q-0.5625 0.375 -1.34375 0.375q-0.484375 0 -1.0625 -0.203125z" fill-rule="nonzero"/><path fill="#ead1dc" d="m178.86876 394.84912l0 0c0 -30.29303 24.557358 -54.850372 54.850403 -54.850372c30.293045 0 54.850388 24.557343 54.850388 54.850372c0 30.29306 -24.557343 54.850403 -54.850388 54.850403c-30.293045 0 -54.850403 -24.557343 -54.850403 -54.850403z" fill-rule="evenodd"/><path fill="#bba7af" d="m210.43314 378.4448c0 -3.1555176 2.5580597 -5.713562 5.7135773 -5.713562c3.1555328 0 5.7135925 2.5580444 5.7135925 5.713562c0 3.155548 -2.5580597 5.7135925 -5.7135925 5.7135925c-3.1555176 0 -5.7135773 -2.5580444 -5.7135773 -5.7135925m35.144882 0c0 -3.1555176 2.5580597 -5.713562 5.7135773 -5.713562c3.1555328 0 5.7135925 2.5580444 5.7135925 5.713562c0 3.155548 -2.5580597 5.7135925 -5.7135925 5.7135925c-3.1555176 0 -5.7135773 -2.5580444 -5.7135773 -5.7135925" fill-rule="evenodd"/><path fill="#000000" fill-opacity="0.0" d="m203.98988 418.76974q29.729279 20.417511 59.389114 0" fill-rule="evenodd"/><path fill="#000000" fill-opacity="0.0" d="m178.86876 394.84912l0 0c0 -30.29303 24.557358 -54.850372 54.850403 -54.850372c30.293045 0 54.850388 24.557343 54.850388 54.850372c0 30.29306 -24.557343 54.850403 -54.850388 54.850403c-30.293045 0 -54.850403 -24.557343 -54.850403 -54.850403z" fill-rule="evenodd"/><path stroke="#595959" stroke-width="1.0" stroke-linejoin="round" stroke-linecap="butt" d="m210.43314 378.4448c0 -3.1555176 2.5580597 -5.713562 5.7135773 -5.713562c3.1555328 0 5.7135925 2.5580444 5.7135925 5.713562c0 3.155548 -2.5580597 5.7135925 -5.7135925 5.7135925c-3.1555176 0 -5.7135773 -2.5580444 -5.7135773 -5.7135925m35.144882 0c0 -3.1555176 2.5580597 -5.713562 5.7135773 -5.713562c3.1555328 0 5.7135925 2.5580444 5.7135925 5.713562c0 3.155548 -2.5580597 5.7135925 -5.7135925 5.7135925c-3.1555176 0 -5.7135773 -2.5580444 -5.7135773 -5.7135925" fill-rule="evenodd"/><path stroke="#595959" stroke-width="1.0" stroke-linejoin="round" stroke-linecap="butt" d="m203.98988 418.76974q29.729279 20.417511 59.389114 0" fill-rule="evenodd"/><path stroke="#595959" stroke-width="1.0" stroke-linejoin="round" stroke-linecap="butt" d="m178.86876 394.84912l0 0c0 -30.29303 24.557358 -54.850372 54.850403 -54.850372c30.293045 0 54.850388 24.557343 54.850388 54.850372c0 30.29306 -24.557343 54.850403 -54.850388 54.850403c-30.293045 0 -54.850403 -24.557343 -54.850403 -54.850403z" fill-rule="evenodd"/><path fill="#000000" fill-opacity="0.0" d="m129.15224 449.69952l209.13387 0l0 42.015747l-209.13387 0z" fill-rule="evenodd"/><path fill="#000000" d="m164.0554 472.32266l1.65625 -0.140625q0.125 1.0 0.546875 1.640625q0.4375 0.640625 1.34375 1.046875q0.921875 0.390625 2.0625 0.390625q1.0 0 1.78125 -0.296875q0.78125 -0.296875 1.15625 -0.8125q0.375 -0.53125 0.375 -1.15625q0 -0.625 -0.375 -1.09375q-0.359375 -0.46875 -1.1875 -0.796875q-0.546875 -0.203125 -2.390625 -0.640625q-1.828125 -0.453125 -2.5625 -0.84375q-0.96875 -0.5 -1.4375 -1.234375q-0.46875 -0.75 -0.46875 -1.671875q0 -1.0 0.578125 -1.875q0.578125 -0.890625 1.671875 -1.34375q1.109375 -0.453125 2.453125 -0.453125q1.484375 0 2.609375 0.484375q1.140625 0.46875 1.75 1.40625q0.609375 0.921875 0.65625 2.09375l-1.6875 0.125q-0.140625 -1.265625 -0.9375 -1.90625q-0.78125 -0.65625 -2.3125 -0.65625q-1.609375 0 -2.34375 0.59375q-0.734375 0.59375 -0.734375 1.421875q0 0.71875 0.53125 1.171875q0.5 0.46875 2.65625 0.96875q2.15625 0.484375 2.953125 0.84375q1.171875 0.53125 1.71875 1.359375q0.5625 0.828125 0.5625 1.90625q0 1.0625 -0.609375 2.015625q-0.609375 0.9375 -1.75 1.46875q-1.140625 0.515625 -2.578125 0.515625q-1.8125 0 -3.046875 -0.53125q-1.21875 -0.53125 -1.921875 -1.59375q-0.6875 -1.0625 -0.71875 -2.40625zm19.162323 4.296875l0 -1.421875q-1.125 1.640625 -3.0625 1.640625q-0.859375 0 -1.609375 -0.328125q-0.734375 -0.328125 -1.09375 -0.828125q-0.359375 -0.5 -0.5 -1.21875q-0.109375 -0.46875 -0.109375 -1.53125l0 -5.984375l1.640625 0l0 5.359375q0 1.28125 0.109375 1.734375q0.15625 0.640625 0.65625 1.015625q0.5 0.375 1.234375 0.375q0.734375 0 1.375 -0.375q0.65625 -0.390625 0.921875 -1.03125q0.265625 -0.65625 0.265625 -1.890625l0 -5.1875l1.640625 0l0 9.671875l-1.46875 0zm4.047592 3.703125l0 -13.375l1.484375 0l0 1.25q0.53125 -0.734375 1.1875 -1.09375q0.671875 -0.375 1.625 -0.375q1.234375 0 2.171875 0.640625q0.953125 0.625 1.4375 1.796875q0.484375 1.15625 0.484375 2.546875q0 1.484375 -0.53125 2.671875q-0.53125 1.1875 -1.546875 1.828125q-1.015625 0.625 -2.140625 0.625q-0.8125 0 -1.46875 -0.34375q-0.65625 -0.34375 -1.0625 -0.875l0 4.703125l-1.640625 0zm1.484375 -8.484375q0 1.859375 0.75 2.765625q0.765625 0.890625 1.828125 0.890625q1.09375 0 1.875 -0.921875q0.78125 -0.9375 0.78125 -2.875q0 -1.84375 -0.765625 -2.765625q-0.75 -0.921875 -1.8125 -0.921875q-1.046875 0 -1.859375 0.984375q-0.796875 0.96875 -0.796875 2.84375zm15.516342 1.671875l1.6875 0.203125q-0.40625 1.484375 -1.484375 2.3125q-1.078125 0.8125 -2.765625 0.8125q-2.125 0 -3.375 -1.296875q-1.234375 -1.3125 -1.234375 -3.671875q0 -2.453125 1.25 -3.796875q1.265625 -1.34375 3.265625 -1.34375q1.9375 0 3.15625 1.328125q1.234375 1.3125 1.234375 3.703125q0 0.15625 0 0.4375l-7.21875 0q0.09375 1.59375 0.90625 2.453125q0.8125 0.84375 2.015625 0.84375q0.90625 0 1.546875 -0.46875q0.640625 -0.484375 1.015625 -1.515625zm-5.390625 -2.65625l5.40625 0q-0.109375 -1.21875 -0.625 -1.828125q-0.78125 -0.953125 -2.03125 -0.953125q-1.125 0 -1.90625 0.765625q-0.765625 0.75 -0.84375 2.015625zm9.125717 5.765625l0 -9.671875l1.46875 0l0 1.46875q0.5625 -1.03125 1.03125 -1.359375q0.484375 -0.328125 1.0625 -0.328125q0.828125 0 1.6875 0.53125l-0.5625 1.515625q-0.609375 -0.359375 -1.203125 -0.359375q-0.546875 0 -0.96875 0.328125q-0.421875 0.328125 -0.609375 0.890625q-0.28125 0.875 -0.28125 1.921875l0 5.0625l-1.625 0zm11.567856 0l0 -13.359375l2.65625 0l3.15625 9.453125q0.4375 1.328125 0.640625 1.984375q0.234375 -0.734375 0.703125 -2.140625l3.203125 -9.296875l2.375 0l0 13.359375l-1.703125 0l0 -11.171875l-3.875 11.171875l-1.59375 0l-3.859375 -11.375l0 11.375l-1.703125 0zm21.697052 -1.1875q-0.921875 0.765625 -1.765625 1.09375q-0.828125 0.3125 -1.796875 0.3125q-1.59375 0 -2.453125 -0.78125q-0.859375 -0.78125 -0.859375 -1.984375q0 -0.71875 0.328125 -1.296875q0.328125 -0.59375 0.84375 -0.9375q0.53125 -0.359375 1.1875 -0.546875q0.46875 -0.125 1.453125 -0.25q1.984375 -0.234375 2.921875 -0.5625q0.015625 -0.34375 0.015625 -0.421875q0 -1.0 -0.46875 -1.421875q-0.625 -0.546875 -1.875 -0.546875q-1.15625 0 -1.703125 0.40625q-0.546875 0.40625 -0.8125 1.421875l-1.609375 -0.21875q0.21875 -1.015625 0.71875 -1.640625q0.5 -0.640625 1.453125 -0.984375q0.953125 -0.34375 2.1875 -0.34375q1.25 0 2.015625 0.296875q0.78125 0.28125 1.140625 0.734375q0.375 0.4375 0.515625 1.109375q0.078125 0.421875 0.078125 1.515625l0 2.1875q0 2.28125 0.109375 2.890625q0.109375 0.59375 0.40625 1.15625l-1.703125 0q-0.265625 -0.515625 -0.328125 -1.1875zm-0.140625 -3.671875q-0.890625 0.375 -2.671875 0.625q-1.015625 0.140625 -1.4375 0.328125q-0.421875 0.1875 -0.65625 0.53125q-0.21875 0.34375 -0.21875 0.78125q0 0.65625 0.5 1.09375q0.5 0.4375 1.453125 0.4375q0.9375 0 1.671875 -0.40625q0.75 -0.421875 1.09375 -1.140625q0.265625 -0.5625 0.265625 -1.640625l0 -0.609375zm4.188217 4.859375l0 -9.671875l1.46875 0l0 1.46875q0.5625 -1.03125 1.03125 -1.359375q0.484375 -0.328125 1.0625 -0.328125q0.828125 0 1.6875 0.53125l-0.5625 1.515625q-0.609375 -0.359375 -1.203125 -0.359375q-0.546875 0 -0.96875 0.328125q-0.421875 0.328125 -0.609375 0.890625q-0.28125 0.875 -0.28125 1.921875l0 5.0625l-1.625 0zm6.228302 -11.46875l0 -1.890625l1.640625 0l0 1.890625l-1.640625 0zm0 11.46875l0 -9.671875l1.640625 0l0 9.671875l-1.640625 0zm3.5354462 -4.84375q0 -2.6875 1.4843903 -3.96875q1.2499695 -1.078125 3.0468445 -1.078125q2.0 0 3.265625 1.3125q1.265625 1.296875 1.265625 3.609375q0 1.859375 -0.5625 2.9375q-0.5625 1.0625 -1.640625 1.65625q-1.0625 0.59375 -2.328125 0.59375q-2.03125 0 -3.2812195 -1.296875q-1.2500153 -1.3125 -1.2500153 -3.765625zm1.6875153 0q0 1.859375 0.7968445 2.796875q0.8125 0.921875 2.046875 0.921875q1.21875 0 2.03125 -0.921875q0.8125 -0.9375 0.8125 -2.84375q0 -1.796875 -0.8125 -2.71875q-0.8125 -0.921875 -2.03125 -0.921875q-1.234375 0 -2.046875 0.921875q-0.7968445 0.90625 -0.7968445 2.765625zm14.6058655 4.84375l0 -13.359375l1.78125 0l0 6.625l6.625 -6.625l2.390625 0l-5.59375 5.421875l5.84375 7.9375l-2.328125 0l-4.765625 -6.765625l-2.171875 2.140625l0 4.625l-1.78125 0zm18.631073 -1.1875q-0.921875 0.765625 -1.765625 1.09375q-0.828125 0.3125 -1.796875 0.3125q-1.59375 0 -2.453125 -0.78125q-0.859375 -0.78125 -0.859375 -1.984375q0 -0.71875 0.328125 -1.296875q0.328125 -0.59375 0.84375 -0.9375q0.53125 -0.359375 1.1875 -0.546875q0.46875 -0.125 1.453125 -0.25q1.984375 -0.234375 2.921875 -0.5625q0.015625 -0.34375 0.015625 -0.421875q0 -1.0 -0.46875 -1.421875q-0.625 -0.546875 -1.875 -0.546875q-1.15625 0 -1.703125 0.40625q-0.546875 0.40625 -0.8125 1.421875l-1.609375 -0.21875q0.21875 -1.015625 0.71875 -1.640625q0.5 -0.640625 1.453125 -0.984375q0.953125 -0.34375 2.1875 -0.34375q1.25 0 2.015625 0.296875q0.78125 0.28125 1.140625 0.734375q0.375 0.4375 0.515625 1.109375q0.078125 0.421875 0.078125 1.515625l0 2.1875q0 2.28125 0.109375 2.890625q0.109375 0.59375 0.40625 1.15625l-1.703125 0q-0.265625 -0.515625 -0.328125 -1.1875zm-0.140625 -3.671875q-0.890625 0.375 -2.671875 0.625q-1.015625 0.140625 -1.4375 0.328125q-0.421875 0.1875 -0.65625 0.53125q-0.21875 0.34375 -0.21875 0.78125q0 0.65625 0.5 1.09375q0.5 0.4375 1.453125 0.4375q0.9375 0 1.671875 -0.40625q0.75 -0.421875 1.09375 -1.140625q0.265625 -0.5625 0.265625 -1.640625l0 -0.609375zm4.1882324 4.859375l0 -9.671875l1.46875 0l0 1.46875q0.5625 -1.03125 1.03125 -1.359375q0.484375 -0.328125 1.0625 -0.328125q0.828125 0 1.6875 0.53125l-0.5625 1.515625q-0.609375 -0.359375 -1.203125 -0.359375q-0.546875 0 -0.96875 0.328125q-0.421875 0.328125 -0.609375 0.890625q-0.28125 0.875 -0.28125 1.921875l0 5.0625l-1.625 0zm9.806427 -1.46875l0.234375 1.453125q-0.6875 0.140625 -1.234375 0.140625q-0.890625 0 -1.390625 -0.28125q-0.484375 -0.28125 -0.6875 -0.734375q-0.203125 -0.46875 -0.203125 -1.9375l0 -5.578125l-1.203125 0l0 -1.265625l1.203125 0l0 -2.390625l1.625 -0.984375l0 3.375l1.65625 0l0 1.265625l-1.65625 0l0 5.671875q0 0.6875 0.078125 0.890625q0.09375 0.203125 0.28125 0.328125q0.203125 0.109375 0.578125 0.109375q0.265625 0 0.71875 -0.0625z" fill-rule="nonzero"/><path fill="#eeeeee" d="m702.8583 185.93094l0 0c0 -10.783569 40.934204 -19.525375 91.42914 -19.525375c50.494873 0 91.42914 8.741806 91.42914 19.525375l0 78.10147c0 10.783569 -40.934265 19.52539 -91.42914 19.52539c-50.494934 0 -91.42914 -8.741821 -91.42914 -19.52539z" fill-rule="evenodd"/><path fill="#000000" fill-opacity="0.0" d="m885.71655 185.93094l0 0c0 10.783569 -40.934265 19.525375 -91.42914 19.525375c-50.494934 0 -91.42914 -8.741806 -91.42914 -19.525375" fill-rule="evenodd"/><path fill="#000000" fill-opacity="0.0" d="m702.8583 185.93094l0 0c0 -10.783569 40.934204 -19.525375 91.42914 -19.525375c50.494873 0 91.42914 8.741806 91.42914 19.525375l0 78.10147c0 10.783569 -40.934265 19.52539 -91.42914 19.52539c-50.494934 0 -91.42914 -8.741821 -91.42914 -19.52539z" fill-rule="evenodd"/><path stroke="#595959" stroke-width="1.0" stroke-linejoin="round" stroke-linecap="butt" d="m885.71655 185.93094l0 0c0 10.783569 -40.934265 19.525375 -91.42914 19.525375c-50.494934 0 -91.42914 -8.741806 -91.42914 -19.525375" fill-rule="evenodd"/><path stroke="#595959" stroke-width="1.0" stroke-linejoin="round" stroke-linecap="butt" d="m702.8583 185.93094l0 0c0 -10.783569 40.934204 -19.525375 91.42914 -19.525375c50.494873 0 91.42914 8.741806 91.42914 19.525375l0 78.10147c0 10.783569 -40.934265 19.52539 -91.42914 19.52539c-50.494934 0 -91.42914 -8.741821 -91.42914 -19.52539z" fill-rule="evenodd"/><path fill="#000000" d="m722.61664 241.46437l0 -13.359375l5.046875 0q1.328125 0 2.03125 0.125q0.96875 0.171875 1.640625 0.640625q0.671875 0.453125 1.078125 1.28125q0.40625 0.828125 0.40625 1.828125q0 1.703125 -1.09375 2.890625q-1.078125 1.171875 -3.921875 1.171875l-3.421875 0l0 5.421875l-1.765625 0zm1.765625 -7.0l3.453125 0q1.71875 0 2.4375 -0.640625q0.71875 -0.640625 0.71875 -1.796875q0 -0.84375 -0.421875 -1.4375q-0.421875 -0.59375 -1.125 -0.78125q-0.4375 -0.125 -1.640625 -0.125l-3.421875 0l0 4.78125zm10.4747925 7.0l0 -13.359375l1.640625 0l0 4.796875q1.140625 -1.328125 2.890625 -1.328125q1.078125 0 1.859375 0.421875q0.796875 0.421875 1.140625 1.171875q0.34375 0.75 0.34375 2.171875l0 6.125l-1.640625 0l0 -6.125q0 -1.234375 -0.53125 -1.796875q-0.53125 -0.5625 -1.515625 -0.5625q-0.71875 0 -1.359375 0.390625q-0.640625 0.375 -0.921875 1.015625q-0.265625 0.640625 -0.265625 1.78125l0 5.296875l-1.640625 0zm10.297607 3.71875l-0.1875 -1.53125q0.546875 0.140625 0.9375 0.140625q0.546875 0 0.875 -0.1875q0.328125 -0.171875 0.546875 -0.5q0.15625 -0.25 0.5 -1.21875q0.046875 -0.140625 0.140625 -0.40625l-3.671875 -9.6875l1.765625 0l2.015625 5.59375q0.390625 1.078125 0.703125 2.25q0.28125 -1.125 0.671875 -2.203125l2.078125 -5.640625l1.640625 0l-3.6875 9.828125q-0.59375 1.609375 -0.921875 2.203125q-0.4375 0.8125 -1.0 1.1875q-0.5625 0.375 -1.34375 0.375q-0.484375 0 -1.0625 -0.203125zm8.75 -6.609375l1.625 -0.25q0.125 0.96875 0.75 1.5q0.625 0.515625 1.75 0.515625q1.125 0 1.671875 -0.453125q0.546875 -0.46875 0.546875 -1.09375q0 -0.546875 -0.484375 -0.875q-0.328125 -0.21875 -1.671875 -0.546875q-1.8125 -0.46875 -2.515625 -0.796875q-0.6875 -0.328125 -1.046875 -0.90625q-0.359375 -0.59375 -0.359375 -1.3125q0 -0.640625 0.296875 -1.1875q0.296875 -0.5625 0.8125 -0.921875q0.375 -0.28125 1.03125 -0.46875q0.671875 -0.203125 1.421875 -0.203125q1.140625 0 2.0 0.328125q0.859375 0.328125 1.265625 0.890625q0.421875 0.5625 0.578125 1.5l-1.609375 0.21875q-0.109375 -0.75 -0.640625 -1.171875q-0.515625 -0.421875 -1.46875 -0.421875q-1.140625 0 -1.625 0.375q-0.46875 0.375 -0.46875 0.875q0 0.3125 0.1875 0.578125q0.203125 0.265625 0.640625 0.4375q0.234375 0.09375 1.4375 0.421875q1.75 0.453125 2.4375 0.75q0.6875 0.296875 1.078125 0.859375q0.390625 0.5625 0.390625 1.40625q0 0.828125 -0.484375 1.546875q-0.46875 0.71875 -1.375 1.125q-0.90625 0.390625 -2.046875 0.390625q-1.875 0 -2.875 -0.78125q-0.984375 -0.78125 -1.25 -2.328125zm9.984375 -8.578125l0 -1.890625l1.640625 0l0 1.890625l-1.640625 0zm0 11.46875l0 -9.671875l1.640625 0l0 9.671875l-1.640625 0zm10.457336 -3.546875l1.609375 0.21875q-0.265625 1.65625 -1.359375 2.609375q-1.078125 0.9375 -2.671875 0.9375q-1.984375 0 -3.1875 -1.296875q-1.203125 -1.296875 -1.203125 -3.71875q0 -1.578125 0.515625 -2.75q0.515625 -1.171875 1.578125 -1.75q1.0625 -0.59375 2.3125 -0.59375q1.578125 0 2.578125 0.796875q1.0 0.796875 1.28125 2.265625l-1.59375 0.234375q-0.234375 -0.96875 -0.8125 -1.453125q-0.578125 -0.5 -1.390625 -0.5q-1.234375 0 -2.015625 0.890625q-0.78125 0.890625 -0.78125 2.8125q0 1.953125 0.75 2.84375q0.75 0.875 1.953125 0.875q0.96875 0 1.609375 -0.59375q0.65625 -0.59375 0.828125 -1.828125zm2.359375 0.65625l1.625 -0.25q0.125 0.96875 0.75 1.5q0.625 0.515625 1.75 0.515625q1.125 0 1.671875 -0.453125q0.546875 -0.46875 0.546875 -1.09375q0 -0.546875 -0.484375 -0.875q-0.328125 -0.21875 -1.671875 -0.546875q-1.8125 -0.46875 -2.515625 -0.796875q-0.6875 -0.328125 -1.046875 -0.90625q-0.359375 -0.59375 -0.359375 -1.3125q0 -0.640625 0.296875 -1.1875q0.296875 -0.5625 0.8125 -0.921875q0.375 -0.28125 1.03125 -0.46875q0.671875 -0.203125 1.421875 -0.203125q1.140625 0 2.0 0.328125q0.859375 0.328125 1.265625 0.890625q0.421875 0.5625 0.578125 1.5l-1.609375 0.21875q-0.109375 -0.75 -0.640625 -1.171875q-0.515625 -0.421875 -1.46875 -0.421875q-1.140625 0 -1.625 0.375q-0.46875 0.375 -0.46875 0.875q0 0.3125 0.1875 0.578125q0.203125 0.265625 0.640625 0.4375q0.234375 0.09375 1.4375 0.421875q1.75 0.453125 2.4375 0.75q0.6875 0.296875 1.078125 0.859375q0.390625 0.5625 0.390625 1.40625q0 0.828125 -0.484375 1.546875q-0.46875 0.71875 -1.375 1.125q-0.90625 0.390625 -2.046875 0.390625q-1.875 0 -2.875 -0.78125q-0.984375 -0.78125 -1.25 -2.328125zm10.21875 2.890625l0 -13.359375l9.65625 0l0 1.578125l-7.875 0l0 4.09375l7.375 0l0 1.5625l-7.375 0l0 4.546875l8.1875 0l0 1.578125l-9.96875 0zm12.2091675 0l0 -9.671875l1.46875 0l0 1.375q1.0625 -1.59375 3.078125 -1.59375q0.875 0 1.609375 0.3125q0.734375 0.3125 1.09375 0.828125q0.375 0.5 0.515625 1.203125q0.09375 0.453125 0.09375 1.59375l0 5.953125l-1.640625 0l0 -5.890625q0 -1.0 -0.203125 -1.484375q-0.1875 -0.5 -0.671875 -0.796875q-0.484375 -0.296875 -1.140625 -0.296875q-1.046875 0 -1.8125 0.671875q-0.75 0.65625 -0.75 2.515625l0 5.28125l-1.640625 0zm10.063232 0.796875l1.59375 0.234375q0.109375 0.75 0.5625 1.078125q0.609375 0.453125 1.671875 0.453125q1.140625 0 1.75 -0.453125q0.625 -0.453125 0.84375 -1.265625q0.125 -0.5 0.109375 -2.109375q-1.0625 1.265625 -2.671875 1.265625q-2.0 0 -3.09375 -1.4375q-1.09375 -1.4375 -1.09375 -3.453125q0 -1.390625 0.5 -2.5625q0.515625 -1.171875 1.453125 -1.796875q0.953125 -0.640625 2.25 -0.640625q1.703125 0 2.8125 1.375l0 -1.15625l1.515625 0l0 8.359375q0 2.265625 -0.46875 3.203125q-0.453125 0.9375 -1.453125 1.484375q-0.984375 0.546875 -2.453125 0.546875q-1.71875 0 -2.796875 -0.78125q-1.0625 -0.765625 -1.03125 -2.34375zm1.359375 -5.8125q0 1.90625 0.75 2.78125q0.765625 0.875 1.90625 0.875q1.125 0 1.890625 -0.859375q0.765625 -0.875 0.765625 -2.734375q0 -1.78125 -0.796875 -2.671875q-0.78125 -0.90625 -1.890625 -0.90625q-1.09375 0 -1.859375 0.890625q-0.765625 0.875 -0.765625 2.625zm9.328857 -6.453125l0 -1.890625l1.640625 0l0 1.890625l-1.640625 0zm0 11.46875l0 -9.671875l1.640625 0l0 9.671875l-1.640625 0zm4.1448364 0l0 -9.671875l1.46875 0l0 1.375q1.0625 -1.59375 3.078125 -1.59375q0.875 0 1.609375 0.3125q0.734375 0.3125 1.09375 0.828125q0.375 0.5 0.515625 1.203125q0.09375 0.453125 0.09375 1.59375l0 5.953125l-1.640625 0l0 -5.890625q0 -1.0 -0.203125 -1.484375q-0.1875 -0.5 -0.671875 -0.796875q-0.484375 -0.296875 -1.140625 -0.296875q-1.046875 0 -1.8125 0.671875q-0.75 0.65625 -0.75 2.515625l0 5.28125l-1.640625 0zm17.000671 -3.109375l1.6875 0.203125q-0.40625 1.484375 -1.484375 2.3125q-1.078125 0.8125 -2.765625 0.8125q-2.125 0 -3.375 -1.296875q-1.234375 -1.3125 -1.234375 -3.671875q0 -2.453125 1.25 -3.796875q1.265625 -1.34375 3.265625 -1.34375q1.9375 0 3.15625 1.328125q1.234375 1.3125 1.234375 3.703125q0 0.15625 0 0.4375l-7.21875 0q0.09375 1.59375 0.90625 2.453125q0.8125 0.84375 2.015625 0.84375q0.90625 0 1.546875 -0.46875q0.640625 -0.484375 1.015625 -1.515625zm-5.390625 -2.65625l5.40625 0q-0.109375 -1.21875 -0.625 -1.828125q-0.78125 -0.953125 -2.03125 -0.953125q-1.125 0 -1.90625 0.765625q-0.765625 0.75 -0.84375 2.015625zm9.594482 5.765625l0 -1.875l1.875 0l0 1.875l-1.875 0zm10.995789 0l0 -1.21875q-0.90625 1.4375 -2.703125 1.4375q-1.15625 0 -2.125 -0.640625q-0.96875 -0.640625 -1.5 -1.78125q-0.53125 -1.140625 -0.53125 -2.625q0 -1.453125 0.484375 -2.625q0.484375 -1.1875 1.4375 -1.8125q0.96875 -0.625 2.171875 -0.625q0.875 0 1.546875 0.375q0.6875 0.359375 1.109375 0.953125l0 -4.796875l1.640625 0l0 13.359375l-1.53125 0zm-5.171875 -4.828125q0 1.859375 0.78125 2.78125q0.78125 0.921875 1.84375 0.921875q1.078125 0 1.828125 -0.875q0.75 -0.890625 0.75 -2.6875q0 -1.984375 -0.765625 -2.90625q-0.765625 -0.9375 -1.890625 -0.9375q-1.078125 0 -1.8125 0.890625q-0.734375 0.890625 -0.734375 2.8125zm9.235107 4.828125l0 -13.359375l1.640625 0l0 13.359375l-1.640625 0zm4.1448364 0l0 -13.359375l1.640625 0l0 13.359375l-1.640625 0z" fill-rule="nonzero"/><path fill="#b6d7a8" d="m856.00525 308.91602l0 0c0 30.29303 -24.557373 54.850403 -54.850403 54.850403c-30.29303 0 -54.850403 -24.557373 -54.850403 -54.850403c0 -30.29303 24.557373 -54.850403 54.850403 -54.850403l0 54.850403z" fill-rule="evenodd"/><path stroke="#595959" stroke-width="1.0" stroke-linejoin="round" stroke-linecap="butt" d="m856.00525 308.91602l0 0c0 30.29303 -24.557373 54.850403 -54.850403 54.850403c-30.29303 0 -54.850403 -24.557373 -54.850403 -54.850403c0 -30.29303 24.557373 -54.850403 54.850403 -54.850403l0 54.850403z" fill-rule="evenodd"/><path fill="#000000" fill-opacity="0.0" d="m700.00525 359.20734l202.2992 0l0 42.015747l-202.2992 0z" fill-rule="evenodd"/><path fill="#000000" d="m765.7809 386.12735l0 -13.359375l5.046875 0q1.328125 0 2.03125 0.125q0.96875 0.171875 1.640625 0.640625q0.671875 0.453125 1.078125 1.28125q0.40625 0.828125 0.40625 1.828125q0 1.703125 -1.09375 2.890625q-1.078125 1.171875 -3.921875 1.171875l-3.421875 0l0 5.421875l-1.765625 0zm1.765625 -7.0l3.453125 0q1.71875 0 2.4375 -0.640625q0.71875 -0.640625 0.71875 -1.796875q0 -0.84375 -0.421875 -1.4375q-0.421875 -0.59375 -1.125 -0.78125q-0.4375 -0.125 -1.640625 -0.125l-3.421875 0l0 4.78125zm16.787292 5.8125q-0.921875 0.765625 -1.765625 1.09375q-0.828125 0.3125 -1.796875 0.3125q-1.59375 0 -2.453125 -0.78125q-0.859375 -0.78125 -0.859375 -1.984375q0 -0.71875 0.328125 -1.296875q0.328125 -0.59375 0.84375 -0.9375q0.53125 -0.359375 1.1875 -0.546875q0.46875 -0.125 1.453125 -0.25q1.984375 -0.234375 2.921875 -0.5625q0.015625 -0.34375 0.015625 -0.421875q0 -1.0 -0.46875 -1.421875q-0.625 -0.546875 -1.875 -0.546875q-1.15625 0 -1.703125 0.40625q-0.546875 0.40625 -0.8125 1.421875l-1.609375 -0.21875q0.21875 -1.015625 0.71875 -1.640625q0.5 -0.640625 1.453125 -0.984375q0.953125 -0.34375 2.1875 -0.34375q1.25 0 2.015625 0.296875q0.78125 0.28125 1.140625 0.734375q0.375 0.4375 0.515625 1.109375q0.078125 0.421875 0.078125 1.515625l0 2.1875q0 2.28125 0.109375 2.890625q0.109375 0.59375 0.40625 1.15625l-1.703125 0q-0.265625 -0.515625 -0.328125 -1.1875zm-0.140625 -3.671875q-0.890625 0.375 -2.671875 0.625q-1.015625 0.140625 -1.4375 0.328125q-0.421875 0.1875 -0.65625 0.53125q-0.21875 0.34375 -0.21875 0.78125q0 0.65625 0.5 1.09375q0.5 0.4375 1.453125 0.4375q0.9375 0 1.671875 -0.40625q0.75 -0.421875 1.09375 -1.140625q0.265625 -0.5625 0.265625 -1.640625l0 -0.609375zm10.516357 1.3125l1.609375 0.21875q-0.265625 1.65625 -1.359375 2.609375q-1.078125 0.9375 -2.671875 0.9375q-1.984375 0 -3.1875 -1.296875q-1.203125 -1.296875 -1.203125 -3.71875q0 -1.578125 0.515625 -2.75q0.515625 -1.171875 1.578125 -1.75q1.0625 -0.59375 2.3125 -0.59375q1.578125 0 2.578125 0.796875q1.0 0.796875 1.28125 2.265625l-1.59375 0.234375q-0.234375 -0.96875 -0.8125 -1.453125q-0.578125 -0.5 -1.390625 -0.5q-1.234375 0 -2.015625 0.890625q-0.78125 0.890625 -0.78125 2.8125q0 1.953125 0.75 2.84375q0.75 0.875 1.953125 0.875q0.96875 0 1.609375 -0.59375q0.65625 -0.59375 0.828125 -1.828125zm8.355164 3.546875l0 -13.359375l2.65625 0l3.15625 9.453125q0.4375 1.328125 0.640625 1.984375q0.234375 -0.734375 0.703125 -2.140625l3.203125 -9.296875l2.375 0l0 13.359375l-1.703125 0l0 -11.171875l-3.875 11.171875l-1.59375 0l-3.859375 -11.375l0 11.375l-1.703125 0zm21.697083 -1.1875q-0.921875 0.765625 -1.765625 1.09375q-0.828125 0.3125 -1.796875 0.3125q-1.59375 0 -2.453125 -0.78125q-0.859375 -0.78125 -0.859375 -1.984375q0 -0.71875 0.328125 -1.296875q0.328125 -0.59375 0.84375 -0.9375q0.53125 -0.359375 1.1875 -0.546875q0.46875 -0.125 1.453125 -0.25q1.984375 -0.234375 2.921875 -0.5625q0.015625 -0.34375 0.015625 -0.421875q0 -1.0 -0.46875 -1.421875q-0.625 -0.546875 -1.875 -0.546875q-1.15625 0 -1.703125 0.40625q-0.546875 0.40625 -0.8125 1.421875l-1.609375 -0.21875q0.21875 -1.015625 0.71875 -1.640625q0.5 -0.640625 1.453125 -0.984375q0.953125 -0.34375 2.1875 -0.34375q1.25 0 2.015625 0.296875q0.78125 0.28125 1.140625 0.734375q0.375 0.4375 0.515625 1.109375q0.078125 0.421875 0.078125 1.515625l0 2.1875q0 2.28125 0.109375 2.890625q0.109375 0.59375 0.40625 1.15625l-1.703125 0q-0.265625 -0.515625 -0.328125 -1.1875zm-0.140625 -3.671875q-0.890625 0.375 -2.671875 0.625q-1.015625 0.140625 -1.4375 0.328125q-0.421875 0.1875 -0.65625 0.53125q-0.21875 0.34375 -0.21875 0.78125q0 0.65625 0.5 1.09375q0.5 0.4375 1.453125 0.4375q0.9375 0 1.671875 -0.40625q0.75 -0.421875 1.09375 -1.140625q0.265625 -0.5625 0.265625 -1.640625l0 -0.609375zm4.2038574 4.859375l0 -9.671875l1.46875 0l0 1.375q1.0625 -1.59375 3.078125 -1.59375q0.875 0 1.609375 0.3125q0.734375 0.3125 1.09375 0.828125q0.375 0.5 0.515625 1.203125q0.09375 0.453125 0.09375 1.59375l0 5.953125l-1.640625 0l0 -5.890625q0 -1.0 -0.203125 -1.484375q-0.1875 -0.5 -0.671875 -0.796875q-0.484375 -0.296875 -1.140625 -0.296875q-1.046875 0 -1.8125 0.671875q-0.75 0.65625 -0.75 2.515625l0 5.28125l-1.640625 0z" fill-rule="nonzero"/><path fill="#000000" fill-opacity="0.0" d="m320.00787 340.0l241.13385 0l0 101.79529l-241.13385 0z" fill-rule="evenodd"/><path fill="#000000" d="m329.82037 365.47876l3.1875 -0.3125q0.296875 1.609375 1.171875 2.359375q0.875 0.75 2.375 0.75q1.578125 0 2.375 -0.65625q0.8125 -0.671875 0.8125 -1.578125q0 -0.5625 -0.34375 -0.96875q-0.328125 -0.40625 -1.171875 -0.703125q-0.578125 -0.203125 -2.625 -0.71875q-2.640625 -0.640625 -3.703125 -1.59375q-1.484375 -1.34375 -1.484375 -3.265625q0 -1.234375 0.703125 -2.3125q0.703125 -1.078125 2.015625 -1.640625q1.328125 -0.578125 3.203125 -0.578125q3.046875 0 4.59375 1.34375q1.546875 1.34375 1.625 3.578125l-3.28125 0.140625q-0.203125 -1.25 -0.90625 -1.796875q-0.6875 -0.546875 -2.0625 -0.546875q-1.4375 0 -2.234375 0.578125q-0.53125 0.375 -0.53125 1.015625q0 0.578125 0.484375 0.984375q0.625 0.515625 3.015625 1.078125q2.390625 0.5625 3.53125 1.171875q1.15625 0.59375 1.796875 1.640625q0.640625 1.046875 0.640625 2.59375q0 1.390625 -0.78125 2.609375q-0.765625 1.21875 -2.1875 1.8125q-1.40625 0.578125 -3.515625 0.578125q-3.078125 0 -4.734375 -1.421875q-1.640625 -1.421875 -1.96875 -4.140625zm15.205292 -0.765625q0 -1.546875 0.765625 -2.984375q0.765625 -1.453125 2.15625 -2.21875q1.40625 -0.765625 3.125 -0.765625q2.671875 0 4.375 1.734375q1.703125 1.734375 1.703125 4.375q0 2.671875 -1.71875 4.421875q-1.71875 1.75 -4.328125 1.75q-1.625 0 -3.09375 -0.71875q-1.453125 -0.734375 -2.21875 -2.140625q-0.765625 -1.421875 -0.765625 -3.453125zm3.1875 0.171875q0 1.75 0.828125 2.6875q0.828125 0.921875 2.046875 0.921875q1.21875 0 2.03125 -0.921875q0.828125 -0.9375 0.828125 -2.703125q0 -1.734375 -0.828125 -2.65625q-0.8125 -0.9375 -2.03125 -0.9375q-1.21875 0 -2.046875 0.9375q-0.828125 0.921875 -0.828125 2.671875zm11.13623 -5.875l2.875 0l0 1.609375q1.53125 -1.875 3.65625 -1.875q1.125 0 1.953125 0.46875q0.828125 0.46875 1.359375 1.40625q0.78125 -0.9375 1.671875 -1.40625q0.90625 -0.46875 1.921875 -0.46875q1.296875 0 2.1875 0.53125q0.890625 0.515625 1.34375 1.546875q0.3125 0.75 0.3125 2.421875l0 7.515625l-3.109375 0l0 -6.71875q0 -1.75 -0.3125 -2.25q-0.4375 -0.671875 -1.328125 -0.671875q-0.65625 0 -1.234375 0.40625q-0.578125 0.390625 -0.828125 1.171875q-0.25 0.765625 -0.25 2.421875l0 5.640625l-3.109375 0l0 -6.4375q0 -1.71875 -0.171875 -2.21875q-0.15625 -0.5 -0.515625 -0.734375q-0.34375 -0.25 -0.9375 -0.25q-0.71875 0 -1.296875 0.390625q-0.578125 0.390625 -0.828125 1.125q-0.25 0.71875 -0.25 2.421875l0 5.703125l-3.109375 0l0 -11.75zm27.191895 8.015625l3.09375 0.515625q-0.59375 1.703125 -1.890625 2.59375q-1.28125 0.890625 -3.21875 0.890625q-3.0625 0 -4.546875 -2.0q-1.15625 -1.609375 -1.15625 -4.046875q0 -2.921875 1.515625 -4.578125q1.53125 -1.65625 3.875 -1.65625q2.625 0 4.140625 1.734375q1.515625 1.734375 1.4375 5.296875l-7.78125 0q0.03125 1.390625 0.75 2.15625q0.71875 0.765625 1.796875 0.765625q0.71875 0 1.21875 -0.390625q0.5 -0.40625 0.765625 -1.28125zm0.171875 -3.140625q-0.03125 -1.359375 -0.703125 -2.0625q-0.65625 -0.703125 -1.609375 -0.703125q-1.015625 0 -1.6875 0.75q-0.65625 0.734375 -0.65625 2.015625l4.65625 0zm4.897217 0.828125q0 -1.546875 0.765625 -2.984375q0.765625 -1.453125 2.15625 -2.21875q1.40625 -0.765625 3.125 -0.765625q2.671875 0 4.375 1.734375q1.703125 1.734375 1.703125 4.375q0 2.671875 -1.71875 4.421875q-1.71875 1.75 -4.328125 1.75q-1.625 0 -3.09375 -0.71875q-1.453125 -0.734375 -2.21875 -2.140625q-0.765625 -1.421875 -0.765625 -3.453125zm3.1875 0.171875q0 1.75 0.828125 2.6875q0.828125 0.921875 2.046875 0.921875q1.21875 0 2.03125 -0.921875q0.828125 -0.9375 0.828125 -2.703125q0 -1.734375 -0.828125 -2.65625q-0.8125 -0.9375 -2.03125 -0.9375q-1.21875 0 -2.046875 0.9375q-0.828125 0.921875 -0.828125 2.671875zm22.058075 5.875l-3.109375 0l0 -6.0q0 -1.90625 -0.203125 -2.453125q-0.1875 -0.5625 -0.640625 -0.875q-0.453125 -0.3125 -1.078125 -0.3125q-0.8125 0 -1.453125 0.453125q-0.640625 0.4375 -0.875 1.171875q-0.234375 0.71875 -0.234375 2.6875l0 5.328125l-3.109375 0l0 -11.75l2.875 0l0 1.734375q1.546875 -2.0 3.875 -2.0q1.03125 0 1.875 0.375q0.859375 0.375 1.296875 0.953125q0.4375 0.5625 0.609375 1.296875q0.171875 0.734375 0.171875 2.09375l0 7.296875zm9.964355 -3.734375l3.09375 0.515625q-0.59375 1.703125 -1.890625 2.59375q-1.28125 0.890625 -3.21875 0.890625q-3.0625 0 -4.546875 -2.0q-1.15625 -1.609375 -1.15625 -4.046875q0 -2.921875 1.515625 -4.578125q1.53125 -1.65625 3.875 -1.65625q2.625 0 4.140625 1.734375q1.515625 1.734375 1.4375 5.296875l-7.78125 0q0.03125 1.390625 0.75 2.15625q0.71875 0.765625 1.796875 0.765625q0.71875 0 1.21875 -0.390625q0.5 -0.40625 0.765625 -1.28125zm0.171875 -3.140625q-0.03125 -1.359375 -0.703125 -2.0625q-0.65625 -0.703125 -1.609375 -0.703125q-1.015625 0 -1.6875 0.75q-0.65625 0.734375 -0.65625 2.015625l4.65625 0zm18.723083 3.140625l3.09375 0.515625q-0.59375 1.703125 -1.890625 2.59375q-1.28125 0.890625 -3.21875 0.890625q-3.0625 0 -4.546875 -2.0q-1.15625 -1.609375 -1.15625 -4.046875q0 -2.921875 1.515625 -4.578125q1.53125 -1.65625 3.875 -1.65625q2.625 0 4.140625 1.734375q1.515625 1.734375 1.4375 5.296875l-7.78125 0q0.03125 1.390625 0.75 2.15625q0.71875 0.765625 1.796875 0.765625q0.71875 0 1.21875 -0.390625q0.5 -0.40625 0.765625 -1.28125zm0.171875 -3.140625q-0.03125 -1.359375 -0.703125 -2.0625q-0.65625 -0.703125 -1.609375 -0.703125q-1.015625 0 -1.6875 0.75q-0.65625 0.734375 -0.65625 2.015625l4.65625 0zm5.6159363 6.875l0 -16.21875l3.109375 0l0 16.21875l-3.109375 0zm5.200897 -3.359375l3.125 -0.46875q0.1875 0.90625 0.796875 1.375q0.609375 0.46875 1.703125 0.46875q1.21875 0 1.8125 -0.4375q0.421875 -0.3125 0.421875 -0.828125q0 -0.359375 -0.21875 -0.59375q-0.234375 -0.21875 -1.046875 -0.40625q-3.765625 -0.828125 -4.765625 -1.515625q-1.390625 -0.953125 -1.390625 -2.640625q0 -1.53125 1.203125 -2.5625q1.203125 -1.046875 3.734375 -1.046875q2.40625 0 3.578125 0.796875q1.1875 0.78125 1.625 2.3125l-2.9375 0.546875q-0.1875 -0.6875 -0.71875 -1.046875q-0.515625 -0.375 -1.484375 -0.375q-1.234375 0 -1.765625 0.34375q-0.359375 0.25 -0.359375 0.625q0 0.34375 0.3125 0.578125q0.421875 0.296875 2.90625 0.875q2.484375 0.5625 3.46875 1.375q0.96875 0.828125 0.96875 2.3125q0 1.609375 -1.34375 2.78125q-1.34375 1.15625 -4.0 1.15625q-2.390625 0 -3.796875 -0.96875q-1.390625 -0.984375 -1.828125 -2.65625zm20.506561 -0.375l3.09375 0.515625q-0.59375 1.703125 -1.890625 2.59375q-1.28125 0.890625 -3.21875 0.890625q-3.0625 0 -4.546875 -2.0q-1.15625 -1.609375 -1.15625 -4.046875q0 -2.921875 1.515625 -4.578125q1.53125 -1.65625 3.875 -1.65625q2.625 0 4.140625 1.734375q1.515625 1.734375 1.4375 5.296875l-7.78125 0q0.03125 1.390625 0.75 2.15625q0.71875 0.765625 1.796875 0.765625q0.71875 0 1.21875 -0.390625q0.5 -0.40625 0.765625 -1.28125zm0.171875 -3.140625q-0.03125 -1.359375 -0.703125 -2.0625q-0.65625 -0.703125 -1.609375 -0.703125q-1.015625 0 -1.6875 0.75q-0.65625 0.734375 -0.65625 2.015625l4.65625 0zm14.0980835 6.875l-3.71875 -11.75l3.03125 0l2.203125 7.703125l2.015625 -7.703125l3.0 0l1.953125 7.703125l2.25 -7.703125l3.0625 0l-3.765625 11.75l-2.984375 0l-2.03125 -7.5625l-1.984375 7.5625l-3.03125 0zm17.763397 -8.171875l-2.828125 -0.5q0.484375 -1.703125 1.640625 -2.515625q1.15625 -0.828125 3.453125 -0.828125q2.078125 0 3.09375 0.5q1.015625 0.484375 1.421875 1.25q0.421875 0.75 0.421875 2.78125l-0.03125 3.625q0 1.546875 0.140625 2.28125q0.15625 0.734375 0.578125 1.578125l-3.078125 0q-0.125 -0.3125 -0.296875 -0.921875q-0.078125 -0.265625 -0.109375 -0.359375q-0.796875 0.765625 -1.71875 1.15625q-0.90625 0.390625 -1.921875 0.390625q-1.828125 0 -2.875 -0.984375q-1.03125 -0.984375 -1.03125 -2.484375q0 -1.0 0.46875 -1.78125q0.484375 -0.78125 1.328125 -1.1875q0.859375 -0.421875 2.484375 -0.734375q2.171875 -0.40625 3.015625 -0.765625l0 -0.296875q0 -0.90625 -0.453125 -1.28125q-0.4375 -0.390625 -1.65625 -0.390625q-0.828125 0 -1.296875 0.328125q-0.46875 0.328125 -0.75 1.140625zm4.15625 2.53125q-0.59375 0.203125 -1.890625 0.484375q-1.296875 0.265625 -1.6875 0.53125q-0.609375 0.4375 -0.609375 1.09375q0 0.65625 0.484375 1.140625q0.484375 0.46875 1.234375 0.46875q0.84375 0 1.609375 -0.5625q0.5625 -0.40625 0.734375 -1.015625q0.125 -0.40625 0.125 -1.515625l0 -0.625zm16.803467 5.640625l-3.109375 0l0 -6.0q0 -1.90625 -0.203125 -2.453125q-0.1875 -0.5625 -0.640625 -0.875q-0.453125 -0.3125 -1.078125 -0.3125q-0.8125 0 -1.453125 0.453125q-0.640625 0.4375 -0.875 1.171875q-0.234375 0.71875 -0.234375 2.6875l0 5.328125l-3.109375 0l0 -11.75l2.875 0l0 1.734375q1.546875 -2.0 3.875 -2.0q1.03125 0 1.875 0.375q0.859375 0.375 1.296875 0.953125q0.4375 0.5625 0.609375 1.296875q0.171875 0.734375 0.171875 2.09375l0 7.296875zm8.542419 -11.75l0 2.484375l-2.125 0l0 4.734375q0 1.4375 0.0625 1.671875q0.0625 0.234375 0.265625 0.390625q0.21875 0.15625 0.53125 0.15625q0.4375 0 1.25 -0.296875l0.265625 2.40625q-1.078125 0.46875 -2.453125 0.46875q-0.84375 0 -1.515625 -0.28125q-0.671875 -0.28125 -1.0 -0.71875q-0.3125 -0.453125 -0.421875 -1.21875q-0.109375 -0.546875 -0.109375 -2.203125l0 -5.109375l-1.421875 0l0 -2.484375l1.421875 0l0 -2.328125l3.125 -1.8125l0 4.140625l2.125 0zm1.0603638 8.390625l3.125 -0.46875q0.1875 0.90625 0.796875 1.375q0.609375 0.46875 1.703125 0.46875q1.21875 0 1.8125 -0.4375q0.421875 -0.3125 0.421875 -0.828125q0 -0.359375 -0.21875 -0.59375q-0.234375 -0.21875 -1.046875 -0.40625q-3.765625 -0.828125 -4.765625 -1.515625q-1.390625 -0.953125 -1.390625 -2.640625q0 -1.53125 1.203125 -2.5625q1.203125 -1.046875 3.734375 -1.046875q2.40625 0 3.578125 0.796875q1.1875 0.78125 1.625 2.3125l-2.9375 0.546875q-0.1875 -0.6875 -0.71875 -1.046875q-0.515625 -0.375 -1.484375 -0.375q-1.234375 0 -1.765625 0.34375q-0.359375 0.25 -0.359375 0.625q0 0.34375 0.3125 0.578125q0.421875 0.296875 2.90625 0.875q2.484375 0.5625 3.46875 1.375q0.96875 0.828125 0.96875 2.3125q0 1.609375 -1.34375 2.78125q-1.34375 1.15625 -4.0 1.15625q-2.390625 0 -3.796875 -0.96875q-1.390625 -0.984375 -1.828125 -2.65625z" fill-rule="nonzero"/><path fill="#000000" d="m336.0235 386.21l0 2.484375l-2.125 0l0 4.734375q0 1.4375 0.0625 1.671875q0.0625 0.234375 0.265625 0.390625q0.21875 0.15625 0.53125 0.15625q0.4375 0 1.25 -0.296875l0.265625 2.40625q-1.078125 0.46875 -2.453125 0.46875q-0.84375 0 -1.515625 -0.28125q-0.671875 -0.28125 -1.0 -0.71875q-0.3125 -0.453125 -0.421875 -1.21875q-0.109375 -0.546875 -0.109375 -2.203125l0 -5.109375l-1.421875 0l0 -2.484375l1.421875 0l0 -2.328125l3.125 -1.8125l0 4.140625l2.125 0zm1.4353333 5.703125q0 -1.546875 0.765625 -2.984375q0.765625 -1.453125 2.15625 -2.21875q1.40625 -0.765625 3.125 -0.765625q2.671875 0 4.375 1.734375q1.703125 1.734375 1.703125 4.375q0 2.671875 -1.71875 4.421875q-1.71875 1.75 -4.328125 1.75q-1.625 0 -3.09375 -0.71875q-1.453125 -0.734375 -2.21875 -2.140625q-0.765625 -1.421875 -0.765625 -3.453125zm3.1875 0.171875q0 1.75 0.828125 2.6875q0.828125 0.921875 2.046875 0.921875q1.21875 0 2.03125 -0.921875q0.828125 -0.9375 0.828125 -2.703125q0 -1.734375 -0.828125 -2.65625q-0.8125 -0.9375 -2.03125 -0.9375q-1.21875 0 -2.046875 0.9375q-0.828125 0.921875 -0.828125 2.671875zm17.571472 -5.875l2.90625 0l0 1.734375q0.5625 -0.890625 1.515625 -1.4375q0.96875 -0.5625 2.140625 -0.5625q2.046875 0 3.46875 1.609375q1.4375 1.59375 1.4375 4.46875q0 2.9375 -1.4375 4.578125q-1.4375 1.625 -3.484375 1.625q-0.96875 0 -1.765625 -0.390625q-0.796875 -0.390625 -1.671875 -1.328125l0 5.921875l-3.109375 0l0 -16.21875zm3.078125 5.671875q0 1.984375 0.78125 2.9375q0.796875 0.9375 1.921875 0.9375q1.078125 0 1.796875 -0.859375q0.71875 -0.875 0.71875 -2.859375q0 -1.84375 -0.734375 -2.734375q-0.734375 -0.90625 -1.84375 -0.90625q-1.125 0 -1.890625 0.890625q-0.75 0.875 -0.75 2.59375zm10.85498 6.078125l0 -16.21875l3.109375 0l0 16.21875l-3.109375 0zm8.622742 -8.171875l-2.828125 -0.5q0.484375 -1.703125 1.640625 -2.515625q1.15625 -0.828125 3.453125 -0.828125q2.078125 0 3.09375 0.5q1.015625 0.484375 1.421875 1.25q0.421875 0.75 0.421875 2.78125l-0.03125 3.625q0 1.546875 0.140625 2.28125q0.15625 0.734375 0.578125 1.578125l-3.078125 0q-0.125 -0.3125 -0.296875 -0.921875q-0.078125 -0.265625 -0.109375 -0.359375q-0.796875 0.765625 -1.71875 1.15625q-0.90625 0.390625 -1.921875 0.390625q-1.828125 0 -2.875 -0.984375q-1.03125 -0.984375 -1.03125 -2.484375q0 -1.0 0.46875 -1.78125q0.484375 -0.78125 1.328125 -1.1875q0.859375 -0.421875 2.484375 -0.734375q2.171875 -0.40625 3.015625 -0.765625l0 -0.296875q0 -0.90625 -0.453125 -1.28125q-0.4375 -0.390625 -1.65625 -0.390625q-0.828125 0 -1.296875 0.328125q-0.46875 0.328125 -0.75 1.140625zm4.15625 2.53125q-0.59375 0.203125 -1.890625 0.484375q-1.296875 0.265625 -1.6875 0.53125q-0.609375 0.4375 -0.609375 1.09375q0 0.65625 0.484375 1.140625q0.484375 0.46875 1.234375 0.46875q0.84375 0 1.609375 -0.5625q0.5625 -0.40625 0.734375 -1.015625q0.125 -0.40625 0.125 -1.515625l0 -0.625zm4.647217 -6.109375l3.3125 0l2.796875 8.34375l2.75 -8.34375l3.21875 0l-4.140625 11.3125l-0.75 2.046875q-0.40625 1.03125 -0.78125 1.5625q-0.375 0.546875 -0.859375 0.875q-0.46875 0.34375 -1.171875 0.53125q-0.703125 0.1875 -1.59375 0.1875q-0.890625 0 -1.75 -0.1875l-0.28125 -2.4375q0.734375 0.15625 1.3125 0.15625q1.09375 0 1.609375 -0.640625q0.515625 -0.640625 0.796875 -1.625l-4.46875 -11.78125zm19.551208 6.46875l3.1875 -0.3125q0.296875 1.609375 1.171875 2.359375q0.875 0.75 2.375 0.75q1.578125 0 2.375 -0.65625q0.8125 -0.671875 0.8125 -1.578125q0 -0.5625 -0.34375 -0.96875q-0.328125 -0.40625 -1.171875 -0.703125q-0.578125 -0.203125 -2.625 -0.71875q-2.640625 -0.640625 -3.703125 -1.59375q-1.484375 -1.34375 -1.484375 -3.265625q0 -1.234375 0.703125 -2.3125q0.703125 -1.078125 2.015625 -1.640625q1.328125 -0.578125 3.203125 -0.578125q3.046875 0 4.59375 1.34375q1.546875 1.34375 1.625 3.578125l-3.28125 0.140625q-0.203125 -1.25 -0.90625 -1.796875q-0.6875 -0.546875 -2.0625 -0.546875q-1.4375 0 -2.234375 0.578125q-0.53125 0.375 -0.53125 1.015625q0 0.578125 0.484375 0.984375q0.625 0.515625 3.015625 1.078125q2.390625 0.5625 3.53125 1.171875q1.15625 0.59375 1.796875 1.640625q0.640625 1.046875 0.640625 2.59375q0 1.390625 -0.78125 2.609375q-0.765625 1.21875 -2.1875 1.8125q-1.40625 0.578125 -3.515625 0.578125q-3.078125 0 -4.734375 -1.421875q-1.640625 -1.421875 -1.96875 -4.140625zm23.658417 5.28125l0 -1.765625q-0.640625 0.953125 -1.6875 1.5q-1.046875 0.53125 -2.203125 0.53125q-1.1875 0 -2.125 -0.515625q-0.9375 -0.53125 -1.359375 -1.46875q-0.421875 -0.9375 -0.421875 -2.59375l0 -7.4375l3.109375 0l0 5.40625q0 2.46875 0.171875 3.03125q0.171875 0.5625 0.625 0.890625q0.453125 0.3125 1.140625 0.3125q0.796875 0 1.421875 -0.421875q0.640625 -0.4375 0.875 -1.078125q0.234375 -0.65625 0.234375 -3.1875l0 -4.953125l3.109375 0l0 11.75l-2.890625 0zm6.0112 -11.75l2.90625 0l0 1.734375q0.5625 -0.890625 1.515625 -1.4375q0.96875 -0.5625 2.140625 -0.5625q2.046875 0 3.46875 1.609375q1.4375 1.59375 1.4375 4.46875q0 2.9375 -1.4375 4.578125q-1.4375 1.625 -3.484375 1.625q-0.96875 0 -1.765625 -0.390625q-0.796875 -0.390625 -1.671875 -1.328125l0 5.921875l-3.109375 0l0 -16.21875zm3.078125 5.671875q0 1.984375 0.78125 2.9375q0.796875 0.9375 1.921875 0.9375q1.078125 0 1.796875 -0.859375q0.71875 -0.875 0.71875 -2.859375q0 -1.84375 -0.734375 -2.734375q-0.734375 -0.90625 -1.84375 -0.90625q-1.125 0 -1.890625 0.890625q-0.75 0.875 -0.75 2.59375zm17.66748 2.34375l3.09375 0.515625q-0.59375 1.703125 -1.890625 2.59375q-1.28125 0.890625 -3.21875 0.890625q-3.0625 0 -4.546875 -2.0q-1.15625 -1.609375 -1.15625 -4.046875q0 -2.921875 1.515625 -4.578125q1.53125 -1.65625 3.875 -1.65625q2.625 0 4.140625 1.734375q1.515625 1.734375 1.4375 5.296875l-7.78125 0q0.03125 1.390625 0.75 2.15625q0.71875 0.765625 1.796875 0.765625q0.71875 0 1.21875 -0.390625q0.5 -0.40625 0.765625 -1.28125zm0.171875 -3.140625q-0.03125 -1.359375 -0.703125 -2.0625q-0.65625 -0.703125 -1.609375 -0.703125q-1.015625 0 -1.6875 0.75q-0.65625 0.734375 -0.65625 2.015625l4.65625 0zm8.600311 6.875l-3.109375 0l0 -11.75l2.875 0l0 1.671875q0.75 -1.1875 1.34375 -1.5625q0.59375 -0.375 1.34375 -0.375q1.0625 0 2.046875 0.59375l-0.96875 2.703125q-0.78125 -0.5 -1.453125 -0.5q-0.65625 0 -1.109375 0.359375q-0.453125 0.359375 -0.71875 1.296875q-0.25 0.9375 -0.25 3.9375l0 3.625zm12.111542 0l0 -16.21875l4.890625 0l2.953125 11.0625l2.90625 -11.0625l4.90625 0l0 16.21875l-3.046875 0l0 -12.765625l-3.21875 12.765625l-3.140625 0l-3.21875 -12.765625l0 12.765625l-3.03125 0zm21.216583 -8.171875l-2.828125 -0.5q0.484375 -1.703125 1.640625 -2.515625q1.15625 -0.828125 3.453125 -0.828125q2.078125 0 3.09375 0.5q1.015625 0.484375 1.421875 1.25q0.421875 0.75 0.421875 2.78125l-0.03125 3.625q0 1.546875 0.140625 2.28125q0.15625 0.734375 0.578125 1.578125l-3.078125 0q-0.125 -0.3125 -0.296875 -0.921875q-0.078125 -0.265625 -0.109375 -0.359375q-0.796875 0.765625 -1.71875 1.15625q-0.90625 0.390625 -1.921875 0.390625q-1.828125 0 -2.875 -0.984375q-1.03125 -0.984375 -1.03125 -2.484375q0 -1.0 0.46875 -1.78125q0.484375 -0.78125 1.328125 -1.1875q0.859375 -0.421875 2.484375 -0.734375q2.171875 -0.40625 3.015625 -0.765625l0 -0.296875q0 -0.90625 -0.453125 -1.28125q-0.4375 -0.390625 -1.65625 -0.390625q-0.828125 0 -1.296875 0.328125q-0.46875 0.328125 -0.75 1.140625zm4.15625 2.53125q-0.59375 0.203125 -1.890625 0.484375q-1.296875 0.265625 -1.6875 0.53125q-0.609375 0.4375 -0.609375 1.09375q0 0.65625 0.484375 1.140625q0.484375 0.46875 1.234375 0.46875q0.84375 0 1.609375 -0.5625q0.5625 -0.40625 0.734375 -1.015625q0.125 -0.40625 0.125 -1.515625l0 -0.625zm9.100342 5.640625l-3.109375 0l0 -11.75l2.875 0l0 1.671875q0.75 -1.1875 1.34375 -1.5625q0.59375 -0.375 1.34375 -0.375q1.0625 0 2.046875 0.59375l-0.96875 2.703125q-0.78125 -0.5 -1.453125 -0.5q-0.65625 0 -1.109375 0.359375q-0.453125 0.359375 -0.71875 1.296875q-0.25 0.9375 -0.25 3.9375l0 3.625zm5.8325195 -13.34375l0 -2.875l3.109375 0l0 2.875l-3.109375 0zm0 13.34375l0 -11.75l3.109375 0l0 11.75l-3.109375 0zm5.5758667 -6.046875q0 -1.546875 0.765625 -2.984375q0.765625 -1.453125 2.15625 -2.21875q1.40625 -0.765625 3.125 -0.765625q2.671875 0 4.375 1.734375q1.703125 1.734375 1.703125 4.375q0 2.671875 -1.71875 4.421875q-1.71875 1.75 -4.328125 1.75q-1.625 0 -3.09375 -0.71875q-1.453125 -0.734375 -2.21875 -2.140625q-0.765625 -1.421875 -0.765625 -3.453125zm3.1875 0.171875q0 1.75 0.828125 2.6875q0.828125 0.921875 2.046875 0.921875q1.21875 0 2.03125 -0.921875q0.828125 -0.9375 0.828125 -2.703125q0 -1.734375 -0.828125 -2.65625q-0.8125 -0.9375 -2.03125 -0.9375q-1.21875 0 -2.046875 0.9375q-0.828125 0.921875 -0.828125 2.671875z" fill-rule="nonzero"/><path fill="#000000" d="m330.69537 425.15997l0 -16.21875l3.28125 0l0 7.203125l6.609375 -7.203125l4.40625 0l-6.109375 6.3125l6.4375 9.90625l-4.234375 0l-4.453125 -7.609375l-2.65625 2.703125l0 4.90625l-3.28125 0zm18.627258 -8.171875l-2.828125 -0.5q0.484375 -1.703125 1.640625 -2.515625q1.15625 -0.828125 3.453125 -0.828125q2.078125 0 3.09375 0.5q1.015625 0.484375 1.421875 1.25q0.421875 0.75 0.421875 2.78125l-0.03125 3.625q0 1.546875 0.140625 2.28125q0.15625 0.734375 0.578125 1.578125l-3.078125 0q-0.125 -0.3125 -0.296875 -0.921875q-0.078125 -0.265625 -0.109375 -0.359375q-0.796875 0.765625 -1.71875 1.15625q-0.90625 0.390625 -1.921875 0.390625q-1.828125 0 -2.875 -0.984375q-1.03125 -0.984375 -1.03125 -2.484375q0 -1.0 0.46875 -1.78125q0.484375 -0.78125 1.328125 -1.1875q0.859375 -0.421875 2.484375 -0.734375q2.171875 -0.40625 3.015625 -0.765625l0 -0.296875q0 -0.90625 -0.453125 -1.28125q-0.4375 -0.390625 -1.65625 -0.390625q-0.828125 0 -1.296875 0.328125q-0.46875 0.328125 -0.75 1.140625zm4.15625 2.53125q-0.59375 0.203125 -1.890625 0.484375q-1.296875 0.265625 -1.6875 0.53125q-0.609375 0.4375 -0.609375 1.09375q0 0.65625 0.484375 1.140625q0.484375 0.46875 1.234375 0.46875q0.84375 0 1.609375 -0.5625q0.5625 -0.40625 0.734375 -1.015625q0.125 -0.40625 0.125 -1.515625l0 -0.625zm9.100311 5.640625l-3.109375 0l0 -11.75l2.875 0l0 1.671875q0.75 -1.1875 1.34375 -1.5625q0.59375 -0.375 1.34375 -0.375q1.0625 0 2.046875 0.59375l-0.96875 2.703125q-0.78125 -0.5 -1.453125 -0.5q-0.65625 0 -1.109375 0.359375q-0.453125 0.359375 -0.71875 1.296875q-0.25 0.9375 -0.25 3.9375l0 3.625zm11.223175 -11.75l0 2.484375l-2.125 0l0 4.734375q0 1.4375 0.0625 1.671875q0.0625 0.234375 0.265625 0.390625q0.21875 0.15625 0.53125 0.15625q0.4375 0 1.25 -0.296875l0.265625 2.40625q-1.078125 0.46875 -2.453125 0.46875q-0.84375 0 -1.515625 -0.28125q-0.671875 -0.28125 -1.0 -0.71875q-0.3125 -0.453125 -0.421875 -1.21875q-0.109375 -0.546875 -0.109375 -2.203125l0 -5.109375l-1.421875 0l0 -2.484375l1.421875 0l0 -2.328125l3.125 -1.8125l0 4.140625l2.125 0z" fill-rule="nonzero"/><path fill="#fff2cc" d="m440.07074 315.5569l273.30774 -188.18813l-7.7799683 -11.298912l38.157715 7.0379257l-7.037903 38.157715l-7.7799683 -11.298904l-273.30774 188.18814z" fill-rule="evenodd"/><path stroke="#595959" stroke-width="1.0" stroke-linejoin="round" stroke-linecap="butt" d="m440.07074 315.5569l273.30774 -188.18813l-7.7799683 -11.298912l38.157715 7.0379257l-7.037903 38.157715l-7.7799683 -11.298904l-273.30774 188.18814z" fill-rule="evenodd"/><path fill="#000000" d="m460.50293 326.30295l-7.576355 -11.003265l1.4542236 -1.0013123l7.576355 11.003265l-1.4542236 1.0013123zm3.8573303 -2.6560059l-5.4851074 -7.966095l1.2097168 -0.8329468l0.77978516 1.1325073q-0.028747559 -1.9152527 1.6314087 -3.0583496q0.7206726 -0.49621582 1.5027466 -0.6553345q0.7821045 -0.15908813 1.3705139 0.061798096q0.5924072 0.19915771 1.1069946 0.69851685q0.334198 0.32003784 0.9810791 1.259491l3.3761292 4.9031982l-1.3512878 0.93045044l-3.3406982 -4.8517456q-0.56710815 -0.8236084 -1.0090942 -1.1073608q-0.4380188 -0.30548096 -1.00531 -0.27529907q-0.5673218 0.030181885 -1.1078186 0.40234375q-0.86224365 0.59368896 -1.1118164 1.5812683q-0.24554443 0.96585083 0.80892944 2.4973145l2.9951172 4.349823l-1.3512878 0.9304199zm10.659912 -9.123199l1.0171509 1.0639038q-0.48651123 0.5057373 -0.93692017 0.81585693q-0.733551 0.50509644 -1.3048706 0.55700684q-0.5584717 0.043060303 -0.98272705 -0.2149353q-0.433136 -0.27090454 -1.2661133 -1.4806213l-3.1634521 -4.59433l-0.9909363 0.682312l-0.71777344 -1.0424194l0.9909363 -0.682312l-1.3557739 -1.9689941l0.78015137 -1.7323303l1.914032 2.7797546l1.3641357 -0.93930054l0.71777344 1.0424194l-1.3641357 0.93930054l3.2166138 4.67157q0.38989258 0.56622314 0.569458 0.6892395q0.19241333 0.11413574 0.4177246 0.11074829q0.2293396 -0.025115967 0.538208 -0.23779297q0.21875 -0.15063477 0.55651855 -0.45907593zm-1.0938416 -3.344513q-1.5241394 -2.2135315 -1.0281677 -4.110626q0.41812134 -1.5968933 1.8980713 -2.6159363q1.6472778 -1.1342468 3.434021 -0.7709656q1.7779236 0.3503723 3.089386 2.2550354q1.0544739 1.5314636 1.2026062 2.7384338q0.13928223 1.1941223 -0.4119873 2.2945862q-0.5383606 1.0915833 -1.58078 1.8093567q-1.6730042 1.151947 -3.4380493 0.7926941q-1.7738953 -0.37210083 -3.1651 -2.3925781zm1.3898926 -0.95703125q1.0544739 1.5314636 2.2424927 1.8516846q1.1920166 0.29849243 2.2086792 -0.40151978q1.0038147 -0.6911926 1.1502075 -1.9112549q0.1375122 -1.2329407 -0.9435425 -2.803009q-1.019043 -1.4799805 -2.2110596 -1.7784729q-1.1920166 -0.29849243 -2.1958313 0.39266968q-1.0166626 0.7000427 -1.1630554 1.920105q-0.14239502 1.1983643 0.9121094 2.7297974zm16.788055 -7.461853l1.0171509 1.0639343q-0.48651123 0.5057068 -0.93692017 0.81585693q-0.733551 0.50509644 -1.3048706 0.55700684q-0.5584717 0.043029785 -0.98272705 -0.21496582q-0.433136 -0.27090454 -1.2661133 -1.4805908l-3.1634521 -4.5943604l-0.9909363 0.682312l-0.71777344 -1.0423889l0.9909363 -0.6823425l-1.3557739 -1.9689941l0.78015137 -1.7323303l1.914032 2.7797546l1.3641357 -0.93927l0.71777344 1.0423889l-1.3641357 0.93930054l3.2166138 4.67157q0.38989258 0.56625366 0.569458 0.6892395q0.19241333 0.11413574 0.4177246 0.11074829q0.2293396 -0.025115967 0.538208 -0.23779297q0.21875 -0.15063477 0.55651855 -0.45907593zm2.1550598 0.29937744l-7.5763855 -11.003235l1.3512878 -0.93045044l2.720398 3.9508667q0.18624878 -1.7407532 1.6276245 -2.7332153q0.88797 -0.6114197 1.7706909 -0.70700073q0.89559937 -0.10446167 1.6040344 0.31832886q0.7084656 0.42276 1.5148621 1.5938721l3.4736023 5.0447693l-1.3512878 0.9304199l-3.4736023 -5.0447693q-0.7000427 -1.0166626 -1.456604 -1.1786804q-0.7565613 -0.16201782 -1.5673218 0.39624023q-0.59198 0.4076233 -0.8981018 1.0926819q-0.31497192 0.67214966 -0.18328857 1.359314q0.14453125 0.6782837 0.79138184 1.6177368l3.0039673 4.3627014l-1.3512573 0.9304199zm12.238983 -12.202454l1.5050964 -0.78970337q0.50720215 1.4529724 0.08886719 2.7464905q-0.42718506 1.2806091 -1.8170776 2.2376404q-1.7502136 1.2051086 -3.5152588 0.84588623q-1.7610168 -0.38098145 -3.09906 -2.3242493q-1.3912354 -2.0204773 -1.1237488 -3.8361511q0.280365 -1.8245239 1.9276123 -2.9587708q1.5957947 -1.0987854 3.3528137 -0.69607544q1.7610168 0.38098145 3.1167908 2.3499756q0.08862305 0.12869263 0.24810791 0.36035156l-5.9456177 4.0939026q0.9810791 1.259491 2.1376343 1.5065308q1.1477356 0.23416138 2.1386719 -0.44818115q0.7463989 -0.51394653 1.0082092 -1.2633362q0.2529297 -0.76223755 -0.023040771 -1.8243103zm-5.9463196 0.86935425l4.4527893 -3.065979q-0.7812805 -0.94177246 -1.5515442 -1.1512451q-1.184021 -0.34197998 -2.213562 0.36691284q-0.9265747 0.638031 -1.1358337 1.7116699q-0.20526123 1.0519409 0.44815063 2.1386414zm15.068054 -3.375l-5.485077 -7.966095l1.2097168 -0.8329773l0.77090454 1.1196289q-0.034423828 -0.8489685 0.34405518 -1.6217651q0.38250732 -0.79455566 1.1675415 -1.335083q0.8880005 -0.6114197 1.7111816 -0.6281128q0.8143921 -0.029541016 1.4979248 0.46728516q-0.004638672 -2.0456238 1.5010376 -3.0823975q1.1968384 -0.8240967 2.279358 -0.6019592q1.095398 0.21328735 2.034668 1.5774231l3.7660522 5.469452l-1.3512573 0.9304199l-3.4558716 -5.0190125q-0.5582886 -0.8107605 -0.9262085 -1.0696411q-0.37683105 -0.27172852 -0.87493896 -0.25125122q-0.4981079 0.020477295 -0.9614258 0.33947754q-0.8364868 0.57598877 -1.0 1.5232849q-0.17230225 0.9344177 0.6694946 2.1569824l3.1900635 4.632965l-1.3512573 0.9304199l-3.5622559 -5.173462q-0.6203003 -0.9008484 -1.2650146 -1.1208801q-0.6447754 -0.22003174 -1.3911743 0.2939148q-0.5662842 0.38989258 -0.85150146 1.0226135q-0.2852173 0.63272095 -0.10522461 1.3624878q0.1928711 0.72091675 0.9460449 1.8147888l2.8444824 4.1310425l-1.3513184 0.93045044zm16.493164 -15.131683l1.5050659 -0.78970337q0.5072632 1.4529724 0.08892822 2.74646q-0.4272461 1.2806396 -1.8170776 2.237671q-1.7502441 1.2051086 -3.5152588 0.8458557q-1.7610474 -0.38098145 -3.09906 -2.3242493q-1.3912354 -2.0204773 -1.1237793 -3.8361206q0.28033447 -1.8245239 1.9276123 -2.9587708q1.5958252 -1.0987854 3.3528442 -0.69607544q1.7609863 0.38098145 3.1167603 2.3499756q0.08862305 0.12869263 0.24810791 0.36035156l-5.9456177 4.0939026q0.9810791 1.259491 2.1376343 1.5065002q1.1477051 0.23416138 2.1386719 -0.44815063q0.7463989 -0.51394653 1.0082397 -1.2633362q0.2529297 -0.76226807 -0.023071289 -1.8243103zm-5.946289 0.86935425l4.452759 -3.065979q-0.78125 -0.94177246 -1.5515137 -1.1512756q-1.184021 -0.34194946 -2.213562 0.36694336q-0.9265747 0.6380005 -1.1358643 1.7116699q-0.20526123 1.0519409 0.44818115 2.1386414zm10.798889 -0.43545532l-5.4851074 -7.966095l1.2097168 -0.8329773l0.77093506 1.1196289q-0.034423828 -0.8489685 0.34405518 -1.6217651q0.38250732 -0.79455566 1.1675415 -1.335083q0.88793945 -0.6114197 1.7111816 -0.6281128q0.8143921 -0.029541016 1.4979248 0.46728516q-0.004699707 -2.0456238 1.5010376 -3.0823975q1.1968384 -0.8240967 2.279358 -0.6019592q1.095398 0.21328735 2.034668 1.5774231l3.7660522 5.469452l-1.3512573 0.9304199l-3.4559326 -5.0190125q-0.55822754 -0.8107605 -0.9262085 -1.0696411q-0.37677002 -0.271698 -0.8748779 -0.25125122q-0.4981079 0.020477295 -0.9614258 0.33950806q-0.8364868 0.57595825 -1.0 1.5232544q-0.17236328 0.9344177 0.6694946 2.1569824l3.1900635 4.632965l-1.3513184 0.9304199l-3.5621948 -5.173462q-0.6203003 -0.9008484 -1.2650146 -1.1208801q-0.6447754 -0.22003174 -1.3911743 0.2939148q-0.5662842 0.38989258 -0.85150146 1.0226135q-0.2852173 0.63272095 -0.10522461 1.3624878q0.19281006 0.72091675 0.9460449 1.8147888l2.8444824 4.1310425l-1.3513184 0.93045044zm9.551086 -12.457397q-1.5241699 -2.2135315 -1.0281982 -4.110626q0.41815186 -1.596878 1.8980713 -2.615921q1.6472778 -1.1342468 3.434082 -0.77098083q1.7778931 0.35038757 3.0893555 2.2550354q1.0544434 1.5314636 1.2025757 2.7384338q0.13928223 1.1941223 -0.41192627 2.2945862q-0.5383911 1.0915833 -1.5808105 1.8093567q-1.6730347 1.151947 -3.4380493 0.7926941q-1.7738647 -0.37210083 -3.1651 -2.3925781zm1.3898926 -0.95703125q1.0544434 1.5314636 2.2424927 1.8516846q1.1920166 0.29849243 2.2086792 -0.40151978q1.0037842 -0.6911926 1.1502075 -1.9112549q0.1375122 -1.2329407 -0.9435425 -2.803009q-1.019043 -1.4799652 -2.2110596 -1.7784729q-1.1920166 -0.29849243 -2.1958618 0.39268494q-1.0166626 0.70002747 -1.1630249 1.9201202q-0.14239502 1.1983337 0.9121094 2.7297668zm10.391907 -1.2745056l-5.4851074 -7.966095l1.2097168 -0.8329468l0.8329468 1.2097015q-0.121520996 -1.1683655 0.07849121 -1.7044678q0.21282959 -0.5449524 0.6890259 -0.872818q0.6820679 -0.46965027 1.6911621 -0.51945496l0.39624023 1.5673218q-0.7057495 0.049591064 -1.1947632 0.38632202q-0.45043945 0.31015015 -0.6118164 0.8196564q-0.16137695 0.5095062 0.0031738281 1.0791321q0.2645874 0.880188 0.8583374 1.7424316l2.8710327 4.169647l-1.33844 0.9215698zm7.1744995 -0.4249878l-1.0228271 -1.1548462q0.53015137 -0.19433594 0.8519287 -0.41586304q0.45037842 -0.31015015 0.61431885 -0.6506653q0.17279053 -0.32765198 0.16687012 -0.72195435q-0.013122559 -0.29452515 -0.2793579 -1.2873688q-0.041137695 -0.14241028 -0.11456299 -0.41435242l-8.5182495 -5.896576l1.4542236 -1.0013123l4.8324585 3.464096q0.9331665 0.66645813 1.8551025 1.454422q-0.40631104 -1.0860901 -0.6960449 -2.1956024l-1.4873047 -5.824356l1.3513184 -0.9304352l2.53656 10.18605q0.42364502 1.662262 0.49017334 2.3373718q0.10040283 0.9173279 -0.15020752 1.5451965q-0.25061035 0.62786865 -0.894104 1.0709229q-0.39892578 0.27468872 -0.9902954 0.43527222zm3.4033203 -20.78299l-1.0722046 -1.55719l1.3512573 -0.9304352l1.0722046 1.55719l-1.3512573 0.9304352zm6.5041504 9.44606l-5.4851074 -7.966095l1.3512573 -0.9304352l5.4851685 7.966095l-1.3513184 0.9304352zm5.527954 -5.589554l1.0171509 1.0639343q-0.48651123 0.5057068 -0.9369507 0.81585693q-0.7335205 0.50509644 -1.3048706 0.55700684q-0.5584717 0.043045044 -0.98272705 -0.21496582q-0.43310547 -0.27087402 -1.2661133 -1.4805908l-3.1634521 -4.594345l-0.99090576 0.682312l-0.71777344 -1.0424042l0.99090576 -0.682312l-1.3557739 -1.9690094l0.78015137 -1.7323303l1.9140625 2.77977l1.3641357 -0.93930054l0.71777344 1.0424194l-1.3641357 0.9392853l3.2166138 4.6715546q0.38989258 0.56625366 0.569458 0.6892395q0.19238281 0.11413574 0.4177246 0.11076355q0.22930908 -0.025115967 0.538208 -0.23779297q0.21875 -0.15063477 0.55651855 -0.4590912zm6.4241943 -2.6401672l-5.4851074 -7.966095l1.2097168 -0.83296204l0.77093506 1.1196289q-0.034423828 -0.84895325 0.34405518 -1.6217651q0.3824463 -0.79455566 1.1674805 -1.335083q0.8880005 -0.61143494 1.7112427 -0.6281128q0.81433105 -0.029556274 1.4979248 0.4672699q-0.004699707 -2.0456085 1.5009766 -3.0823822q1.1968994 -0.8240967 2.279419 -0.6019592q1.0953369 0.2132721 2.034668 1.5774231l3.7659912 5.469452l-1.3512573 0.9304199l-3.4558716 -5.0190277q-0.5582886 -0.8107605 -0.9262085 -1.0696106q-0.37683105 -0.27172852 -0.87493896 -0.25125122q-0.4981079 0.020462036 -0.96136475 0.33947754q-0.83654785 0.5759735 -1.0 1.5232544q-0.17236328 0.9344177 0.6694336 2.1569977l3.1900635 4.63295l-1.3512573 0.9304352l-3.5622559 -5.173462q-0.62023926 -0.9008484 -1.2650146 -1.1208801q-0.64471436 -0.22003174 -1.3911743 0.2939148q-0.56622314 0.38989258 -0.8514404 1.0226288q-0.2852173 0.63272095 -0.105285645 1.3624725q0.1928711 0.7209015 0.9460449 1.8147888l2.8444824 4.1310425l-1.3512573 0.9304352zm18.012024 -12.402313l-0.8063965 -1.1710968q0.0038452148 1.9892731 -1.591919 3.0880737q-0.7078247 0.48736572 -1.5116577 0.64245605q-0.7909546 0.14622498 -1.3704834 -0.061782837q-0.57958984 -0.20800781 -1.1030273 -0.72024536q-0.355896 -0.3240509 -0.95843506 -1.1991577l-3.3938599 -4.928955l1.3512573 -0.9304199l3.0394287 4.4141693q0.72662354 1.0552826 1.0736694 1.3664551q0.4920044 0.43902588 1.1164551 0.4643402q0.6245117 0.025299072 1.2293701 -0.39117432q0.6048584 -0.41648865 0.9197998 -1.0886536q0.31903076 -0.6939087 0.17449951 -1.3721924q-0.15344238 -0.69114685 -0.8534546 -1.7078247l-2.9419556 -4.2726135l1.3513184 -0.9304352l5.4851074 7.966095l-1.2097168 0.83296204zm1.1538696 -4.304123l1.1966553 -1.1274719q0.65234375 0.727005 1.4683838 0.8101196q0.80718994 0.070236206 1.7337646 -0.56777954q0.92663574 -0.63801575 1.1200562 -1.3213654q0.18457031 -0.696228 -0.16986084 -1.2109985q-0.31011963 -0.4504242 -0.89520264 -0.4459839q-0.3942871 0.00592041 -1.6871338 0.4977417q-1.758667 0.6418152 -2.5238647 0.7703247q-0.7523804 0.119628906 -1.3762207 -0.15272522q-0.6326904 -0.2852173 -1.0403442 -0.8772125q-0.36328125 -0.52763367 -0.42889404 -1.1464233q-0.074523926 -0.63165283 0.1463623 -1.2200775q0.14935303 -0.44432068 0.5835571 -0.97091675q0.4381714 -0.54833984 1.0559082 -0.9736786q0.9394531 -0.64686584 1.833313 -0.86398315q0.8939209 -0.21711731 1.5475464 0.015792847q0.6664429 0.22402954 1.3268433 0.9075775l-1.201477 1.0928802q-0.5154419 -0.5556946 -1.1922607 -0.60188293q-0.6639404 -0.05505371 -1.4489746 0.4854889q-0.9394531 0.64686584 -1.1257324 1.2304382q-0.17340088 0.5746918 0.11016846 0.98651123q0.17718506 0.25738525 0.4822998 0.36982727q0.31793213 0.10357666 0.77575684 -0.0029754639q0.24621582 -0.05569458 1.4232178 -0.46775818q1.6983643 -0.61924744 2.4329224 -0.7646332q0.73461914 -0.14537048 1.3753662 0.09638977q0.6407471 0.24176025 1.1192627 0.93670654q0.46966553 0.6820679 0.47833252 1.5487518q0.02154541 0.85783386 -0.49450684 1.7063904q-0.52490234 0.8356781 -1.4643555 1.4825592q-1.5443115 1.0633392 -2.8110352 0.9869995q-1.2537842 -0.08520508 -2.3498535 -1.2086334zm11.976929 -6.520447l1.0171509 1.0639191q-0.48651123 0.50572205 -0.9369507 0.81585693q-0.7335205 0.50509644 -1.3048706 0.55700684q-0.55841064 0.043060303 -0.98272705 -0.21496582q-0.43310547 -0.27087402 -1.2660522 -1.4805908l-3.1635132 -4.594345l-0.99090576 0.6823273l-0.71777344 -1.0424194l0.99090576 -0.682312l-1.3557129 -1.9690094l0.78009033 -1.7323303l1.9140625 2.77977l1.3641357 -0.93930054l0.71777344 1.0424194l-1.3641357 0.9392853l3.2166138 4.6715546q0.38989258 0.56625366 0.569458 0.68925476q0.19238281 0.11413574 0.4177246 0.11074829q0.22930908 -0.025115967 0.538208 -0.23777771q0.21875 -0.15065002 0.55651855 -0.4590912zm6.6187134 -1.8066254l1.4456177 -0.7108002q0.5154419 0.5556946 1.074707 0.5689697q0.75891113 0.027618408 1.6339722 -0.5749359q0.9394531 -0.6468811 1.1843872 -1.3656769q0.2578125 -0.72766113 -0.022827148 -1.5209198q-0.18060303 -0.4827118 -1.1061401 -1.7993774q-0.15734863 1.6449738 -1.4829102 2.5576782q-1.6472778 1.1342468 -3.3633423 0.57055664q-1.7161255 -0.5636902 -2.859192 -2.2238312q-0.78863525 -1.1453705 -1.0414429 -2.3941193q-0.23986816 -1.2576141 0.17779541 -2.304062q0.42175293 -1.0681763 1.4898682 -1.8036652q1.402771 -0.96588135 3.0962524 -0.4625244l-0.6557007 -0.95233154l1.248291 -0.85954285l4.7407837 6.885071q1.2849121 1.8660583 1.430481 2.9040527q0.15844727 1.029129 -0.3550415 2.0466766q-0.50061035 1.0086823 -1.7103271 1.8416443q-1.4155884 0.97473145 -2.746643 0.942688q-1.3093262 -0.028030396 -2.1785889 -1.3455505zm-2.1767578 -5.558304q1.0811157 1.5700531 2.1950684 1.8654022q1.126831 0.2864685 2.0662842 -0.36039734q0.9265747 -0.63801575 1.0698242 -1.7800293q0.13433838 -1.1548767 -0.920166 -2.686325q-1.0101929 -1.467102 -2.1715698 -1.7487183q-1.1574707 -0.30336 -2.071167 0.3257904q-0.9008179 0.62028503 -1.0263672 1.7880402q-0.13433838 1.1548767 0.85809326 2.5962372zm7.279175 -4.803421q-1.5241699 -2.2135162 -1.0281982 -4.110626q0.41809082 -1.596878 1.8980713 -2.615921q1.6472778 -1.1342468 3.434021 -0.77098083q1.7778931 0.35038757 3.0894165 2.2550507q1.0544434 1.5314484 1.2025757 2.7384338q0.13928223 1.194107 -0.4119873 2.294571q-0.5383911 1.0915985 -1.5807495 1.8093567q-1.6730347 1.1519623 -3.4380493 0.79270935q-1.7739258 -0.3721161 -3.1651 -2.3925934zm1.3898315 -0.957016q1.0545044 1.5314484 2.2425537 1.8516846q1.1920166 0.29849243 2.2086792 -0.40153503q1.0037842 -0.69117737 1.1502075 -1.9112549q0.1375122 -1.2329407 -0.9435425 -2.8029938q-1.019043 -1.4799805 -2.2110596 -1.7784729q-1.1920166 -0.2985077 -2.1958618 0.39266968q-1.0166626 0.7000427 -1.1630249 1.9201202q-0.14239502 1.1983337 0.91204834 2.729782z" fill-rule="nonzero"/></g></svg>