<svg version="1.1" viewBox="0.0 0.0 960.0 540.0" fill="none" stroke="none" stroke-linecap="square" stroke-miterlimit="10" xmlns:xlink="http://www.w3.org/1999/xlink" xmlns="http://www.w3.org/2000/svg"><clipPath id="p5.0"><path d="m0 0l960.0 0l0 540.0l-960.0 0l0 -540.0z" clip-rule="nonzero"/></clipPath><g clip-path="url(#p5.0)"><path fill="#ffffff" d="m0 0l960.0 0l0 540.0l-960.0 0z" fill-rule="evenodd"/><path fill="#c9daf8" d="m707.7139 43.716534l173.1496 0l0 348.86615l-173.1496 0z" fill-rule="evenodd"/><path fill="#d3e1f9" d="m678.85565 14.858268l230.86615 0l-28.858276 28.858265l-173.1496 0z" fill-rule="evenodd"/><path fill="#a0aec6" d="m678.85565 421.44095l28.858276 -28.858276l173.1496 0l28.858276 28.858276z" fill-rule="evenodd"/><path fill="#dee8fa" d="m678.85565 14.858268l28.858276 28.858265l0 348.86615l-28.858276 28.858276z" fill-rule="evenodd"/><path fill="#788294" d="m909.7218 14.858268l0 406.58267l-28.858276 -28.858276l0 -348.86615z" fill-rule="evenodd"/><path fill="#000000" fill-opacity="0.0" d="m678.85565 14.858268l230.86615 0l0 406.58267l-230.86615 0zm28.858276 28.858265l173.1496 0l0 348.86615l-173.1496 0zm-28.858276 -28.858265l28.858276 28.858265m-28.858276 377.72443l28.858276 -28.858276m202.00787 -377.7244l-28.858276 28.858265m28.858276 377.72443l-28.858276 -28.858276" fill-rule="evenodd"/><path stroke="#595959" stroke-width="1.0" stroke-linejoin="round" stroke-linecap="butt" d="m678.85565 14.858268l230.86615 0l0 406.58267l-230.86615 0zm28.858276 28.858265l173.1496 0l0 348.86615l-173.1496 0zm-28.858276 -28.858265l28.858276 28.858265m-28.858276 377.72443l28.858276 -28.858276m202.00787 -377.7244l-28.858276 28.858265m28.858276 377.72443l-28.858276 -28.858276" fill-rule="evenodd"/><path fill="#000000" fill-opacity="0.0" d="m700.00525 421.44357l188.56696 0l0 42.015747l-188.56696 0z" fill-rule="evenodd"/><path fill="#000000" d="m728.0226 443.67606l1.765625 0.453125q-0.5625 2.171875 -2.0 3.328125q-1.4375 1.140625 -3.53125 1.140625q-2.15625 0 -3.515625 -0.875q-1.34375 -0.890625 -2.0625 -2.546875q-0.703125 -1.671875 -0.703125 -3.59375q0 -2.078125 0.796875 -3.625q0.796875 -1.5625 2.265625 -2.359375q1.484375 -0.8125 3.25 -0.8125q2.0 0 3.359375 1.015625q1.375 1.015625 1.90625 2.875l-1.734375 0.40625q-0.46875 -1.453125 -1.359375 -2.109375q-0.875 -0.671875 -2.203125 -0.671875q-1.546875 0 -2.578125 0.734375q-1.03125 0.734375 -1.453125 1.984375q-0.421875 1.234375 -0.421875 2.5625q0 1.703125 0.5 2.96875q0.5 1.265625 1.546875 1.90625q1.046875 0.625 2.265625 0.625q1.484375 0 2.515625 -0.859375q1.03125 -0.859375 1.390625 -2.546875zm3.1292114 -0.15625q0 -2.6875 1.484375 -3.96875q1.25 -1.078125 3.046875 -1.078125q2.0 0 3.265625 1.3125q1.265625 1.296875 1.265625 3.609375q0 1.859375 -0.5625 2.9375q-0.5625 1.0625 -1.640625 1.65625q-1.0625 0.59375 -2.328125 0.59375q-2.03125 0 -3.28125 -1.296875q-1.25 -1.3125 -1.25 -3.765625zm1.6875 0q0 1.859375 0.796875 2.796875q0.8125 0.921875 2.046875 0.921875q1.21875 0 2.03125 -0.921875q0.8125 -0.9375 0.8125 -2.84375q0 -1.796875 -0.8125 -2.71875q-0.8125 -0.921875 -2.03125 -0.921875q-1.234375 0 -2.046875 0.921875q-0.796875 0.90625 -0.796875 2.765625zm9.297607 4.84375l0 -9.671875l1.46875 0l0 1.359375q0.453125 -0.71875 1.203125 -1.140625q0.765625 -0.4375 1.71875 -0.4375q1.078125 0 1.765625 0.453125q0.6875 0.4375 0.96875 1.234375q1.15625 -1.6875 2.984375 -1.6875q1.453125 0 2.21875 0.796875q0.78125 0.796875 0.78125 2.453125l0 6.640625l-1.640625 0l0 -6.09375q0 -0.984375 -0.15625 -1.40625q-0.15625 -0.4375 -0.578125 -0.703125q-0.421875 -0.265625 -0.984375 -0.265625q-1.015625 0 -1.6875 0.6875q-0.671875 0.671875 -0.671875 2.15625l0 5.625l-1.640625 0l0 -6.28125q0 -1.09375 -0.40625 -1.640625q-0.40625 -0.546875 -1.3125 -0.546875q-0.6875 0 -1.28125 0.359375q-0.59375 0.359375 -0.859375 1.0625q-0.25 0.703125 -0.25 2.03125l0 5.015625l-1.640625 0zm15.5407715 3.703125l0 -13.375l1.484375 0l0 1.25q0.53125 -0.734375 1.1875 -1.09375q0.671875 -0.375 1.625 -0.375q1.234375 0 2.171875 0.640625q0.953125 0.625 1.4375 1.796875q0.484375 1.15625 0.484375 2.546875q0 1.484375 -0.53125 2.671875q-0.53125 1.1875 -1.546875 1.828125q-1.015625 0.625 -2.140625 0.625q-0.8125 0 -1.46875 -0.34375q-0.65625 -0.34375 -1.0625 -0.875l0 4.703125l-1.640625 0zm1.484375 -8.484375q0 1.859375 0.75 2.765625q0.765625 0.890625 1.828125 0.890625q1.09375 0 1.875 -0.921875q0.78125 -0.9375 0.78125 -2.875q0 -1.84375 -0.765625 -2.765625q-0.75 -0.921875 -1.8125 -0.921875q-1.046875 0 -1.859375 0.984375q-0.796875 0.96875 -0.796875 2.84375zm15.219482 4.78125l0 -1.421875q-1.125 1.640625 -3.0625 1.640625q-0.859375 0 -1.609375 -0.328125q-0.734375 -0.328125 -1.09375 -0.828125q-0.359375 -0.5 -0.5 -1.21875q-0.109375 -0.46875 -0.109375 -1.53125l0 -5.984375l1.640625 0l0 5.359375q0 1.28125 0.109375 1.734375q0.15625 0.640625 0.65625 1.015625q0.5 0.375 1.234375 0.375q0.734375 0 1.375 -0.375q0.65625 -0.390625 0.921875 -1.03125q0.265625 -0.65625 0.265625 -1.890625l0 -5.1875l1.640625 0l0 9.671875l-1.46875 0zm7.6257324 -1.46875l0.234375 1.453125q-0.6875 0.140625 -1.234375 0.140625q-0.890625 0 -1.390625 -0.28125q-0.484375 -0.28125 -0.6875 -0.734375q-0.203125 -0.46875 -0.203125 -1.9375l0 -5.578125l-1.203125 0l0 -1.265625l1.203125 0l0 -2.390625l1.625 -0.984375l0 3.375l1.65625 0l0 1.265625l-1.65625 0l0 5.671875q0 0.6875 0.078125 0.890625q0.09375 0.203125 0.28125 0.328125q0.203125 0.109375 0.578125 0.109375q0.265625 0 0.71875 -0.0625zm8.230164 -1.640625l1.6875 0.203125q-0.40625 1.484375 -1.484375 2.3125q-1.078125 0.8125 -2.765625 0.8125q-2.125 0 -3.375 -1.296875q-1.234375 -1.3125 -1.234375 -3.671875q0 -2.453125 1.25 -3.796875q1.265625 -1.34375 3.265625 -1.34375q1.9375 0 3.15625 1.328125q1.234375 1.3125 1.234375 3.703125q0 0.15625 0 0.4375l-7.21875 0q0.09375 1.59375 0.90625 2.453125q0.8125 0.84375 2.015625 0.84375q0.90625 0 1.546875 -0.46875q0.640625 -0.484375 1.015625 -1.515625zm-5.390625 -2.65625l5.40625 0q-0.109375 -1.21875 -0.625 -1.828125q-0.78125 -0.953125 -2.03125 -0.953125q-1.125 0 -1.90625 0.765625q-0.765625 0.75 -0.84375 2.015625zm9.125732 5.765625l0 -9.671875l1.46875 0l0 1.46875q0.5625 -1.03125 1.03125 -1.359375q0.484375 -0.328125 1.0625 -0.328125q0.828125 0 1.6875 0.53125l-0.5625 1.515625q-0.609375 -0.359375 -1.203125 -0.359375q-0.546875 0 -0.96875 0.328125q-0.421875 0.328125 -0.609375 0.890625q-0.28125 0.875 -0.28125 1.921875l0 5.0625l-1.625 0zm11.56781 0l0 -13.359375l2.65625 0l3.15625 9.453125q0.4375 1.328125 0.640625 1.984375q0.234375 -0.734375 0.703125 -2.140625l3.203125 -9.296875l2.375 0l0 13.359375l-1.703125 0l0 -11.171875l-3.875 11.171875l-1.59375 0l-3.859375 -11.375l0 11.375l-1.703125 0zm22.009583 -3.109375l1.6875 0.203125q-0.40625 1.484375 -1.484375 2.3125q-1.078125 0.8125 -2.765625 0.8125q-2.125 0 -3.375 -1.296875q-1.234375 -1.3125 -1.234375 -3.671875q0 -2.453125 1.25 -3.796875q1.265625 -1.34375 3.265625 -1.34375q1.9375 0 3.15625 1.328125q1.234375 1.3125 1.234375 3.703125q0 0.15625 0 0.4375l-7.21875 0q0.09375 1.59375 0.90625 2.453125q0.8125 0.84375 2.015625 0.84375q0.90625 0 1.546875 -0.46875q0.640625 -0.484375 1.015625 -1.515625zm-5.390625 -2.65625l5.40625 0q-0.109375 -1.21875 -0.625 -1.828125q-0.78125 -0.953125 -2.03125 -0.953125q-1.125 0 -1.90625 0.765625q-0.765625 0.75 -0.84375 2.015625zm9.141357 5.765625l0 -9.671875l1.46875 0l0 1.359375q0.453125 -0.71875 1.203125 -1.140625q0.765625 -0.4375 1.71875 -0.4375q1.078125 0 1.765625 0.453125q0.6875 0.4375 0.96875 1.234375q1.15625 -1.6875 2.984375 -1.6875q1.453125 0 2.21875 0.796875q0.78125 0.796875 0.78125 2.453125l0 6.640625l-1.640625 0l0 -6.09375q0 -0.984375 -0.15625 -1.40625q-0.15625 -0.4375 -0.578125 -0.703125q-0.421875 -0.265625 -0.984375 -0.265625q-1.015625 0 -1.6875 0.6875q-0.671875 0.671875 -0.671875 2.15625l0 5.625l-1.640625 0l0 -6.28125q0 -1.09375 -0.40625 -1.640625q-0.40625 -0.546875 -1.3125 -0.546875q-0.6875 0 -1.28125 0.359375q-0.59375 0.359375 -0.859375 1.0625q-0.25 0.703125 -0.25 2.03125l0 5.015625l-1.640625 0zm14.9313965 -4.84375q0 -2.6875 1.484375 -3.96875q1.25 -1.078125 3.046875 -1.078125q2.0 0 3.265625 1.3125q1.265625 1.296875 1.265625 3.609375q0 1.859375 -0.5625 2.9375q-0.5625 1.0625 -1.640625 1.65625q-1.0625 0.59375 -2.328125 0.59375q-2.03125 0 -3.28125 -1.296875q-1.25 -1.3125 -1.25 -3.765625zm1.6875 0q0 1.859375 0.796875 2.796875q0.8125 0.921875 2.046875 0.921875q1.21875 0 2.03125 -0.921875q0.8125 -0.9375 0.8125 -2.84375q0 -1.796875 -0.8125 -2.71875q-0.8125 -0.921875 -2.03125 -0.921875q-1.234375 0 -2.046875 0.921875q-0.796875 0.90625 -0.796875 2.765625zm9.281982 4.84375l0 -9.671875l1.46875 0l0 1.46875q0.5625 -1.03125 1.03125 -1.359375q0.484375 -0.328125 1.0625 -0.328125q0.828125 0 1.6875 0.53125l-0.5625 1.515625q-0.609375 -0.359375 -1.203125 -0.359375q-0.546875 0 -0.96875 0.328125q-0.421875 0.328125 -0.609375 0.890625q-0.28125 0.875 -0.28125 1.921875l0 5.0625l-1.625 0zm6.1502075 3.71875l-0.1875 -1.53125q0.546875 0.140625 0.9375 0.140625q0.546875 0 0.875 -0.1875q0.328125 -0.171875 0.546875 -0.5q0.15625 -0.25 0.5 -1.21875q0.046875 -0.140625 0.140625 -0.40625l-3.671875 -9.6875l1.765625 0l2.015625 5.59375q0.390625 1.078125 0.703125 2.25q0.28125 -1.125 0.671875 -2.203125l2.078125 -5.640625l1.640625 0l-3.6875 9.828125q-0.59375 1.609375 -0.921875 2.203125q-0.4375 0.8125 -1.0 1.1875q-0.5625 0.375 -1.34375 0.375q-0.484375 0 -1.0625 -0.203125z" fill-rule="nonzero"/><path fill="#000000" fill-opacity="0.0" d="m32.72441 46.721786l894.55115 0l0 60.125984l-894.55115 0z" fill-rule="evenodd"/><path fill="#ead1dc" d="m178.86876 394.84912l0 0c0 -30.29303 24.557358 -54.850372 54.850403 -54.850372c30.293045 0 54.850388 24.557343 54.850388 54.850372c0 30.29306 -24.557343 54.850403 -54.850388 54.850403c-30.293045 0 -54.850403 -24.557343 -54.850403 -54.850403z" fill-rule="evenodd"/><path fill="#bba7af" d="m210.43314 378.4448c0 -3.1555176 2.5580597 -5.713562 5.7135773 -5.713562c3.1555328 0 5.7135925 2.5580444 5.7135925 5.713562c0 3.155548 -2.5580597 5.7135925 -5.7135925 5.7135925c-3.1555176 0 -5.7135773 -2.5580444 -5.7135773 -5.7135925m35.144882 0c0 -3.1555176 2.5580597 -5.713562 5.7135773 -5.713562c3.1555328 0 5.7135925 2.5580444 5.7135925 5.713562c0 3.155548 -2.5580597 5.7135925 -5.7135925 5.7135925c-3.1555176 0 -5.7135773 -2.5580444 -5.7135773 -5.7135925" fill-rule="evenodd"/><path fill="#000000" fill-opacity="0.0" d="m203.98988 418.76974q29.729279 20.417511 59.389114 0" fill-rule="evenodd"/><path fill="#000000" fill-opacity="0.0" d="m178.86876 394.84912l0 0c0 -30.29303 24.557358 -54.850372 54.850403 -54.850372c30.293045 0 54.850388 24.557343 54.850388 54.850372c0 30.29306 -24.557343 54.850403 -54.850388 54.850403c-30.293045 0 -54.850403 -24.557343 -54.850403 -54.850403z" fill-rule="evenodd"/><path stroke="#595959" stroke-width="1.0" stroke-linejoin="round" stroke-linecap="butt" d="m210.43314 378.4448c0 -3.1555176 2.5580597 -5.713562 5.7135773 -5.713562c3.1555328 0 5.7135925 2.5580444 5.7135925 5.713562c0 3.155548 -2.5580597 5.7135925 -5.7135925 5.7135925c-3.1555176 0 -5.7135773 -2.5580444 -5.7135773 -5.7135925m35.144882 0c0 -3.1555176 2.5580597 -5.713562 5.7135773 -5.713562c3.1555328 0 5.7135925 2.5580444 5.7135925 5.713562c0 3.155548 -2.5580597 5.7135925 -5.7135925 5.7135925c-3.1555176 0 -5.7135773 -2.5580444 -5.7135773 -5.7135925" fill-rule="evenodd"/><path stroke="#595959" stroke-width="1.0" stroke-linejoin="round" stroke-linecap="butt" d="m203.98988 418.76974q29.729279 20.417511 59.389114 0" fill-rule="evenodd"/><path stroke="#595959" stroke-width="1.0" stroke-linejoin="round" stroke-linecap="butt" d="m178.86876 394.84912l0 0c0 -30.29303 24.557358 -54.850372 54.850403 -54.850372c30.293045 0 54.850388 24.557343 54.850388 54.850372c0 30.29306 -24.557343 54.850403 -54.850388 54.850403c-30.293045 0 -54.850403 -24.557343 -54.850403 -54.850403z" fill-rule="evenodd"/><path fill="#000000" fill-opacity="0.0" d="m129.15224 449.69952l209.13387 0l0 42.015747l-209.13387 0z" fill-rule="evenodd"/><path fill="#000000" d="m164.0554 472.32266l1.65625 -0.140625q0.125 1.0 0.546875 1.640625q0.4375 0.640625 1.34375 1.046875q0.921875 0.390625 2.0625 0.390625q1.0 0 1.78125 -0.296875q0.78125 -0.296875 1.15625 -0.8125q0.375 -0.53125 0.375 -1.15625q0 -0.625 -0.375 -1.09375q-0.359375 -0.46875 -1.1875 -0.796875q-0.546875 -0.203125 -2.390625 -0.640625q-1.828125 -0.453125 -2.5625 -0.84375q-0.96875 -0.5 -1.4375 -1.234375q-0.46875 -0.75 -0.46875 -1.671875q0 -1.0 0.578125 -1.875q0.578125 -0.890625 1.671875 -1.34375q1.109375 -0.453125 2.453125 -0.453125q1.484375 0 2.609375 0.484375q1.140625 0.46875 1.75 1.40625q0.609375 0.921875 0.65625 2.09375l-1.6875 0.125q-0.140625 -1.265625 -0.9375 -1.90625q-0.78125 -0.65625 -2.3125 -0.65625q-1.609375 0 -2.34375 0.59375q-0.734375 0.59375 -0.734375 1.421875q0 0.71875 0.53125 1.171875q0.5 0.46875 2.65625 0.96875q2.15625 0.484375 2.953125 0.84375q1.171875 0.53125 1.71875 1.359375q0.5625 0.828125 0.5625 1.90625q0 1.0625 -0.609375 2.015625q-0.609375 0.9375 -1.75 1.46875q-1.140625 0.515625 -2.578125 0.515625q-1.8125 0 -3.046875 -0.53125q-1.21875 -0.53125 -1.921875 -1.59375q-0.6875 -1.0625 -0.71875 -2.40625zm19.162323 4.296875l0 -1.421875q-1.125 1.640625 -3.0625 1.640625q-0.859375 0 -1.609375 -0.328125q-0.734375 -0.328125 -1.09375 -0.828125q-0.359375 -0.5 -0.5 -1.21875q-0.109375 -0.46875 -0.109375 -1.53125l0 -5.984375l1.640625 0l0 5.359375q0 1.28125 0.109375 1.734375q0.15625 0.640625 0.65625 1.015625q0.5 0.375 1.234375 0.375q0.734375 0 1.375 -0.375q0.65625 -0.390625 0.921875 -1.03125q0.265625 -0.65625 0.265625 -1.890625l0 -5.1875l1.640625 0l0 9.671875l-1.46875 0zm4.047592 3.703125l0 -13.375l1.484375 0l0 1.25q0.53125 -0.734375 1.1875 -1.09375q0.671875 -0.375 1.625 -0.375q1.234375 0 2.171875 0.640625q0.953125 0.625 1.4375 1.796875q0.484375 1.15625 0.484375 2.546875q0 1.484375 -0.53125 2.671875q-0.53125 1.1875 -1.546875 1.828125q-1.015625 0.625 -2.140625 0.625q-0.8125 0 -1.46875 -0.34375q-0.65625 -0.34375 -1.0625 -0.875l0 4.703125l-1.640625 0zm1.484375 -8.484375q0 1.859375 0.75 2.765625q0.765625 0.890625 1.828125 0.890625q1.09375 0 1.875 -0.921875q0.78125 -0.9375 0.78125 -2.875q0 -1.84375 -0.765625 -2.765625q-0.75 -0.921875 -1.8125 -0.921875q-1.046875 0 -1.859375 0.984375q-0.796875 0.96875 -0.796875 2.84375zm15.516342 1.671875l1.6875 0.203125q-0.40625 1.484375 -1.484375 2.3125q-1.078125 0.8125 -2.765625 0.8125q-2.125 0 -3.375 -1.296875q-1.234375 -1.3125 -1.234375 -3.671875q0 -2.453125 1.25 -3.796875q1.265625 -1.34375 3.265625 -1.34375q1.9375 0 3.15625 1.328125q1.234375 1.3125 1.234375 3.703125q0 0.15625 0 0.4375l-7.21875 0q0.09375 1.59375 0.90625 2.453125q0.8125 0.84375 2.015625 0.84375q0.90625 0 1.546875 -0.46875q0.640625 -0.484375 1.015625 -1.515625zm-5.390625 -2.65625l5.40625 0q-0.109375 -1.21875 -0.625 -1.828125q-0.78125 -0.953125 -2.03125 -0.953125q-1.125 0 -1.90625 0.765625q-0.765625 0.75 -0.84375 2.015625zm9.125717 5.765625l0 -9.671875l1.46875 0l0 1.46875q0.5625 -1.03125 1.03125 -1.359375q0.484375 -0.328125 1.0625 -0.328125q0.828125 0 1.6875 0.53125l-0.5625 1.515625q-0.609375 -0.359375 -1.203125 -0.359375q-0.546875 0 -0.96875 0.328125q-0.421875 0.328125 -0.609375 0.890625q-0.28125 0.875 -0.28125 1.921875l0 5.0625l-1.625 0zm11.567856 0l0 -13.359375l2.65625 0l3.15625 9.453125q0.4375 1.328125 0.640625 1.984375q0.234375 -0.734375 0.703125 -2.140625l3.203125 -9.296875l2.375 0l0 13.359375l-1.703125 0l0 -11.171875l-3.875 11.171875l-1.59375 0l-3.859375 -11.375l0 11.375l-1.703125 0zm21.697052 -1.1875q-0.921875 0.765625 -1.765625 1.09375q-0.828125 0.3125 -1.796875 0.3125q-1.59375 0 -2.453125 -0.78125q-0.859375 -0.78125 -0.859375 -1.984375q0 -0.71875 0.328125 -1.296875q0.328125 -0.59375 0.84375 -0.9375q0.53125 -0.359375 1.1875 -0.546875q0.46875 -0.125 1.453125 -0.25q1.984375 -0.234375 2.921875 -0.5625q0.015625 -0.34375 0.015625 -0.421875q0 -1.0 -0.46875 -1.421875q-0.625 -0.546875 -1.875 -0.546875q-1.15625 0 -1.703125 0.40625q-0.546875 0.40625 -0.8125 1.421875l-1.609375 -0.21875q0.21875 -1.015625 0.71875 -1.640625q0.5 -0.640625 1.453125 -0.984375q0.953125 -0.34375 2.1875 -0.34375q1.25 0 2.015625 0.296875q0.78125 0.28125 1.140625 0.734375q0.375 0.4375 0.515625 1.109375q0.078125 0.421875 0.078125 1.515625l0 2.1875q0 2.28125 0.109375 2.890625q0.109375 0.59375 0.40625 1.15625l-1.703125 0q-0.265625 -0.515625 -0.328125 -1.1875zm-0.140625 -3.671875q-0.890625 0.375 -2.671875 0.625q-1.015625 0.140625 -1.4375 0.328125q-0.421875 0.1875 -0.65625 0.53125q-0.21875 0.34375 -0.21875 0.78125q0 0.65625 0.5 1.09375q0.5 0.4375 1.453125 0.4375q0.9375 0 1.671875 -0.40625q0.75 -0.421875 1.09375 -1.140625q0.265625 -0.5625 0.265625 -1.640625l0 -0.609375zm4.188217 4.859375l0 -9.671875l1.46875 0l0 1.46875q0.5625 -1.03125 1.03125 -1.359375q0.484375 -0.328125 1.0625 -0.328125q0.828125 0 1.6875 0.53125l-0.5625 1.515625q-0.609375 -0.359375 -1.203125 -0.359375q-0.546875 0 -0.96875 0.328125q-0.421875 0.328125 -0.609375 0.890625q-0.28125 0.875 -0.28125 1.921875l0 5.0625l-1.625 0zm6.228302 -11.46875l0 -1.890625l1.640625 0l0 1.890625l-1.640625 0zm0 11.46875l0 -9.671875l1.640625 0l0 9.671875l-1.640625 0zm3.5354462 -4.84375q0 -2.6875 1.4843903 -3.96875q1.2499695 -1.078125 3.0468445 -1.078125q2.0 0 3.265625 1.3125q1.265625 1.296875 1.265625 3.609375q0 1.859375 -0.5625 2.9375q-0.5625 1.0625 -1.640625 1.65625q-1.0625 0.59375 -2.328125 0.59375q-2.03125 0 -3.2812195 -1.296875q-1.2500153 -1.3125 -1.2500153 -3.765625zm1.6875153 0q0 1.859375 0.7968445 2.796875q0.8125 0.921875 2.046875 0.921875q1.21875 0 2.03125 -0.921875q0.8125 -0.9375 0.8125 -2.84375q0 -1.796875 -0.8125 -2.71875q-0.8125 -0.921875 -2.03125 -0.921875q-1.234375 0 -2.046875 0.921875q-0.7968445 0.90625 -0.7968445 2.765625zm14.6058655 4.84375l0 -13.359375l1.78125 0l0 6.625l6.625 -6.625l2.390625 0l-5.59375 5.421875l5.84375 7.9375l-2.328125 0l-4.765625 -6.765625l-2.171875 2.140625l0 4.625l-1.78125 0zm18.631073 -1.1875q-0.921875 0.765625 -1.765625 1.09375q-0.828125 0.3125 -1.796875 0.3125q-1.59375 0 -2.453125 -0.78125q-0.859375 -0.78125 -0.859375 -1.984375q0 -0.71875 0.328125 -1.296875q0.328125 -0.59375 0.84375 -0.9375q0.53125 -0.359375 1.1875 -0.546875q0.46875 -0.125 1.453125 -0.25q1.984375 -0.234375 2.921875 -0.5625q0.015625 -0.34375 0.015625 -0.421875q0 -1.0 -0.46875 -1.421875q-0.625 -0.546875 -1.875 -0.546875q-1.15625 0 -1.703125 0.40625q-0.546875 0.40625 -0.8125 1.421875l-1.609375 -0.21875q0.21875 -1.015625 0.71875 -1.640625q0.5 -0.640625 1.453125 -0.984375q0.953125 -0.34375 2.1875 -0.34375q1.25 0 2.015625 0.296875q0.78125 0.28125 1.140625 0.734375q0.375 0.4375 0.515625 1.109375q0.078125 0.421875 0.078125 1.515625l0 2.1875q0 2.28125 0.109375 2.890625q0.109375 0.59375 0.40625 1.15625l-1.703125 0q-0.265625 -0.515625 -0.328125 -1.1875zm-0.140625 -3.671875q-0.890625 0.375 -2.671875 0.625q-1.015625 0.140625 -1.4375 0.328125q-0.421875 0.1875 -0.65625 0.53125q-0.21875 0.34375 -0.21875 0.78125q0 0.65625 0.5 1.09375q0.5 0.4375 1.453125 0.4375q0.9375 0 1.671875 -0.40625q0.75 -0.421875 1.09375 -1.140625q0.265625 -0.5625 0.265625 -1.640625l0 -0.609375zm4.1882324 4.859375l0 -9.671875l1.46875 0l0 1.46875q0.5625 -1.03125 1.03125 -1.359375q0.484375 -0.328125 1.0625 -0.328125q0.828125 0 1.6875 0.53125l-0.5625 1.515625q-0.609375 -0.359375 -1.203125 -0.359375q-0.546875 0 -0.96875 0.328125q-0.421875 0.328125 -0.609375 0.890625q-0.28125 0.875 -0.28125 1.921875l0 5.0625l-1.625 0zm9.806427 -1.46875l0.234375 1.453125q-0.6875 0.140625 -1.234375 0.140625q-0.890625 0 -1.390625 -0.28125q-0.484375 -0.28125 -0.6875 -0.734375q-0.203125 -0.46875 -0.203125 -1.9375l0 -5.578125l-1.203125 0l0 -1.265625l1.203125 0l0 -2.390625l1.625 -0.984375l0 3.375l1.65625 0l0 1.265625l-1.65625 0l0 5.671875q0 0.6875 0.078125 0.890625q0.09375 0.203125 0.28125 0.328125q0.203125 0.109375 0.578125 0.109375q0.265625 0 0.71875 -0.0625z" fill-rule="nonzero"/><path fill="#eeeeee" d="m702.8583 185.93094l0 0c0 -10.783569 40.934204 -19.525375 91.42914 -19.525375c50.494873 0 91.42914 8.741806 91.42914 19.525375l0 78.10147c0 10.783569 -40.934265 19.52539 -91.42914 19.52539c-50.494934 0 -91.42914 -8.741821 -91.42914 -19.52539z" fill-rule="evenodd"/><path fill="#000000" fill-opacity="0.0" d="m885.71655 185.93094l0 0c0 10.783569 -40.934265 19.525375 -91.42914 19.525375c-50.494934 0 -91.42914 -8.741806 -91.42914 -19.525375" fill-rule="evenodd"/><path fill="#000000" fill-opacity="0.0" d="m702.8583 185.93094l0 0c0 -10.783569 40.934204 -19.525375 91.42914 -19.525375c50.494873 0 91.42914 8.741806 91.42914 19.525375l0 78.10147c0 10.783569 -40.934265 19.52539 -91.42914 19.52539c-50.494934 0 -91.42914 -8.741821 -91.42914 -19.52539z" fill-rule="evenodd"/><path stroke="#595959" stroke-width="1.0" stroke-linejoin="round" stroke-linecap="butt" d="m885.71655 185.93094l0 0c0 10.783569 -40.934265 19.525375 -91.42914 19.525375c-50.494934 0 -91.42914 -8.741806 -91.42914 -19.525375" fill-rule="evenodd"/><path stroke="#595959" stroke-width="1.0" stroke-linejoin="round" stroke-linecap="butt" d="m702.8583 185.93094l0 0c0 -10.783569 40.934204 -19.525375 91.42914 -19.525375c50.494873 0 91.42914 8.741806 91.42914 19.525375l0 78.10147c0 10.783569 -40.934265 19.52539 -91.42914 19.52539c-50.494934 0 -91.42914 -8.741821 -91.42914 -19.52539z" fill-rule="evenodd"/><path fill="#000000" d="m722.61664 241.46437l0 -13.359375l5.046875 0q1.328125 0 2.03125 0.125q0.96875 0.171875 1.640625 0.640625q0.671875 0.453125 1.078125 1.28125q0.40625 0.828125 0.40625 1.828125q0 1.703125 -1.09375 2.890625q-1.078125 1.171875 -3.921875 1.171875l-3.421875 0l0 5.421875l-1.765625 0zm1.765625 -7.0l3.453125 0q1.71875 0 2.4375 -0.640625q0.71875 -0.640625 0.71875 -1.796875q0 -0.84375 -0.421875 -1.4375q-0.421875 -0.59375 -1.125 -0.78125q-0.4375 -0.125 -1.640625 -0.125l-3.421875 0l0 4.78125zm10.4747925 7.0l0 -13.359375l1.640625 0l0 4.796875q1.140625 -1.328125 2.890625 -1.328125q1.078125 0 1.859375 0.421875q0.796875 0.421875 1.140625 1.171875q0.34375 0.75 0.34375 2.171875l0 6.125l-1.640625 0l0 -6.125q0 -1.234375 -0.53125 -1.796875q-0.53125 -0.5625 -1.515625 -0.5625q-0.71875 0 -1.359375 0.390625q-0.640625 0.375 -0.921875 1.015625q-0.265625 0.640625 -0.265625 1.78125l0 5.296875l-1.640625 0zm10.297607 3.71875l-0.1875 -1.53125q0.546875 0.140625 0.9375 0.140625q0.546875 0 0.875 -0.1875q0.328125 -0.171875 0.546875 -0.5q0.15625 -0.25 0.5 -1.21875q0.046875 -0.140625 0.140625 -0.40625l-3.671875 -9.6875l1.765625 0l2.015625 5.59375q0.390625 1.078125 0.703125 2.25q0.28125 -1.125 0.671875 -2.203125l2.078125 -5.640625l1.640625 0l-3.6875 9.828125q-0.59375 1.609375 -0.921875 2.203125q-0.4375 0.8125 -1.0 1.1875q-0.5625 0.375 -1.34375 0.375q-0.484375 0 -1.0625 -0.203125zm8.75 -6.609375l1.625 -0.25q0.125 0.96875 0.75 1.5q0.625 0.515625 1.75 0.515625q1.125 0 1.671875 -0.453125q0.546875 -0.46875 0.546875 -1.09375q0 -0.546875 -0.484375 -0.875q-0.328125 -0.21875 -1.671875 -0.546875q-1.8125 -0.46875 -2.515625 -0.796875q-0.6875 -0.328125 -1.046875 -0.90625q-0.359375 -0.59375 -0.359375 -1.3125q0 -0.640625 0.296875 -1.1875q0.296875 -0.5625 0.8125 -0.921875q0.375 -0.28125 1.03125 -0.46875q0.671875 -0.203125 1.421875 -0.203125q1.140625 0 2.0 0.328125q0.859375 0.328125 1.265625 0.890625q0.421875 0.5625 0.578125 1.5l-1.609375 0.21875q-0.109375 -0.75 -0.640625 -1.171875q-0.515625 -0.421875 -1.46875 -0.421875q-1.140625 0 -1.625 0.375q-0.46875 0.375 -0.46875 0.875q0 0.3125 0.1875 0.578125q0.203125 0.265625 0.640625 0.4375q0.234375 0.09375 1.4375 0.421875q1.75 0.453125 2.4375 0.75q0.6875 0.296875 1.078125 0.859375q0.390625 0.5625 0.390625 1.40625q0 0.828125 -0.484375 1.546875q-0.46875 0.71875 -1.375 1.125q-0.90625 0.390625 -2.046875 0.390625q-1.875 0 -2.875 -0.78125q-0.984375 -0.78125 -1.25 -2.328125zm9.984375 -8.578125l0 -1.890625l1.640625 0l0 1.890625l-1.640625 0zm0 11.46875l0 -9.671875l1.640625 0l0 9.671875l-1.640625 0zm10.457336 -3.546875l1.609375 0.21875q-0.265625 1.65625 -1.359375 2.609375q-1.078125 0.9375 -2.671875 0.9375q-1.984375 0 -3.1875 -1.296875q-1.203125 -1.296875 -1.203125 -3.71875q0 -1.578125 0.515625 -2.75q0.515625 -1.171875 1.578125 -1.75q1.0625 -0.59375 2.3125 -0.59375q1.578125 0 2.578125 0.796875q1.0 0.796875 1.28125 2.265625l-1.59375 0.234375q-0.234375 -0.96875 -0.8125 -1.453125q-0.578125 -0.5 -1.390625 -0.5q-1.234375 0 -2.015625 0.890625q-0.78125 0.890625 -0.78125 2.8125q0 1.953125 0.75 2.84375q0.75 0.875 1.953125 0.875q0.96875 0 1.609375 -0.59375q0.65625 -0.59375 0.828125 -1.828125zm2.359375 0.65625l1.625 -0.25q0.125 0.96875 0.75 1.5q0.625 0.515625 1.75 0.515625q1.125 0 1.671875 -0.453125q0.546875 -0.46875 0.546875 -1.09375q0 -0.546875 -0.484375 -0.875q-0.328125 -0.21875 -1.671875 -0.546875q-1.8125 -0.46875 -2.515625 -0.796875q-0.6875 -0.328125 -1.046875 -0.90625q-0.359375 -0.59375 -0.359375 -1.3125q0 -0.640625 0.296875 -1.1875q0.296875 -0.5625 0.8125 -0.921875q0.375 -0.28125 1.03125 -0.46875q0.671875 -0.203125 1.421875 -0.203125q1.140625 0 2.0 0.328125q0.859375 0.328125 1.265625 0.890625q0.421875 0.5625 0.578125 1.5l-1.609375 0.21875q-0.109375 -0.75 -0.640625 -1.171875q-0.515625 -0.421875 -1.46875 -0.421875q-1.140625 0 -1.625 0.375q-0.46875 0.375 -0.46875 0.875q0 0.3125 0.1875 0.578125q0.203125 0.265625 0.640625 0.4375q0.234375 0.09375 1.4375 0.421875q1.75 0.453125 2.4375 0.75q0.6875 0.296875 1.078125 0.859375q0.390625 0.5625 0.390625 1.40625q0 0.828125 -0.484375 1.546875q-0.46875 0.71875 -1.375 1.125q-0.90625 0.390625 -2.046875 0.390625q-1.875 0 -2.875 -0.78125q-0.984375 -0.78125 -1.25 -2.328125zm10.21875 2.890625l0 -13.359375l9.65625 0l0 1.578125l-7.875 0l0 4.09375l7.375 0l0 1.5625l-7.375 0l0 4.546875l8.1875 0l0 1.578125l-9.96875 0zm12.2091675 0l0 -9.671875l1.46875 0l0 1.375q1.0625 -1.59375 3.078125 -1.59375q0.875 0 1.609375 0.3125q0.734375 0.3125 1.09375 0.828125q0.375 0.5 0.515625 1.203125q0.09375 0.453125 0.09375 1.59375l0 5.953125l-1.640625 0l0 -5.890625q0 -1.0 -0.203125 -1.484375q-0.1875 -0.5 -0.671875 -0.796875q-0.484375 -0.296875 -1.140625 -0.296875q-1.046875 0 -1.8125 0.671875q-0.75 0.65625 -0.75 2.515625l0 5.28125l-1.640625 0zm10.063232 0.796875l1.59375 0.234375q0.109375 0.75 0.5625 1.078125q0.609375 0.453125 1.671875 0.453125q1.140625 0 1.75 -0.453125q0.625 -0.453125 0.84375 -1.265625q0.125 -0.5 0.109375 -2.109375q-1.0625 1.265625 -2.671875 1.265625q-2.0 0 -3.09375 -1.4375q-1.09375 -1.4375 -1.09375 -3.453125q0 -1.390625 0.5 -2.5625q0.515625 -1.171875 1.453125 -1.796875q0.953125 -0.640625 2.25 -0.640625q1.703125 0 2.8125 1.375l0 -1.15625l1.515625 0l0 8.359375q0 2.265625 -0.46875 3.203125q-0.453125 0.9375 -1.453125 1.484375q-0.984375 0.546875 -2.453125 0.546875q-1.71875 0 -2.796875 -0.78125q-1.0625 -0.765625 -1.03125 -2.34375zm1.359375 -5.8125q0 1.90625 0.75 2.78125q0.765625 0.875 1.90625 0.875q1.125 0 1.890625 -0.859375q0.765625 -0.875 0.765625 -2.734375q0 -1.78125 -0.796875 -2.671875q-0.78125 -0.90625 -1.890625 -0.90625q-1.09375 0 -1.859375 0.890625q-0.765625 0.875 -0.765625 2.625zm9.328857 -6.453125l0 -1.890625l1.640625 0l0 1.890625l-1.640625 0zm0 11.46875l0 -9.671875l1.640625 0l0 9.671875l-1.640625 0zm4.1448364 0l0 -9.671875l1.46875 0l0 1.375q1.0625 -1.59375 3.078125 -1.59375q0.875 0 1.609375 0.3125q0.734375 0.3125 1.09375 0.828125q0.375 0.5 0.515625 1.203125q0.09375 0.453125 0.09375 1.59375l0 5.953125l-1.640625 0l0 -5.890625q0 -1.0 -0.203125 -1.484375q-0.1875 -0.5 -0.671875 -0.796875q-0.484375 -0.296875 -1.140625 -0.296875q-1.046875 0 -1.8125 0.671875q-0.75 0.65625 -0.75 2.515625l0 5.28125l-1.640625 0zm17.000671 -3.109375l1.6875 0.203125q-0.40625 1.484375 -1.484375 2.3125q-1.078125 0.8125 -2.765625 0.8125q-2.125 0 -3.375 -1.296875q-1.234375 -1.3125 -1.234375 -3.671875q0 -2.453125 1.25 -3.796875q1.265625 -1.34375 3.265625 -1.34375q1.9375 0 3.15625 1.328125q1.234375 1.3125 1.234375 3.703125q0 0.15625 0 0.4375l-7.21875 0q0.09375 1.59375 0.90625 2.453125q0.8125 0.84375 2.015625 0.84375q0.90625 0 1.546875 -0.46875q0.640625 -0.484375 1.015625 -1.515625zm-5.390625 -2.65625l5.40625 0q-0.109375 -1.21875 -0.625 -1.828125q-0.78125 -0.953125 -2.03125 -0.953125q-1.125 0 -1.90625 0.765625q-0.765625 0.75 -0.84375 2.015625zm9.594482 5.765625l0 -1.875l1.875 0l0 1.875l-1.875 0zm10.995789 0l0 -1.21875q-0.90625 1.4375 -2.703125 1.4375q-1.15625 0 -2.125 -0.640625q-0.96875 -0.640625 -1.5 -1.78125q-0.53125 -1.140625 -0.53125 -2.625q0 -1.453125 0.484375 -2.625q0.484375 -1.1875 1.4375 -1.8125q0.96875 -0.625 2.171875 -0.625q0.875 0 1.546875 0.375q0.6875 0.359375 1.109375 0.953125l0 -4.796875l1.640625 0l0 13.359375l-1.53125 0zm-5.171875 -4.828125q0 1.859375 0.78125 2.78125q0.78125 0.921875 1.84375 0.921875q1.078125 0 1.828125 -0.875q0.75 -0.890625 0.75 -2.6875q0 -1.984375 -0.765625 -2.90625q-0.765625 -0.9375 -1.890625 -0.9375q-1.078125 0 -1.8125 0.890625q-0.734375 0.890625 -0.734375 2.8125zm9.235107 4.828125l0 -13.359375l1.640625 0l0 13.359375l-1.640625 0zm4.1448364 0l0 -13.359375l1.640625 0l0 13.359375l-1.640625 0z" fill-rule="nonzero"/><path fill="#b6d7a8" d="m856.00525 308.91602l0 0c0 30.29303 -24.557373 54.850403 -54.850403 54.850403c-30.29303 0 -54.850403 -24.557373 -54.850403 -54.850403c0 -30.29303 24.557373 -54.850403 54.850403 -54.850403l0 54.850403z" fill-rule="evenodd"/><path stroke="#595959" stroke-width="1.0" stroke-linejoin="round" stroke-linecap="butt" d="m856.00525 308.91602l0 0c0 30.29303 -24.557373 54.850403 -54.850403 54.850403c-30.29303 0 -54.850403 -24.557373 -54.850403 -54.850403c0 -30.29303 24.557373 -54.850403 54.850403 -54.850403l0 54.850403z" fill-rule="evenodd"/><path fill="#000000" fill-opacity="0.0" d="m700.00525 359.20734l202.2992 0l0 42.015747l-202.2992 0z" fill-rule="evenodd"/><path fill="#000000" d="m765.7809 386.12735l0 -13.359375l5.046875 0q1.328125 0 2.03125 0.125q0.96875 0.171875 1.640625 0.640625q0.671875 0.453125 1.078125 1.28125q0.40625 0.828125 0.40625 1.828125q0 1.703125 -1.09375 2.890625q-1.078125 1.171875 -3.921875 1.171875l-3.421875 0l0 5.421875l-1.765625 0zm1.765625 -7.0l3.453125 0q1.71875 0 2.4375 -0.640625q0.71875 -0.640625 0.71875 -1.796875q0 -0.84375 -0.421875 -1.4375q-0.421875 -0.59375 -1.125 -0.78125q-0.4375 -0.125 -1.640625 -0.125l-3.421875 0l0 4.78125zm16.787292 5.8125q-0.921875 0.765625 -1.765625 1.09375q-0.828125 0.3125 -1.796875 0.3125q-1.59375 0 -2.453125 -0.78125q-0.859375 -0.78125 -0.859375 -1.984375q0 -0.71875 0.328125 -1.296875q0.328125 -0.59375 0.84375 -0.9375q0.53125 -0.359375 1.1875 -0.546875q0.46875 -0.125 1.453125 -0.25q1.984375 -0.234375 2.921875 -0.5625q0.015625 -0.34375 0.015625 -0.421875q0 -1.0 -0.46875 -1.421875q-0.625 -0.546875 -1.875 -0.546875q-1.15625 0 -1.703125 0.40625q-0.546875 0.40625 -0.8125 1.421875l-1.609375 -0.21875q0.21875 -1.015625 0.71875 -1.640625q0.5 -0.640625 1.453125 -0.984375q0.953125 -0.34375 2.1875 -0.34375q1.25 0 2.015625 0.296875q0.78125 0.28125 1.140625 0.734375q0.375 0.4375 0.515625 1.109375q0.078125 0.421875 0.078125 1.515625l0 2.1875q0 2.28125 0.109375 2.890625q0.109375 0.59375 0.40625 1.15625l-1.703125 0q-0.265625 -0.515625 -0.328125 -1.1875zm-0.140625 -3.671875q-0.890625 0.375 -2.671875 0.625q-1.015625 0.140625 -1.4375 0.328125q-0.421875 0.1875 -0.65625 0.53125q-0.21875 0.34375 -0.21875 0.78125q0 0.65625 0.5 1.09375q0.5 0.4375 1.453125 0.4375q0.9375 0 1.671875 -0.40625q0.75 -0.421875 1.09375 -1.140625q0.265625 -0.5625 0.265625 -1.640625l0 -0.609375zm10.516357 1.3125l1.609375 0.21875q-0.265625 1.65625 -1.359375 2.609375q-1.078125 0.9375 -2.671875 0.9375q-1.984375 0 -3.1875 -1.296875q-1.203125 -1.296875 -1.203125 -3.71875q0 -1.578125 0.515625 -2.75q0.515625 -1.171875 1.578125 -1.75q1.0625 -0.59375 2.3125 -0.59375q1.578125 0 2.578125 0.796875q1.0 0.796875 1.28125 2.265625l-1.59375 0.234375q-0.234375 -0.96875 -0.8125 -1.453125q-0.578125 -0.5 -1.390625 -0.5q-1.234375 0 -2.015625 0.890625q-0.78125 0.890625 -0.78125 2.8125q0 1.953125 0.75 2.84375q0.75 0.875 1.953125 0.875q0.96875 0 1.609375 -0.59375q0.65625 -0.59375 0.828125 -1.828125zm8.355164 3.546875l0 -13.359375l2.65625 0l3.15625 9.453125q0.4375 1.328125 0.640625 1.984375q0.234375 -0.734375 0.703125 -2.140625l3.203125 -9.296875l2.375 0l0 13.359375l-1.703125 0l0 -11.171875l-3.875 11.171875l-1.59375 0l-3.859375 -11.375l0 11.375l-1.703125 0zm21.697083 -1.1875q-0.921875 0.765625 -1.765625 1.09375q-0.828125 0.3125 -1.796875 0.3125q-1.59375 0 -2.453125 -0.78125q-0.859375 -0.78125 -0.859375 -1.984375q0 -0.71875 0.328125 -1.296875q0.328125 -0.59375 0.84375 -0.9375q0.53125 -0.359375 1.1875 -0.546875q0.46875 -0.125 1.453125 -0.25q1.984375 -0.234375 2.921875 -0.5625q0.015625 -0.34375 0.015625 -0.421875q0 -1.0 -0.46875 -1.421875q-0.625 -0.546875 -1.875 -0.546875q-1.15625 0 -1.703125 0.40625q-0.546875 0.40625 -0.8125 1.421875l-1.609375 -0.21875q0.21875 -1.015625 0.71875 -1.640625q0.5 -0.640625 1.453125 -0.984375q0.953125 -0.34375 2.1875 -0.34375q1.25 0 2.015625 0.296875q0.78125 0.28125 1.140625 0.734375q0.375 0.4375 0.515625 1.109375q0.078125 0.421875 0.078125 1.515625l0 2.1875q0 2.28125 0.109375 2.890625q0.109375 0.59375 0.40625 1.15625l-1.703125 0q-0.265625 -0.515625 -0.328125 -1.1875zm-0.140625 -3.671875q-0.890625 0.375 -2.671875 0.625q-1.015625 0.140625 -1.4375 0.328125q-0.421875 0.1875 -0.65625 0.53125q-0.21875 0.34375 -0.21875 0.78125q0 0.65625 0.5 1.09375q0.5 0.4375 1.453125 0.4375q0.9375 0 1.671875 -0.40625q0.75 -0.421875 1.09375 -1.140625q0.265625 -0.5625 0.265625 -1.640625l0 -0.609375zm4.2038574 4.859375l0 -9.671875l1.46875 0l0 1.375q1.0625 -1.59375 3.078125 -1.59375q0.875 0 1.609375 0.3125q0.734375 0.3125 1.09375 0.828125q0.375 0.5 0.515625 1.203125q0.09375 0.453125 0.09375 1.59375l0 5.953125l-1.640625 0l0 -5.890625q0 -1.0 -0.203125 -1.484375q-0.1875 -0.5 -0.671875 -0.796875q-0.484375 -0.296875 -1.140625 -0.296875q-1.046875 0 -1.8125 0.671875q-0.75 0.65625 -0.75 2.515625l0 5.28125l-1.640625 0z" fill-rule="nonzero"/><path fill="#eeeeee" d="m400.00183 218.35695l1.8789368 1.8310547E-4l-0.0030212402 30.063004l-1.8789368 -1.9836426E-4zm3.7578735 3.8146973E-4l3.7578735 3.8146973E-4l-0.0030212402 30.062988l-3.7578735 -3.8146973E-4zm5.6368103 5.645752E-4l272.7313 0.027526855l0.0015258789 -15.031494l30.059937 30.066025l-30.065979 30.059967l0.0014648438 -15.031509l-272.73126 -0.027526855z" fill-rule="evenodd"/><path stroke="#595959" stroke-width="1.0" stroke-linejoin="round" stroke-linecap="butt" d="m400.00183 218.35695l1.8789368 1.8310547E-4l-0.0030212402 30.063004l-1.8789368 -1.9836426E-4zm3.7578735 3.8146973E-4l3.7578735 3.8146973E-4l-0.0030212402 30.062988l-3.7578735 -3.8146973E-4zm5.6368103 5.645752E-4l272.7313 0.027526855l0.0015258789 -15.031494l30.059937 30.066025l-30.065979 30.059967l0.0014648438 -15.031509l-272.73126 -0.027526855z" fill-rule="evenodd"/><path fill="#000000" d="m419.2385 235.8135l1.6562805 -0.14045715q0.12490845 1.0000153 0.5466919 1.640686q0.43743896 0.6406708 1.3436584 1.0470123q0.9218445 0.39071655 2.0624695 0.39082336q1.0 1.0681152E-4 1.7812805 -0.2966919q0.7812805 -0.2967987 1.156311 -0.8123779q0.37506104 -0.5312195 0.37512207 -1.1562195q6.1035156E-5 -0.625 -0.37487793 -1.0937805q-0.35934448 -0.46879578 -1.187439 -0.7969971q-0.5468445 -0.20318604 -2.3905334 -0.64086914q-1.8280945 -0.4533081 -2.562439 -0.8440094q-0.96868896 -0.50009155 -1.4373779 -1.2345123q-0.46865845 -0.75006104 -0.4685669 -1.671936q9.1552734E-5 -1.0 0.5783081 -1.874939q0.57821655 -0.89056396 1.6720276 -1.3435822q1.1094055 -0.45300293 2.4531555 -0.4528656q1.484375 1.373291E-4 2.609314 0.4846344q1.1405945 0.4688568 1.7498779 1.4064178q0.60928345 0.92193604 0.6560364 2.0938263l-1.6875305 0.12483215q-0.14047241 -1.2656403 -0.9372864 -1.9063568q-0.78118896 -0.6563263 -2.312439 -0.6564789q-1.609375 -1.6784668E-4 -2.343811 0.5935211q-0.73443604 0.5936737 -0.7345276 1.4217987q-6.1035156E-5 0.71875 0.5311279 1.1719208q0.49996948 0.46881104 2.6561584 0.96902466q2.1562195 0.48458862 2.9530334 0.8440399q1.1718445 0.5313721 1.7186279 1.3595581q0.56240845 0.8281708 0.5623169 1.9062958q-1.2207031E-4 1.0625 -0.6095886 2.015564q-0.60946655 0.93743896 -1.7501526 1.4685822q-1.140686 0.5155029 -2.578186 0.5153656q-1.8125 -1.8310547E-4 -3.046814 -0.5315552q-1.218689 -0.5313721 -1.9217224 -1.5939484q-0.6873779 -1.0625763 -0.71850586 -2.4063263zm12.224884 -0.54563904q2.746582E-4 -2.6875 1.4847717 -3.9685974q1.2501221 -1.0780029 3.046997 -1.0778198q2.0 1.9836426E-4 3.265503 1.3128357q1.2654724 1.2969971 1.2652588 3.609497q-2.1362305E-4 1.859375 -0.5628052 2.937439q-0.5626221 1.0624542 -1.6408081 1.6560822q-1.062561 0.5936432 -2.328186 0.5935211q-2.03125 -1.9836426E-4 -3.2810974 -1.2972107q-1.2498779 -1.3126221 -1.2496338 -3.765747zm1.6875 1.6784668E-4q-1.8310547E-4 1.859375 0.79660034 2.7969513q0.81240845 0.92196655 2.0467834 0.9220886q1.21875 1.2207031E-4 2.0313416 -0.92167664q0.81259155 -0.93740845 0.81277466 -2.8436584q1.8310547E-4 -1.796875 -0.81222534 -2.7188416q-0.81240845 -0.9219513 -2.0311584 -0.92207336q-1.234375 -1.2207031E-4 -2.0469666 0.9216614q-0.79696655 0.9061737 -0.79714966 2.7655487zm14.433533 4.845215l0.0013427734 -13.359375l1.640625 1.6784668E-4l-0.0013427734 13.359375l-1.640625 -1.6784668E-4zm10.817017 -3.1082916l1.6874695 0.20329285q-0.4064026 1.4843445 -1.4845886 2.3123627q-1.0782166 0.8123779 -2.7657166 0.8122101q-2.125 -2.1362305E-4 -3.374878 -1.2972107q-1.2342224 -1.3126221 -1.2340088 -3.671997q2.4414062E-4 -2.453125 1.2503967 -3.796753q1.2657471 -1.3436279 3.265747 -1.3434143q1.9375 1.8310547E-4 3.156128 1.3284454q1.2342529 1.3126221 1.2340088 3.703247q-3.0517578E-5 0.15625 -6.1035156E-5 0.4375l-7.21875 -7.324219E-4q0.09359741 1.5937653 0.90600586 2.4532166q0.81240845 0.8438263 2.0155334 0.84394836q0.90625 9.1552734E-5 1.546936 -0.46858215q0.64068604 -0.48431396 1.0157776 -1.5155334zm-5.3903503 -2.656784l5.40625 5.340576E-4q-0.10925293 -1.21875 -0.6248169 -1.828186q-0.78115845 -0.9532013 -2.0311584 -0.95332336q-1.125 -1.2207031E-4 -1.9063416 0.76542664q-0.76568604 0.7499237 -0.8439331 2.0155487zm12.719025 4.2981567l0.23422241 1.4531403q-0.6875 0.14056396 -1.234375 0.14050293q-0.890625 -9.1552734E-5 -1.3905945 -0.28138733q-0.48434448 -0.28129578 -0.68743896 -0.7344513q-0.20306396 -0.46876526 -0.20291138 -1.9375153l5.493164E-4 -5.578125l-1.203125 -1.2207031E-4l1.2207031E-4 -1.265625l1.203125 1.2207031E-4l2.4414062E-4 -2.390625l1.6250916 -0.98420715l-3.3569336E-4 3.375l1.65625 1.6784668E-4l-1.2207031E-4 1.265625l-1.65625 -1.6784668E-4l-5.79834E-4 5.671875q-6.1035156E-5 0.6875 0.07803345 0.890625q0.09375 0.20314026 0.28121948 0.32815552q0.203125 0.10939026 0.578125 0.109436035q0.265625 3.0517578E-5 0.71875 -0.062423706zm0.94906616 -1.4217834l1.6250305 -0.24983215q0.12490845 0.96876526 0.7498474 1.5000763q0.62493896 0.51568604 1.749939 0.51579285q1.125 1.2207031E-4 1.671936 -0.45295715q0.5469055 -0.46868896 0.54696655 -1.093689q6.1035156E-5 -0.546875 -0.48428345 -0.8750458q-0.32809448 -0.21878052 -1.671814 -0.54704285q-1.812439 -0.4689331 -2.5155334 -0.7971344q-0.6874695 -0.32818604 -1.0467834 -0.9063568q-0.35931396 -0.5937805 -0.35925293 -1.3125305q6.1035156E-5 -0.640625 0.29699707 -1.1874695q0.29693604 -0.5624695 0.81259155 -0.9217987q0.37503052 -0.28120422 1.031311 -0.4686432q0.671875 -0.20306396 1.421875 -0.20298767q1.140625 1.2207031E-4 1.9999695 0.32833862q0.8593445 0.3282013 1.2655334 0.8907471q0.42181396 0.5625458 0.5779724 1.500061l-1.609375 0.21858215q-0.109313965 -0.75001526 -0.6405029 -1.171936q-0.5155945 -0.42193604 -1.4687195 -0.4220276q-1.140625 -1.0681152E-4 -1.6250305 0.37483215q-0.46881104 0.37495422 -0.46884155 0.8749542q-3.0517578E-5 0.3125 0.18743896 0.5781555q0.20309448 0.26564026 0.64056396 0.43756104q0.234375 0.09376526 1.4374695 0.42201233q1.7499695 0.4533081 2.437439 0.75024414q0.6874695 0.2969513 1.0780334 0.8594971q0.39056396 0.5625305 0.3904724 1.4062805q-9.1552734E-5 0.828125 -0.4845276 1.5468292q-0.46881104 0.7187042 -1.3751221 1.1248627q-0.9062805 0.39053345 -2.0469055 0.39041138q-1.875 -1.8310547E-4 -2.8749084 -0.7815399q-0.98431396 -0.78134155 -1.2497864 -2.328247zm15.167023 6.595276l0.0013427734 -13.375l1.484375 1.5258789E-4l-1.2207031E-4 1.25q0.53131104 -0.73431396 1.1876221 -1.0936279q0.6719055 -0.37493896 1.6250305 -0.37483215q1.234375 1.2207031E-4 2.171814 0.6408386q0.95306396 0.62509155 1.4373169 1.7970276q0.48425293 1.1562958 0.48410034 2.5469208q-1.5258789E-4 1.484375 -0.53149414 2.671814q-0.5313721 1.1874542 -1.5470886 1.8279724q-1.015686 0.6248932 -2.140686 0.6247864q-0.8125 -7.6293945E-5 -1.468689 -0.3439026q-0.6562195 -0.34381104 -1.062439 -0.8751068l-4.5776367E-4 4.703125l-1.640625 -1.6784668E-4zm1.4852295 -8.484222q-1.8310547E-4 1.859375 0.74972534 2.7657013q0.76553345 0.8907013 1.8280334 0.8908081q1.09375 1.0681152E-4 1.8750916 -0.92167664q0.78134155 -0.9374237 0.78152466 -2.8749237q2.1362305E-4 -1.84375 -0.7653198 -2.7657013q-0.74990845 -0.9219513 -1.8124084 -0.9220581q-1.046875 -1.0681152E-4 -1.8594971 0.98417664q-0.79696655 0.9686737 -0.79714966 2.8436737zm15.218994 4.782791l1.2207031E-4 -1.421875q-1.1251526 1.6405029 -3.0626526 1.6403198q-0.859375 -9.1552734E-5 -1.6093445 -0.32829285q-0.7343445 -0.3282013 -1.0936584 -0.8282318q-0.35934448 -0.5000458 -0.49987793 -1.218811q-0.10934448 -0.46875 -0.10922241 -1.53125l6.1035156E-4 -5.984375l1.640625 1.6784668E-4l-5.493164E-4 5.359375q-1.2207031E-4 1.28125 0.109191895 1.734375q0.15618896 0.64064026 0.65615845 1.0157013q0.49996948 0.37504578 1.2343445 0.37512207q0.734375 7.6293945E-5 1.3750305 -0.37486267q0.6562805 -0.39056396 0.92196655 -1.0311584q0.26568604 -0.6562195 0.2658081 -1.8905945l5.493164E-4 -5.1875l1.640625 1.6784668E-4l-9.765625E-4 9.671875l-1.46875 -1.5258789E-4zm7.6258545 -1.4679871l0.23422241 1.4531555q-0.6875 0.1405487 -1.234375 0.14050293q-0.890625 -9.1552734E-5 -1.3905945 -0.2814026q-0.48434448 -0.28129578 -0.68743896 -0.73443604q-0.20306396 -0.46876526 -0.2029419 -1.9375153l5.79834E-4 -5.578125l-1.203125 -1.2207031E-4l1.2207031E-4 -1.265625l1.203125 1.2207031E-4l2.4414062E-4 -2.390625l1.6250916 -0.9842224l-3.3569336E-4 3.375l1.65625 1.6784668E-4l-1.2207031E-4 1.265625l-1.65625 -1.6784668E-4l-5.79834E-4 5.671875q-6.1035156E-5 0.6875 0.07803345 0.89064026q0.09375 0.203125 0.28121948 0.32815552q0.203125 0.10939026 0.578125 0.109436035q0.265625 1.5258789E-5 0.71875 -0.062438965zm10.366577 0.0010528564l0.23425293 1.4531403q-0.6875 0.14056396 -1.234375 0.14050293q-0.890625 -9.1552734E-5 -1.390625 -0.28138733q-0.48431396 -0.28129578 -0.6873779 -0.7344513q-0.203125 -0.46876526 -0.2029419 -1.9375153l5.493164E-4 -5.578125l-1.203125 -1.2207031E-4l1.2207031E-4 -1.265625l1.203125 1.2207031E-4l2.4414062E-4 -2.390625l1.6251221 -0.98420715l-3.6621094E-4 3.375l1.65625 1.6784668E-4l-1.2207031E-4 1.265625l-1.65625 -1.6784668E-4l-5.493164E-4 5.671875q-1.2207031E-4 0.6875 0.07800293 0.890625q0.09375 0.20314026 0.28125 0.32815552q0.20306396 0.10940552 0.57806396 0.109436035q0.265625 3.0517578E-5 0.71875 -0.062423706zm1.6050415 1.4689026l0.0013427734 -13.359375l1.640625 1.6784668E-4l-4.8828125E-4 4.796875q1.1408081 -1.3280029 2.890808 -1.3278351q1.078125 1.2207031E-4 1.859314 0.42207336q0.79681396 0.4219513 1.1405029 1.1719818q0.34368896 0.7500458 0.34350586 2.1719208l-6.1035156E-4 6.125l-1.640625 -1.6784668E-4l6.1035156E-4 -6.125q1.2207031E-4 -1.234375 -0.5310669 -1.796936q-0.53118896 -0.5625458 -1.515564 -0.5626526q-0.71875 -7.6293945E-5 -1.359375 0.39048767q-0.64068604 0.37493896 -0.9219971 1.0155334q-0.26568604 0.6405945 -0.2658081 1.7812195l-5.493164E-4 5.296875l-1.640625 -1.6784668E-4zm10.376892 -11.467697l1.8310547E-4 -1.890625l1.640625 1.6784668E-4l-1.8310547E-4 1.890625l-1.640625 -1.6784668E-4zm-0.001159668 11.46875l9.765625E-4 -9.671875l1.640625 1.6784668E-4l-9.765625E-4 9.671875l-1.640625 -1.6784668E-4zm3.4888916 -2.890274l1.625 -0.24983215q0.12487793 0.96876526 0.7498779 1.5000763q0.62493896 0.51568604 1.749939 0.51579285q1.125 1.2207031E-4 1.671875 -0.4529419q0.54693604 -0.46870422 0.5469971 -1.0937042q6.1035156E-5 -0.546875 -0.48425293 -0.8750458q-0.328125 -0.21878052 -1.671814 -0.54704285q-1.8125 -0.4689331 -2.515564 -0.7971344q-0.6875 -0.32818604 -1.046814 -0.9063568q-0.35931396 -0.5937805 -0.3591919 -1.3125305q6.1035156E-5 -0.640625 0.29699707 -1.1874695q0.296875 -0.5624695 0.81256104 -0.9217987q0.37506104 -0.28120422 1.031311 -0.4686432q0.671875 -0.2030487 1.421875 -0.20297241q1.140625 1.0681152E-4 2.0 0.32832336q0.85931396 0.3282013 1.2655029 0.8907471q0.42181396 0.5625458 0.5780029 1.500061l-1.609436 0.21858215q-0.10925293 -0.75 -0.6405029 -1.171936q-0.51556396 -0.42192078 -1.468689 -0.4220276q-1.140625 -1.0681152E-4 -1.625061 0.3748474q-0.46875 0.37493896 -0.46881104 0.87493896q-6.1035156E-5 0.3125 0.18743896 0.5781555q0.20306396 0.26564026 0.64056396 0.43756104q0.234375 0.09378052 1.4375 0.42201233q1.749939 0.4533081 2.437378 0.7502594q0.6875 0.29693604 1.078064 0.8594818q0.39056396 0.5625305 0.39050293 1.4062805q-1.2207031E-4 0.828125 -0.4845581 1.5468292q-0.46881104 0.7187042 -1.3751221 1.1248627q-0.90631104 0.39053345 -2.046936 0.39041138q-1.875 -1.8310547E-4 -2.874878 -0.7815399q-0.98431396 -0.78134155 -1.2497559 -2.328247zm15.168518 -8.576584l1.8310547E-4 -1.890625l1.640625 1.5258789E-4l-1.8310547E-4 1.890625l-1.640625 -1.5258789E-4zm-0.001159668 11.46875l9.765625E-4 -9.671875l1.640625 1.5258789E-4l-9.765625E-4 9.671875l-1.640625 -1.5258789E-4zm4.1448364 4.119873E-4l9.765625E-4 -9.671875l1.46875 1.5258789E-4l-1.2207031E-4 1.375q1.0626221 -1.5936432 3.078247 -1.5934448q0.875 9.1552734E-5 1.609375 0.31266785q0.73431396 0.3125763 1.0936279 0.8282318q0.37493896 0.5000305 0.5155029 1.2031708q0.09375 0.45314026 0.09362793 1.5937653l-6.1035156E-4 5.953125l-1.640625 -1.6784668E-4l6.1035156E-4 -5.890625q6.1035156E-5 -1.0 -0.20300293 -1.4843903q-0.18743896 -0.5000305 -0.67181396 -0.7969513q-0.48431396 -0.29692078 -1.140564 -0.2969818q-1.046875 -1.0681152E-4 -1.812561 0.6716919q-0.75006104 0.6561737 -0.75024414 2.5155487l-5.493164E-4 5.28125l-1.640625 -1.6784668E-4zm15.559021 0.0015716553l9.765625E-4 -9.671875l1.46875 1.5258789E-4l-1.2207031E-4 1.359375q0.45318604 -0.7187042 1.203186 -1.1405029q0.76568604 -0.4374237 1.718811 -0.43733215q1.078125 1.0681152E-4 1.765564 0.4533081q0.6875 0.43756104 0.9686279 1.2344666q1.1564331 -1.6873779 2.984558 -1.6871948q1.453125 1.373291E-4 2.218689 0.7970886q0.78118896 0.79696655 0.78100586 2.4532166l-6.713867E-4 6.640625l-1.640625 -1.6784668E-4l6.1035156E-4 -6.09375q1.2207031E-4 -0.984375 -0.15612793 -1.4062653q-0.15618896 -0.43751526 -0.57806396 -0.70318604q-0.42181396 -0.26567078 -0.98431396 -0.2657318q-1.015625 -9.1552734E-5 -1.687561 0.68733215q-0.67193604 0.67181396 -0.67211914 2.156189l-5.493164E-4 5.625l-1.640625 -1.6784668E-4l6.1035156E-4 -6.28125q1.2207031E-4 -1.09375 -0.4060669 -1.6406708q-0.40618896 -0.5469055 -1.312439 -0.5469971q-0.6875 -7.6293945E-5 -1.281311 0.35923767q-0.59375 0.35931396 -0.8594971 1.0624084q-0.25006104 0.70310974 -0.2501831 2.0312347l-4.8828125E-4 5.015625l-1.640625 -1.6784668E-4zm22.166077 -3.1071472l1.6875 0.2033081q-0.40637207 1.4843292 -1.4846191 2.3123474q-1.078186 0.8123932 -2.765686 0.81222534q-2.125 -2.2888184E-4 -3.374878 -1.297226q-1.2342529 -1.3126221 -1.2340088 -3.671997q2.4414062E-4 -2.453125 1.2503662 -3.796753q1.2658081 -1.3436127 3.265808 -1.3434143q1.9375 1.9836426E-4 3.156067 1.3284454q1.2342529 1.3126221 1.2340088 3.703247q0 0.15625 0 0.4375l-7.21875 -7.324219E-4q0.093566895 1.5937653 0.90600586 2.4532166q0.8123779 0.84384155 2.015503 0.8439636q0.90625 9.1552734E-5 1.546936 -0.4685974q0.64068604 -0.48431396 1.0157471 -1.5155334zm-5.39032 -2.656784l5.40625 5.493164E-4q-0.10925293 -1.2187653 -0.6248169 -1.8282013q-0.78118896 -0.9532013 -2.031189 -0.95332336q-1.125 -1.0681152E-4 -1.906311 0.76542664q-0.76568604 0.7499237 -0.8439331 2.0155487zm9.140747 5.7665405l9.765625E-4 -9.671875l1.46875 1.5258789E-4l-1.2207031E-4 1.359375q0.45318604 -0.7187042 1.2032471 -1.1405029q0.765625 -0.4374237 1.71875 -0.43733215q1.078125 1.0681152E-4 1.765625 0.4533081q0.68743896 0.4375763 0.9686279 1.2344666q1.1563721 -1.6873779 2.984497 -1.6871948q1.453125 1.5258789E-4 2.218689 0.7971039q0.78118896 0.7969513 0.78100586 2.4532013l-6.713867E-4 6.640625l-1.640625 -1.6784668E-4l6.1035156E-4 -6.09375q1.2207031E-4 -0.984375 -0.15612793 -1.4062653q-0.15618896 -0.43751526 -0.5780029 -0.70318604q-0.421875 -0.26565552 -0.984375 -0.26571655q-1.015625 -1.0681152E-4 -1.687561 0.68733215q-0.67193604 0.6717987 -0.67211914 2.1561737l-5.493164E-4 5.625l-1.640625 -1.6784668E-4l6.1035156E-4 -6.28125q1.2207031E-4 -1.09375 -0.4060669 -1.6406555q-0.40618896 -0.5469208 -1.312439 -0.5470123q-0.6875 -7.6293945E-5 -1.281311 0.35923767q-0.59375 0.35932922 -0.85943604 1.0624237q-0.25006104 0.7030945 -0.25024414 2.0312195l-4.8828125E-4 5.015625l-1.640625 -1.6784668E-4zm14.931946 -4.8422394q2.4414062E-4 -2.6875 1.4847412 -3.9685974q1.2501221 -1.0780029 3.046997 -1.0778198q2.0 1.9836426E-4 3.265503 1.3128357q1.2655029 1.2969971 1.2652588 3.609497q-1.8310547E-4 1.859375 -0.5628052 2.937439q-0.5626221 1.0624542 -1.6408081 1.6560822q-1.062561 0.5936432 -2.328186 0.5935211q-2.03125 -1.9836426E-4 -3.281128 -1.2972107q-1.2498169 -1.3126221 -1.2495728 -3.765747zm1.6875 1.6784668E-4q-2.4414062E-4 1.859375 0.7965698 2.7969666q0.8123779 0.9219513 2.046753 0.92207336q1.21875 1.2207031E-4 2.031372 -0.92167664q0.81256104 -0.93740845 0.8128052 -2.8436584q1.8310547E-4 -1.796875 -0.81225586 -2.7188416q-0.8123779 -0.9219513 -2.031128 -0.92207336q-1.234375 -1.2207031E-4 -2.046997 0.92167664q-0.79693604 0.90615845 -0.79711914 2.7655334zm9.281433 4.844696l9.765625E-4 -9.671875l1.46875 1.373291E-4l-1.2207031E-4 1.46875q0.5626221 -1.031189 1.0313721 -1.3592682q0.48443604 -0.32807922 1.062561 -0.3280182q0.828125 9.1552734E-5 1.687439 0.53141785l-0.5626831 1.5155792q-0.60931396 -0.35943604 -1.203064 -0.35949707q-0.546875 -6.1035156E-5 -0.96881104 0.3280182q-0.421875 0.32807922 -0.60943604 0.89056396q-0.28137207 0.8749695 -0.2814331 1.9218445l-5.493164E-4 5.0625l-1.625 -1.5258789E-4zm6.1498413 3.7193604l-0.18737793 -1.5312653q0.546875 0.14068604 0.9375 0.14071655q0.546875 6.1035156E-5 0.875 -0.18740845q0.32818604 -0.17184448 0.54693604 -0.49993896q0.15631104 -0.24998474 0.5001221 -1.2187042q0.046875 -0.140625 0.14068604 -0.40623474l-3.6708984 -9.687866l1.765625 1.6784668E-4l2.0150757 5.5939636q0.39050293 1.0781555 0.70288086 2.250061q0.28137207 -1.1249695 0.6720581 -2.2030487l2.0787354 -5.6404266l1.640625 1.6784668E-4l-3.6884766 9.827759q-0.5939331 1.609314 -0.92211914 2.2030334q-0.43756104 0.8124542 -1.0001221 1.1873932q-0.56256104 0.37495422 -1.343811 0.37486267q-0.484375 -4.5776367E-5 -1.062439 -0.20323181zm18.168152 -5.1856537l0.23425293 1.4531403q-0.6875 0.14056396 -1.234375 0.14050293q-0.890625 -9.1552734E-5 -1.390625 -0.28138733q-0.48431396 -0.28131104 -0.6873779 -0.7344513q-0.203125 -0.46876526 -0.2029419 -1.9375153l5.493164E-4 -5.578125l-1.203125 -1.2207031E-4l1.2207031E-4 -1.265625l1.203125 1.2207031E-4l2.4414062E-4 -2.390625l1.6251221 -0.98420715l-3.6621094E-4 3.375l1.65625 1.6784668E-4l-1.2207031E-4 1.265625l-1.65625 -1.6784668E-4l-5.493164E-4 5.671875q-1.2207031E-4 0.6875 0.07800293 0.890625q0.09375 0.20314026 0.28125 0.32815552q0.20306396 0.10939026 0.57806396 0.109436035q0.265625 3.0517578E-5 0.71875 -0.062423706zm0.9961548 -3.3749084q3.0517578E-4 -2.6875 1.4848022 -3.9685974q1.2501221 -1.0780029 3.046997 -1.0778198q2.0 1.9836426E-4 3.265442 1.3128357q1.2655029 1.2969971 1.2653198 3.609497q-2.4414062E-4 1.859375 -0.5628052 2.937439q-0.5626221 1.0624542 -1.6408081 1.6560822q-1.062561 0.5936432 -2.328186 0.5935211q-2.03125 -1.9836426E-4 -3.281128 -1.2972107q-1.2498779 -1.3126221 -1.2496338 -3.765747zm1.6875 1.6784668E-4q-1.8310547E-4 1.859375 0.79663086 2.7969666q0.8123779 0.9219513 2.046753 0.92207336q1.21875 1.2207031E-4 2.031372 -0.9216614q0.81256104 -0.9374237 0.81274414 -2.8436737q1.8310547E-4 -1.796875 -0.8121948 -2.7188263q-0.81243896 -0.92196655 -2.031189 -0.9220886q-1.234375 -1.2207031E-4 -2.046936 0.92167664q-0.7969971 0.90615845 -0.7971802 2.7655334zm8.688232 8.8500977E-4q3.0517578E-4 -2.6875 1.4848022 -3.9685974q1.250061 -1.0780029 3.046936 -1.0778198q2.0 1.9836426E-4 3.265503 1.3128204q1.2655029 1.2970123 1.2652588 3.6095123q-1.8310547E-4 1.859375 -0.5628052 2.937439q-0.56256104 1.062439 -1.6407471 1.6560822q-1.062561 0.5936432 -2.328186 0.5935211q-2.03125 -2.1362305E-4 -3.281128 -1.2972107q-1.2498779 -1.3126221 -1.2496338 -3.765747zm1.6875 1.6784668E-4q-1.8310547E-4 1.859375 0.7965698 2.7969513q0.81243896 0.92196655 2.046814 0.9220886q1.21875 1.2207031E-4 2.031311 -0.92167664q0.8126221 -0.93740845 0.8128052 -2.8436584q1.8310547E-4 -1.796875 -0.8121948 -2.7188416q-0.81243896 -0.9219513 -2.031189 -0.92207336q-1.234375 -1.2207031E-4 -2.046936 0.9216614q-0.7969971 0.9061737 -0.7971802 2.7655487z" fill-rule="nonzero"/></g></svg>