<svg version="1.1" viewBox="0.0 0.0 960.0 540.0" fill="none" stroke="none" stroke-linecap="square" stroke-miterlimit="10" xmlns:xlink="http://www.w3.org/1999/xlink" xmlns="http://www.w3.org/2000/svg"><clipPath id="p7.0"><path d="m0 0l960.0 0l0 540.0l-960.0 0l0 -540.0z" clip-rule="nonzero"/></clipPath><g clip-path="url(#p7.0)"><path fill="#ffffff" d="m0 0l960.0 0l0 540.0l-960.0 0z" fill-rule="evenodd"/><path fill="#c9daf8" d="m707.7139 43.716534l173.1496 0l0 348.86615l-173.1496 0z" fill-rule="evenodd"/><path fill="#d3e1f9" d="m678.85565 14.858268l230.86615 0l-28.858276 28.858265l-173.1496 0z" fill-rule="evenodd"/><path fill="#a0aec6" d="m678.85565 421.44095l28.858276 -28.858276l173.1496 0l28.858276 28.858276z" fill-rule="evenodd"/><path fill="#dee8fa" d="m678.85565 14.858268l28.858276 28.858265l0 348.86615l-28.858276 28.858276z" fill-rule="evenodd"/><path fill="#788294" d="m909.7218 14.858268l0 406.58267l-28.858276 -28.858276l0 -348.86615z" fill-rule="evenodd"/><path fill="#000000" fill-opacity="0.0" d="m678.85565 14.858268l230.86615 0l0 406.58267l-230.86615 0zm28.858276 28.858265l173.1496 0l0 348.86615l-173.1496 0zm-28.858276 -28.858265l28.858276 28.858265m-28.858276 377.72443l28.858276 -28.858276m202.00787 -377.7244l-28.858276 28.858265m28.858276 377.72443l-28.858276 -28.858276" fill-rule="evenodd"/><path stroke="#595959" stroke-width="1.0" stroke-linejoin="round" stroke-linecap="butt" d="m678.85565 14.858268l230.86615 0l0 406.58267l-230.86615 0zm28.858276 28.858265l173.1496 0l0 348.86615l-173.1496 0zm-28.858276 -28.858265l28.858276 28.858265m-28.858276 377.72443l28.858276 -28.858276m202.00787 -377.7244l-28.858276 28.858265m28.858276 377.72443l-28.858276 -28.858276" fill-rule="evenodd"/><path fill="#000000" fill-opacity="0.0" d="m700.00525 421.44357l188.56696 0l0 42.015747l-188.56696 0z" fill-rule="evenodd"/><path fill="#000000" d="m728.0226 443.67606l1.765625 0.453125q-0.5625 2.171875 -2.0 3.328125q-1.4375 1.140625 -3.53125 1.140625q-2.15625 0 -3.515625 -0.875q-1.34375 -0.890625 -2.0625 -2.546875q-0.703125 -1.671875 -0.703125 -3.59375q0 -2.078125 0.796875 -3.625q0.796875 -1.5625 2.265625 -2.359375q1.484375 -0.8125 3.25 -0.8125q2.0 0 3.359375 1.015625q1.375 1.015625 1.90625 2.875l-1.734375 0.40625q-0.46875 -1.453125 -1.359375 -2.109375q-0.875 -0.671875 -2.203125 -0.671875q-1.546875 0 -2.578125 0.734375q-1.03125 0.734375 -1.453125 1.984375q-0.421875 1.234375 -0.421875 2.5625q0 1.703125 0.5 2.96875q0.5 1.265625 1.546875 1.90625q1.046875 0.625 2.265625 0.625q1.484375 0 2.515625 -0.859375q1.03125 -0.859375 1.390625 -2.546875zm3.1292114 -0.15625q0 -2.6875 1.484375 -3.96875q1.25 -1.078125 3.046875 -1.078125q2.0 0 3.265625 1.3125q1.265625 1.296875 1.265625 3.609375q0 1.859375 -0.5625 2.9375q-0.5625 1.0625 -1.640625 1.65625q-1.0625 0.59375 -2.328125 0.59375q-2.03125 0 -3.28125 -1.296875q-1.25 -1.3125 -1.25 -3.765625zm1.6875 0q0 1.859375 0.796875 2.796875q0.8125 0.921875 2.046875 0.921875q1.21875 0 2.03125 -0.921875q0.8125 -0.9375 0.8125 -2.84375q0 -1.796875 -0.8125 -2.71875q-0.8125 -0.921875 -2.03125 -0.921875q-1.234375 0 -2.046875 0.921875q-0.796875 0.90625 -0.796875 2.765625zm9.297607 4.84375l0 -9.671875l1.46875 0l0 1.359375q0.453125 -0.71875 1.203125 -1.140625q0.765625 -0.4375 1.71875 -0.4375q1.078125 0 1.765625 0.453125q0.6875 0.4375 0.96875 1.234375q1.15625 -1.6875 2.984375 -1.6875q1.453125 0 2.21875 0.796875q0.78125 0.796875 0.78125 2.453125l0 6.640625l-1.640625 0l0 -6.09375q0 -0.984375 -0.15625 -1.40625q-0.15625 -0.4375 -0.578125 -0.703125q-0.421875 -0.265625 -0.984375 -0.265625q-1.015625 0 -1.6875 0.6875q-0.671875 0.671875 -0.671875 2.15625l0 5.625l-1.640625 0l0 -6.28125q0 -1.09375 -0.40625 -1.640625q-0.40625 -0.546875 -1.3125 -0.546875q-0.6875 0 -1.28125 0.359375q-0.59375 0.359375 -0.859375 1.0625q-0.25 0.703125 -0.25 2.03125l0 5.015625l-1.640625 0zm15.5407715 3.703125l0 -13.375l1.484375 0l0 1.25q0.53125 -0.734375 1.1875 -1.09375q0.671875 -0.375 1.625 -0.375q1.234375 0 2.171875 0.640625q0.953125 0.625 1.4375 1.796875q0.484375 1.15625 0.484375 2.546875q0 1.484375 -0.53125 2.671875q-0.53125 1.1875 -1.546875 1.828125q-1.015625 0.625 -2.140625 0.625q-0.8125 0 -1.46875 -0.34375q-0.65625 -0.34375 -1.0625 -0.875l0 4.703125l-1.640625 0zm1.484375 -8.484375q0 1.859375 0.75 2.765625q0.765625 0.890625 1.828125 0.890625q1.09375 0 1.875 -0.921875q0.78125 -0.9375 0.78125 -2.875q0 -1.84375 -0.765625 -2.765625q-0.75 -0.921875 -1.8125 -0.921875q-1.046875 0 -1.859375 0.984375q-0.796875 0.96875 -0.796875 2.84375zm15.219482 4.78125l0 -1.421875q-1.125 1.640625 -3.0625 1.640625q-0.859375 0 -1.609375 -0.328125q-0.734375 -0.328125 -1.09375 -0.828125q-0.359375 -0.5 -0.5 -1.21875q-0.109375 -0.46875 -0.109375 -1.53125l0 -5.984375l1.640625 0l0 5.359375q0 1.28125 0.109375 1.734375q0.15625 0.640625 0.65625 1.015625q0.5 0.375 1.234375 0.375q0.734375 0 1.375 -0.375q0.65625 -0.390625 0.921875 -1.03125q0.265625 -0.65625 0.265625 -1.890625l0 -5.1875l1.640625 0l0 9.671875l-1.46875 0zm7.6257324 -1.46875l0.234375 1.453125q-0.6875 0.140625 -1.234375 0.140625q-0.890625 0 -1.390625 -0.28125q-0.484375 -0.28125 -0.6875 -0.734375q-0.203125 -0.46875 -0.203125 -1.9375l0 -5.578125l-1.203125 0l0 -1.265625l1.203125 0l0 -2.390625l1.625 -0.984375l0 3.375l1.65625 0l0 1.265625l-1.65625 0l0 5.671875q0 0.6875 0.078125 0.890625q0.09375 0.203125 0.28125 0.328125q0.203125 0.109375 0.578125 0.109375q0.265625 0 0.71875 -0.0625zm8.230164 -1.640625l1.6875 0.203125q-0.40625 1.484375 -1.484375 2.3125q-1.078125 0.8125 -2.765625 0.8125q-2.125 0 -3.375 -1.296875q-1.234375 -1.3125 -1.234375 -3.671875q0 -2.453125 1.25 -3.796875q1.265625 -1.34375 3.265625 -1.34375q1.9375 0 3.15625 1.328125q1.234375 1.3125 1.234375 3.703125q0 0.15625 0 0.4375l-7.21875 0q0.09375 1.59375 0.90625 2.453125q0.8125 0.84375 2.015625 0.84375q0.90625 0 1.546875 -0.46875q0.640625 -0.484375 1.015625 -1.515625zm-5.390625 -2.65625l5.40625 0q-0.109375 -1.21875 -0.625 -1.828125q-0.78125 -0.953125 -2.03125 -0.953125q-1.125 0 -1.90625 0.765625q-0.765625 0.75 -0.84375 2.015625zm9.125732 5.765625l0 -9.671875l1.46875 0l0 1.46875q0.5625 -1.03125 1.03125 -1.359375q0.484375 -0.328125 1.0625 -0.328125q0.828125 0 1.6875 0.53125l-0.5625 1.515625q-0.609375 -0.359375 -1.203125 -0.359375q-0.546875 0 -0.96875 0.328125q-0.421875 0.328125 -0.609375 0.890625q-0.28125 0.875 -0.28125 1.921875l0 5.0625l-1.625 0zm11.56781 0l0 -13.359375l2.65625 0l3.15625 9.453125q0.4375 1.328125 0.640625 1.984375q0.234375 -0.734375 0.703125 -2.140625l3.203125 -9.296875l2.375 0l0 13.359375l-1.703125 0l0 -11.171875l-3.875 11.171875l-1.59375 0l-3.859375 -11.375l0 11.375l-1.703125 0zm22.009583 -3.109375l1.6875 0.203125q-0.40625 1.484375 -1.484375 2.3125q-1.078125 0.8125 -2.765625 0.8125q-2.125 0 -3.375 -1.296875q-1.234375 -1.3125 -1.234375 -3.671875q0 -2.453125 1.25 -3.796875q1.265625 -1.34375 3.265625 -1.34375q1.9375 0 3.15625 1.328125q1.234375 1.3125 1.234375 3.703125q0 0.15625 0 0.4375l-7.21875 0q0.09375 1.59375 0.90625 2.453125q0.8125 0.84375 2.015625 0.84375q0.90625 0 1.546875 -0.46875q0.640625 -0.484375 1.015625 -1.515625zm-5.390625 -2.65625l5.40625 0q-0.109375 -1.21875 -0.625 -1.828125q-0.78125 -0.953125 -2.03125 -0.953125q-1.125 0 -1.90625 0.765625q-0.765625 0.75 -0.84375 2.015625zm9.141357 5.765625l0 -9.671875l1.46875 0l0 1.359375q0.453125 -0.71875 1.203125 -1.140625q0.765625 -0.4375 1.71875 -0.4375q1.078125 0 1.765625 0.453125q0.6875 0.4375 0.96875 1.234375q1.15625 -1.6875 2.984375 -1.6875q1.453125 0 2.21875 0.796875q0.78125 0.796875 0.78125 2.453125l0 6.640625l-1.640625 0l0 -6.09375q0 -0.984375 -0.15625 -1.40625q-0.15625 -0.4375 -0.578125 -0.703125q-0.421875 -0.265625 -0.984375 -0.265625q-1.015625 0 -1.6875 0.6875q-0.671875 0.671875 -0.671875 2.15625l0 5.625l-1.640625 0l0 -6.28125q0 -1.09375 -0.40625 -1.640625q-0.40625 -0.546875 -1.3125 -0.546875q-0.6875 0 -1.28125 0.359375q-0.59375 0.359375 -0.859375 1.0625q-0.25 0.703125 -0.25 2.03125l0 5.015625l-1.640625 0zm14.9313965 -4.84375q0 -2.6875 1.484375 -3.96875q1.25 -1.078125 3.046875 -1.078125q2.0 0 3.265625 1.3125q1.265625 1.296875 1.265625 3.609375q0 1.859375 -0.5625 2.9375q-0.5625 1.0625 -1.640625 1.65625q-1.0625 0.59375 -2.328125 0.59375q-2.03125 0 -3.28125 -1.296875q-1.25 -1.3125 -1.25 -3.765625zm1.6875 0q0 1.859375 0.796875 2.796875q0.8125 0.921875 2.046875 0.921875q1.21875 0 2.03125 -0.921875q0.8125 -0.9375 0.8125 -2.84375q0 -1.796875 -0.8125 -2.71875q-0.8125 -0.921875 -2.03125 -0.921875q-1.234375 0 -2.046875 0.921875q-0.796875 0.90625 -0.796875 2.765625zm9.281982 4.84375l0 -9.671875l1.46875 0l0 1.46875q0.5625 -1.03125 1.03125 -1.359375q0.484375 -0.328125 1.0625 -0.328125q0.828125 0 1.6875 0.53125l-0.5625 1.515625q-0.609375 -0.359375 -1.203125 -0.359375q-0.546875 0 -0.96875 0.328125q-0.421875 0.328125 -0.609375 0.890625q-0.28125 0.875 -0.28125 1.921875l0 5.0625l-1.625 0zm6.1502075 3.71875l-0.1875 -1.53125q0.546875 0.140625 0.9375 0.140625q0.546875 0 0.875 -0.1875q0.328125 -0.171875 0.546875 -0.5q0.15625 -0.25 0.5 -1.21875q0.046875 -0.140625 0.140625 -0.40625l-3.671875 -9.6875l1.765625 0l2.015625 5.59375q0.390625 1.078125 0.703125 2.25q0.28125 -1.125 0.671875 -2.203125l2.078125 -5.640625l1.640625 0l-3.6875 9.828125q-0.59375 1.609375 -0.921875 2.203125q-0.4375 0.8125 -1.0 1.1875q-0.5625 0.375 -1.34375 0.375q-0.484375 0 -1.0625 -0.203125z" fill-rule="nonzero"/><path fill="#eeeeee" d="m702.8596 193.93094l0 0c0 -10.783569 40.934204 -19.525375 91.42914 -19.525375c50.494934 0 91.42914 8.741806 91.42914 19.525375l0 78.10147c0 10.783569 -40.934204 19.52539 -91.42914 19.52539c-50.494934 0 -91.42914 -8.741821 -91.42914 -19.52539z" fill-rule="evenodd"/><path fill="#000000" fill-opacity="0.0" d="m885.7179 193.93094l0 0c0 10.783569 -40.934204 19.525375 -91.42914 19.525375c-50.494934 0 -91.42914 -8.741806 -91.42914 -19.525375" fill-rule="evenodd"/><path fill="#000000" fill-opacity="0.0" d="m702.8596 193.93094l0 0c0 -10.783569 40.934204 -19.525375 91.42914 -19.525375c50.494934 0 91.42914 8.741806 91.42914 19.525375l0 78.10147c0 10.783569 -40.934204 19.52539 -91.42914 19.52539c-50.494934 0 -91.42914 -8.741821 -91.42914 -19.52539z" fill-rule="evenodd"/><path stroke="#595959" stroke-width="1.0" stroke-linejoin="round" stroke-linecap="butt" d="m885.7179 193.93094l0 0c0 10.783569 -40.934204 19.525375 -91.42914 19.525375c-50.494934 0 -91.42914 -8.741806 -91.42914 -19.525375" fill-rule="evenodd"/><path stroke="#595959" stroke-width="1.0" stroke-linejoin="round" stroke-linecap="butt" d="m702.8596 193.93094l0 0c0 -10.783569 40.934204 -19.525375 91.42914 -19.525375c50.494934 0 91.42914 8.741806 91.42914 19.525375l0 78.10147c0 10.783569 -40.934204 19.52539 -91.42914 19.52539c-50.494934 0 -91.42914 -8.741821 -91.42914 -19.52539z" fill-rule="evenodd"/><path fill="#000000" d="m722.618 249.46437l0 -13.359375l5.046875 0q1.328125 0 2.03125 0.125q0.96875 0.171875 1.640625 0.640625q0.671875 0.453125 1.078125 1.28125q0.40625 0.828125 0.40625 1.828125q0 1.703125 -1.09375 2.890625q-1.078125 1.171875 -3.921875 1.171875l-3.421875 0l0 5.421875l-1.765625 0zm1.765625 -7.0l3.453125 0q1.71875 0 2.4375 -0.640625q0.71875 -0.640625 0.71875 -1.796875q0 -0.84375 -0.421875 -1.4375q-0.421875 -0.59375 -1.125 -0.78125q-0.4375 -0.125 -1.640625 -0.125l-3.421875 0l0 4.78125zm10.4748535 7.0l0 -13.359375l1.640625 0l0 4.796875q1.140625 -1.328125 2.890625 -1.328125q1.078125 0 1.859375 0.421875q0.796875 0.421875 1.140625 1.171875q0.34375 0.75 0.34375 2.171875l0 6.125l-1.640625 0l0 -6.125q0 -1.234375 -0.53125 -1.796875q-0.53125 -0.5625 -1.515625 -0.5625q-0.71875 0 -1.359375 0.390625q-0.640625 0.375 -0.921875 1.015625q-0.265625 0.640625 -0.265625 1.78125l0 5.296875l-1.640625 0zm10.297546 3.71875l-0.1875 -1.53125q0.546875 0.140625 0.9375 0.140625q0.546875 0 0.875 -0.1875q0.328125 -0.171875 0.546875 -0.5q0.15625 -0.25 0.5 -1.21875q0.046875 -0.140625 0.140625 -0.40625l-3.671875 -9.6875l1.765625 0l2.015625 5.59375q0.390625 1.078125 0.703125 2.25q0.28125 -1.125 0.671875 -2.203125l2.078125 -5.640625l1.640625 0l-3.6875 9.828125q-0.59375 1.609375 -0.921875 2.203125q-0.4375 0.8125 -1.0 1.1875q-0.5625 0.375 -1.34375 0.375q-0.484375 0 -1.0625 -0.203125zm8.75 -6.609375l1.625 -0.25q0.125 0.96875 0.75 1.5q0.625 0.515625 1.75 0.515625q1.125 0 1.671875 -0.453125q0.546875 -0.46875 0.546875 -1.09375q0 -0.546875 -0.484375 -0.875q-0.328125 -0.21875 -1.671875 -0.546875q-1.8125 -0.46875 -2.515625 -0.796875q-0.6875 -0.328125 -1.046875 -0.90625q-0.359375 -0.59375 -0.359375 -1.3125q0 -0.640625 0.296875 -1.1875q0.296875 -0.5625 0.8125 -0.921875q0.375 -0.28125 1.03125 -0.46875q0.671875 -0.203125 1.421875 -0.203125q1.140625 0 2.0 0.328125q0.859375 0.328125 1.265625 0.890625q0.421875 0.5625 0.578125 1.5l-1.609375 0.21875q-0.109375 -0.75 -0.640625 -1.171875q-0.515625 -0.421875 -1.46875 -0.421875q-1.140625 0 -1.625 0.375q-0.46875 0.375 -0.46875 0.875q0 0.3125 0.1875 0.578125q0.203125 0.265625 0.640625 0.4375q0.234375 0.09375 1.4375 0.421875q1.75 0.453125 2.4375 0.75q0.6875 0.296875 1.078125 0.859375q0.390625 0.5625 0.390625 1.40625q0 0.828125 -0.484375 1.546875q-0.46875 0.71875 -1.375 1.125q-0.90625 0.390625 -2.046875 0.390625q-1.875 0 -2.875 -0.78125q-0.984375 -0.78125 -1.25 -2.328125zm9.984375 -8.578125l0 -1.890625l1.640625 0l0 1.890625l-1.640625 0zm0 11.46875l0 -9.671875l1.640625 0l0 9.671875l-1.640625 0zm10.457336 -3.546875l1.609375 0.21875q-0.265625 1.65625 -1.359375 2.609375q-1.078125 0.9375 -2.671875 0.9375q-1.984375 0 -3.1875 -1.296875q-1.203125 -1.296875 -1.203125 -3.71875q0 -1.578125 0.515625 -2.75q0.515625 -1.171875 1.578125 -1.75q1.0625 -0.59375 2.3125 -0.59375q1.578125 0 2.578125 0.796875q1.0 0.796875 1.28125 2.265625l-1.59375 0.234375q-0.234375 -0.96875 -0.8125 -1.453125q-0.578125 -0.5 -1.390625 -0.5q-1.234375 0 -2.015625 0.890625q-0.78125 0.890625 -0.78125 2.8125q0 1.953125 0.75 2.84375q0.75 0.875 1.953125 0.875q0.96875 0 1.609375 -0.59375q0.65625 -0.59375 0.828125 -1.828125zm2.359375 0.65625l1.625 -0.25q0.125 0.96875 0.75 1.5q0.625 0.515625 1.75 0.515625q1.125 0 1.671875 -0.453125q0.546875 -0.46875 0.546875 -1.09375q0 -0.546875 -0.484375 -0.875q-0.328125 -0.21875 -1.671875 -0.546875q-1.8125 -0.46875 -2.515625 -0.796875q-0.6875 -0.328125 -1.046875 -0.90625q-0.359375 -0.59375 -0.359375 -1.3125q0 -0.640625 0.296875 -1.1875q0.296875 -0.5625 0.8125 -0.921875q0.375 -0.28125 1.03125 -0.46875q0.671875 -0.203125 1.421875 -0.203125q1.140625 0 2.0 0.328125q0.859375 0.328125 1.265625 0.890625q0.421875 0.5625 0.578125 1.5l-1.609375 0.21875q-0.109375 -0.75 -0.640625 -1.171875q-0.515625 -0.421875 -1.46875 -0.421875q-1.140625 0 -1.625 0.375q-0.46875 0.375 -0.46875 0.875q0 0.3125 0.1875 0.578125q0.203125 0.265625 0.640625 0.4375q0.234375 0.09375 1.4375 0.421875q1.75 0.453125 2.4375 0.75q0.6875 0.296875 1.078125 0.859375q0.390625 0.5625 0.390625 1.40625q0 0.828125 -0.484375 1.546875q-0.46875 0.71875 -1.375 1.125q-0.90625 0.390625 -2.046875 0.390625q-1.875 0 -2.875 -0.78125q-0.984375 -0.78125 -1.25 -2.328125zm10.21875 2.890625l0 -13.359375l9.65625 0l0 1.578125l-7.875 0l0 4.09375l7.375 0l0 1.5625l-7.375 0l0 4.546875l8.1875 0l0 1.578125l-9.96875 0zm12.2092285 0l0 -9.671875l1.46875 0l0 1.375q1.0625 -1.59375 3.078125 -1.59375q0.875 0 1.609375 0.3125q0.734375 0.3125 1.09375 0.828125q0.375 0.5 0.515625 1.203125q0.09375 0.453125 0.09375 1.59375l0 5.953125l-1.640625 0l0 -5.890625q0 -1.0 -0.203125 -1.484375q-0.1875 -0.5 -0.671875 -0.796875q-0.484375 -0.296875 -1.140625 -0.296875q-1.046875 0 -1.8125 0.671875q-0.75 0.65625 -0.75 2.515625l0 5.28125l-1.640625 0zm10.063171 0.796875l1.59375 0.234375q0.109375 0.75 0.5625 1.078125q0.609375 0.453125 1.671875 0.453125q1.140625 0 1.75 -0.453125q0.625 -0.453125 0.84375 -1.265625q0.125 -0.5 0.109375 -2.109375q-1.0625 1.265625 -2.671875 1.265625q-2.0 0 -3.09375 -1.4375q-1.09375 -1.4375 -1.09375 -3.453125q0 -1.390625 0.5 -2.5625q0.515625 -1.171875 1.453125 -1.796875q0.953125 -0.640625 2.25 -0.640625q1.703125 0 2.8125 1.375l0 -1.15625l1.515625 0l0 8.359375q0 2.265625 -0.46875 3.203125q-0.453125 0.9375 -1.453125 1.484375q-0.984375 0.546875 -2.453125 0.546875q-1.71875 0 -2.796875 -0.78125q-1.0625 -0.765625 -1.03125 -2.34375zm1.359375 -5.8125q0 1.90625 0.75 2.78125q0.765625 0.875 1.90625 0.875q1.125 0 1.890625 -0.859375q0.765625 -0.875 0.765625 -2.734375q0 -1.78125 -0.796875 -2.671875q-0.78125 -0.90625 -1.890625 -0.90625q-1.09375 0 -1.859375 0.890625q-0.765625 0.875 -0.765625 2.625zm9.328857 -6.453125l0 -1.890625l1.640625 0l0 1.890625l-1.640625 0zm0 11.46875l0 -9.671875l1.640625 0l0 9.671875l-1.640625 0zm4.1448364 0l0 -9.671875l1.46875 0l0 1.375q1.0625 -1.59375 3.078125 -1.59375q0.875 0 1.609375 0.3125q0.734375 0.3125 1.09375 0.828125q0.375 0.5 0.515625 1.203125q0.09375 0.453125 0.09375 1.59375l0 5.953125l-1.640625 0l0 -5.890625q0 -1.0 -0.203125 -1.484375q-0.1875 -0.5 -0.671875 -0.796875q-0.484375 -0.296875 -1.140625 -0.296875q-1.046875 0 -1.8125 0.671875q-0.75 0.65625 -0.75 2.515625l0 5.28125l-1.640625 0zm17.000732 -3.109375l1.6875 0.203125q-0.40625 1.484375 -1.484375 2.3125q-1.078125 0.8125 -2.765625 0.8125q-2.125 0 -3.375 -1.296875q-1.234375 -1.3125 -1.234375 -3.671875q0 -2.453125 1.25 -3.796875q1.265625 -1.34375 3.265625 -1.34375q1.9375 0 3.15625 1.328125q1.234375 1.3125 1.234375 3.703125q0 0.15625 0 0.4375l-7.21875 0q0.09375 1.59375 0.90625 2.453125q0.8125 0.84375 2.015625 0.84375q0.90625 0 1.546875 -0.46875q0.640625 -0.484375 1.015625 -1.515625zm-5.390625 -2.65625l5.40625 0q-0.109375 -1.21875 -0.625 -1.828125q-0.78125 -0.953125 -2.03125 -0.953125q-1.125 0 -1.90625 0.765625q-0.765625 0.75 -0.84375 2.015625zm9.594421 5.765625l0 -1.875l1.875 0l0 1.875l-1.875 0zm10.99585 0l0 -1.21875q-0.90625 1.4375 -2.703125 1.4375q-1.15625 0 -2.125 -0.640625q-0.96875 -0.640625 -1.5 -1.78125q-0.53125 -1.140625 -0.53125 -2.625q0 -1.453125 0.484375 -2.625q0.484375 -1.1875 1.4375 -1.8125q0.96875 -0.625 2.171875 -0.625q0.875 0 1.546875 0.375q0.6875 0.359375 1.109375 0.953125l0 -4.796875l1.640625 0l0 13.359375l-1.53125 0zm-5.171875 -4.828125q0 1.859375 0.78125 2.78125q0.78125 0.921875 1.84375 0.921875q1.078125 0 1.828125 -0.875q0.75 -0.890625 0.75 -2.6875q0 -1.984375 -0.765625 -2.90625q-0.765625 -0.9375 -1.890625 -0.9375q-1.078125 0 -1.8125 0.890625q-0.734375 0.890625 -0.734375 2.8125zm9.235046 4.828125l0 -13.359375l1.640625 0l0 13.359375l-1.640625 0zm4.1448364 0l0 -13.359375l1.640625 0l0 13.359375l-1.640625 0z" fill-rule="nonzero"/><path fill="#b6d7a8" d="m856.00525 308.91602l0 0c0 30.29303 -24.557373 54.850403 -54.850403 54.850403c-30.29303 0 -54.850403 -24.557373 -54.850403 -54.850403c0 -30.29303 24.557373 -54.850403 54.850403 -54.850403l0 54.850403z" fill-rule="evenodd"/><path stroke="#595959" stroke-width="1.0" stroke-linejoin="round" stroke-linecap="butt" d="m856.00525 308.91602l0 0c0 30.29303 -24.557373 54.850403 -54.850403 54.850403c-30.29303 0 -54.850403 -24.557373 -54.850403 -54.850403c0 -30.29303 24.557373 -54.850403 54.850403 -54.850403l0 54.850403z" fill-rule="evenodd"/><path fill="#000000" fill-opacity="0.0" d="m700.00525 359.20734l202.2992 0l0 42.015747l-202.2992 0z" fill-rule="evenodd"/><path fill="#000000" d="m765.7809 386.12735l0 -13.359375l5.046875 0q1.328125 0 2.03125 0.125q0.96875 0.171875 1.640625 0.640625q0.671875 0.453125 1.078125 1.28125q0.40625 0.828125 0.40625 1.828125q0 1.703125 -1.09375 2.890625q-1.078125 1.171875 -3.921875 1.171875l-3.421875 0l0 5.421875l-1.765625 0zm1.765625 -7.0l3.453125 0q1.71875 0 2.4375 -0.640625q0.71875 -0.640625 0.71875 -1.796875q0 -0.84375 -0.421875 -1.4375q-0.421875 -0.59375 -1.125 -0.78125q-0.4375 -0.125 -1.640625 -0.125l-3.421875 0l0 4.78125zm16.787292 5.8125q-0.921875 0.765625 -1.765625 1.09375q-0.828125 0.3125 -1.796875 0.3125q-1.59375 0 -2.453125 -0.78125q-0.859375 -0.78125 -0.859375 -1.984375q0 -0.71875 0.328125 -1.296875q0.328125 -0.59375 0.84375 -0.9375q0.53125 -0.359375 1.1875 -0.546875q0.46875 -0.125 1.453125 -0.25q1.984375 -0.234375 2.921875 -0.5625q0.015625 -0.34375 0.015625 -0.421875q0 -1.0 -0.46875 -1.421875q-0.625 -0.546875 -1.875 -0.546875q-1.15625 0 -1.703125 0.40625q-0.546875 0.40625 -0.8125 1.421875l-1.609375 -0.21875q0.21875 -1.015625 0.71875 -1.640625q0.5 -0.640625 1.453125 -0.984375q0.953125 -0.34375 2.1875 -0.34375q1.25 0 2.015625 0.296875q0.78125 0.28125 1.140625 0.734375q0.375 0.4375 0.515625 1.109375q0.078125 0.421875 0.078125 1.515625l0 2.1875q0 2.28125 0.109375 2.890625q0.109375 0.59375 0.40625 1.15625l-1.703125 0q-0.265625 -0.515625 -0.328125 -1.1875zm-0.140625 -3.671875q-0.890625 0.375 -2.671875 0.625q-1.015625 0.140625 -1.4375 0.328125q-0.421875 0.1875 -0.65625 0.53125q-0.21875 0.34375 -0.21875 0.78125q0 0.65625 0.5 1.09375q0.5 0.4375 1.453125 0.4375q0.9375 0 1.671875 -0.40625q0.75 -0.421875 1.09375 -1.140625q0.265625 -0.5625 0.265625 -1.640625l0 -0.609375zm10.516357 1.3125l1.609375 0.21875q-0.265625 1.65625 -1.359375 2.609375q-1.078125 0.9375 -2.671875 0.9375q-1.984375 0 -3.1875 -1.296875q-1.203125 -1.296875 -1.203125 -3.71875q0 -1.578125 0.515625 -2.75q0.515625 -1.171875 1.578125 -1.75q1.0625 -0.59375 2.3125 -0.59375q1.578125 0 2.578125 0.796875q1.0 0.796875 1.28125 2.265625l-1.59375 0.234375q-0.234375 -0.96875 -0.8125 -1.453125q-0.578125 -0.5 -1.390625 -0.5q-1.234375 0 -2.015625 0.890625q-0.78125 0.890625 -0.78125 2.8125q0 1.953125 0.75 2.84375q0.75 0.875 1.953125 0.875q0.96875 0 1.609375 -0.59375q0.65625 -0.59375 0.828125 -1.828125zm8.355164 3.546875l0 -13.359375l2.65625 0l3.15625 9.453125q0.4375 1.328125 0.640625 1.984375q0.234375 -0.734375 0.703125 -2.140625l3.203125 -9.296875l2.375 0l0 13.359375l-1.703125 0l0 -11.171875l-3.875 11.171875l-1.59375 0l-3.859375 -11.375l0 11.375l-1.703125 0zm21.697083 -1.1875q-0.921875 0.765625 -1.765625 1.09375q-0.828125 0.3125 -1.796875 0.3125q-1.59375 0 -2.453125 -0.78125q-0.859375 -0.78125 -0.859375 -1.984375q0 -0.71875 0.328125 -1.296875q0.328125 -0.59375 0.84375 -0.9375q0.53125 -0.359375 1.1875 -0.546875q0.46875 -0.125 1.453125 -0.25q1.984375 -0.234375 2.921875 -0.5625q0.015625 -0.34375 0.015625 -0.421875q0 -1.0 -0.46875 -1.421875q-0.625 -0.546875 -1.875 -0.546875q-1.15625 0 -1.703125 0.40625q-0.546875 0.40625 -0.8125 1.421875l-1.609375 -0.21875q0.21875 -1.015625 0.71875 -1.640625q0.5 -0.640625 1.453125 -0.984375q0.953125 -0.34375 2.1875 -0.34375q1.25 0 2.015625 0.296875q0.78125 0.28125 1.140625 0.734375q0.375 0.4375 0.515625 1.109375q0.078125 0.421875 0.078125 1.515625l0 2.1875q0 2.28125 0.109375 2.890625q0.109375 0.59375 0.40625 1.15625l-1.703125 0q-0.265625 -0.515625 -0.328125 -1.1875zm-0.140625 -3.671875q-0.890625 0.375 -2.671875 0.625q-1.015625 0.140625 -1.4375 0.328125q-0.421875 0.1875 -0.65625 0.53125q-0.21875 0.34375 -0.21875 0.78125q0 0.65625 0.5 1.09375q0.5 0.4375 1.453125 0.4375q0.9375 0 1.671875 -0.40625q0.75 -0.421875 1.09375 -1.140625q0.265625 -0.5625 0.265625 -1.640625l0 -0.609375zm4.2038574 4.859375l0 -9.671875l1.46875 0l0 1.375q1.0625 -1.59375 3.078125 -1.59375q0.875 0 1.609375 0.3125q0.734375 0.3125 1.09375 0.828125q0.375 0.5 0.515625 1.203125q0.09375 0.453125 0.09375 1.59375l0 5.953125l-1.640625 0l0 -5.890625q0 -1.0 -0.203125 -1.484375q-0.1875 -0.5 -0.671875 -0.796875q-0.484375 -0.296875 -1.140625 -0.296875q-1.046875 0 -1.8125 0.671875q-0.75 0.65625 -0.75 2.515625l0 5.28125l-1.640625 0z" fill-rule="nonzero"/><path fill="#ead1dc" d="m741.731 143.58667l0 0c0 -30.293037 24.557373 -54.850395 54.850403 -54.850395c30.29303 0 54.850403 24.557358 54.850403 54.850395c0 30.29303 -24.557373 54.850388 -54.850403 54.850388c-30.29303 0 -54.850403 -24.557358 -54.850403 -54.850388z" fill-rule="evenodd"/><path fill="#bba7af" d="m773.2954 127.182335c0 -3.1555252 2.5580444 -5.713585 5.713562 -5.713585c3.1555176 0 5.713562 2.5580597 5.713562 5.713585c0 3.1555252 -2.5580444 5.713585 -5.713562 5.713585c-3.1555176 0 -5.713562 -2.5580597 -5.713562 -5.713585m35.144836 0c0 -3.1555252 2.5581055 -5.713585 5.713623 -5.713585c3.1555176 0 5.713562 2.5580597 5.713562 5.713585c0 3.1555252 -2.5580444 5.713585 -5.713562 5.713585c-3.1555176 0 -5.713623 -2.5580597 -5.713623 -5.713585" fill-rule="evenodd"/><path fill="#000000" fill-opacity="0.0" d="m766.8522 167.5073q29.729248 20.417511 59.3891 0" fill-rule="evenodd"/><path fill="#000000" fill-opacity="0.0" d="m741.731 143.58667l0 0c0 -30.293037 24.557373 -54.850395 54.850403 -54.850395c30.29303 0 54.850403 24.557358 54.850403 54.850395c0 30.29303 -24.557373 54.850388 -54.850403 54.850388c-30.29303 0 -54.850403 -24.557358 -54.850403 -54.850388z" fill-rule="evenodd"/><path stroke="#595959" stroke-width="1.0" stroke-linejoin="round" stroke-linecap="butt" d="m773.2954 127.182335c0 -3.1555252 2.5580444 -5.713585 5.713562 -5.713585c3.1555176 0 5.713562 2.5580597 5.713562 5.713585c0 3.1555252 -2.5580444 5.713585 -5.713562 5.713585c-3.1555176 0 -5.713562 -2.5580597 -5.713562 -5.713585m35.144836 0c0 -3.1555252 2.5581055 -5.713585 5.713623 -5.713585c3.1555176 0 5.713562 2.5580597 5.713562 5.713585c0 3.1555252 -2.5580444 5.713585 -5.713562 5.713585c-3.1555176 0 -5.713623 -2.5580597 -5.713623 -5.713585" fill-rule="evenodd"/><path stroke="#595959" stroke-width="1.0" stroke-linejoin="round" stroke-linecap="butt" d="m766.8522 167.5073q29.729248 20.417511 59.3891 0" fill-rule="evenodd"/><path stroke="#595959" stroke-width="1.0" stroke-linejoin="round" stroke-linecap="butt" d="m741.731 143.58667l0 0c0 -30.293037 24.557373 -54.850395 54.850403 -54.850395c30.29303 0 54.850403 24.557358 54.850403 54.850395c0 30.29303 -24.557373 54.850388 -54.850403 54.850388c-30.29303 0 -54.850403 -24.557358 -54.850403 -54.850388z" fill-rule="evenodd"/><path fill="#000000" fill-opacity="0.0" d="m696.5867 46.720524l209.13385 0l0 42.01575l-209.13385 0z" fill-rule="evenodd"/><path fill="#000000" d="m731.48987 69.34365l1.65625 -0.140625q0.125 1.0 0.546875 1.640625q0.4375 0.640625 1.34375 1.046875q0.921875 0.390625 2.0625 0.390625q1.0 0 1.78125 -0.296875q0.78125 -0.296875 1.15625 -0.8125q0.375 -0.53125 0.375 -1.15625q0 -0.625 -0.375 -1.09375q-0.359375 -0.46875 -1.1875 -0.796875q-0.546875 -0.203125 -2.390625 -0.640625q-1.828125 -0.453125 -2.5625 -0.84375q-0.96875 -0.5 -1.4375 -1.234375q-0.46875 -0.75 -0.46875 -1.6718788q0 -1.0 0.578125 -1.875q0.578125 -0.890625 1.671875 -1.34375q1.109375 -0.453125 2.453125 -0.453125q1.484375 0 2.609375 0.484375q1.140625 0.46875 1.75 1.40625q0.609375 0.921875 0.65625 2.0937538l-1.6875 0.125q-0.140625 -1.2656288 -0.9375 -1.9062538q-0.78125 -0.65625 -2.3125 -0.65625q-1.609375 0 -2.34375 0.59375q-0.734375 0.59375 -0.734375 1.421875q0 0.7187538 0.53125 1.1718788q0.5 0.46875 2.65625 0.96875q2.15625 0.484375 2.953125 0.84375q1.171875 0.53125 1.71875 1.359375q0.5625 0.828125 0.5625 1.90625q0 1.0625 -0.609375 2.015625q-0.609375 0.9375 -1.75 1.46875q-1.140625 0.515625 -2.578125 0.515625q-1.8125 0 -3.046875 -0.53125q-1.21875 -0.53125 -1.921875 -1.59375q-0.6875 -1.0625 -0.71875 -2.40625zm19.162292 4.296875l0 -1.421875q-1.125 1.640625 -3.0625 1.640625q-0.859375 0 -1.609375 -0.328125q-0.734375 -0.328125 -1.09375 -0.828125q-0.359375 -0.5 -0.5 -1.21875q-0.109375 -0.46875 -0.109375 -1.53125l0 -5.984379l1.640625 0l0 5.359379q0 1.28125 0.109375 1.734375q0.15625 0.640625 0.65625 1.015625q0.5 0.375 1.234375 0.375q0.734375 0 1.375 -0.375q0.65625 -0.390625 0.921875 -1.03125q0.265625 -0.65625 0.265625 -1.890625l0 -5.187504l1.640625 0l0 9.671879l-1.46875 0zm4.0476074 3.703125l0 -13.375004l1.484375 0l0 1.2500038q0.53125 -0.734375 1.1875 -1.09375q0.671875 -0.3750038 1.625 -0.3750038q1.234375 0 2.171875 0.6406288q0.953125 0.625 1.4375 1.796875q0.484375 1.15625 0.484375 2.546875q0 1.484375 -0.53125 2.671875q-0.53125 1.1875 -1.546875 1.828125q-1.015625 0.625 -2.140625 0.625q-0.8125 0 -1.46875 -0.34375q-0.65625 -0.34375 -1.0625 -0.875l0 4.703125l-1.640625 0zm1.484375 -8.484375q0 1.859375 0.75 2.765625q0.765625 0.890625 1.828125 0.890625q1.09375 0 1.875 -0.921875q0.78125 -0.9375 0.78125 -2.875q0 -1.84375 -0.765625 -2.765625q-0.75 -0.921875 -1.8125 -0.921875q-1.046875 0 -1.859375 0.984375q-0.796875 0.96875 -0.796875 2.84375zm15.516357 1.671875l1.6875 0.203125q-0.40625 1.484375 -1.484375 2.3125q-1.078125 0.8125 -2.765625 0.8125q-2.125 0 -3.375 -1.296875q-1.234375 -1.3125 -1.234375 -3.671875q0 -2.453125 1.25 -3.796875q1.265625 -1.3437538 3.265625 -1.3437538q1.9375 0 3.15625 1.3281288q1.234375 1.3125 1.234375 3.703125q0 0.15625 0 0.4375l-7.21875 0q0.09375 1.59375 0.90625 2.453125q0.8125 0.84375 2.015625 0.84375q0.90625 0 1.546875 -0.46875q0.640625 -0.484375 1.015625 -1.515625zm-5.390625 -2.65625l5.40625 0q-0.109375 -1.21875 -0.625 -1.828125q-0.78125 -0.953125 -2.03125 -0.953125q-1.125 0 -1.90625 0.765625q-0.765625 0.75 -0.84375 2.015625zm9.125671 5.765625l0 -9.671879l1.46875 0l0 1.4687538q0.5625 -1.03125 1.03125 -1.359375q0.484375 -0.3281288 1.0625 -0.3281288q0.828125 0 1.6875 0.5312538l-0.5625 1.515625q-0.609375 -0.359375 -1.203125 -0.359375q-0.546875 0 -0.96875 0.328125q-0.421875 0.328125 -0.609375 0.890625q-0.28125 0.875 -0.28125 1.921875l0 5.0625l-1.625 0zm11.567871 0l0 -13.359379l2.65625 0l3.15625 9.453129q0.4375 1.328125 0.640625 1.984375q0.234375 -0.734375 0.703125 -2.140625l3.203125 -9.296879l2.375 0l0 13.359379l-1.703125 0l0 -11.171879l-3.875 11.171879l-1.59375 0l-3.859375 -11.375004l0 11.375004l-1.703125 0zm21.697083 -1.1875q-0.921875 0.765625 -1.765625 1.09375q-0.828125 0.3125 -1.796875 0.3125q-1.59375 0 -2.453125 -0.78125q-0.859375 -0.78125 -0.859375 -1.984375q0 -0.71875 0.328125 -1.296875q0.328125 -0.59375 0.84375 -0.9375q0.53125 -0.359375 1.1875 -0.546875q0.46875 -0.125 1.453125 -0.25q1.984375 -0.234375 2.921875 -0.5625q0.015625 -0.34375 0.015625 -0.421875q0 -1.0 -0.46875 -1.421875q-0.625 -0.546875 -1.875 -0.546875q-1.15625 0 -1.703125 0.40625q-0.546875 0.40625 -0.8125 1.421875l-1.609375 -0.21875q0.21875 -1.015625 0.71875 -1.640625q0.5 -0.640625 1.453125 -0.984375q0.953125 -0.3437538 2.1875 -0.3437538q1.25 0 2.015625 0.2968788q0.78125 0.28125 1.140625 0.734375q0.375 0.4375 0.515625 1.109375q0.078125 0.421875 0.078125 1.515625l0 2.1875q0 2.28125 0.109375 2.890625q0.109375 0.59375 0.40625 1.15625l-1.703125 0q-0.265625 -0.515625 -0.328125 -1.1875zm-0.140625 -3.671875q-0.890625 0.375 -2.671875 0.625q-1.015625 0.140625 -1.4375 0.328125q-0.421875 0.1875 -0.65625 0.53125q-0.21875 0.34375 -0.21875 0.78125q0 0.65625 0.5 1.09375q0.5 0.4375 1.453125 0.4375q0.9375 0 1.671875 -0.40625q0.75 -0.421875 1.09375 -1.140625q0.265625 -0.5625 0.265625 -1.640625l0 -0.609375zm4.1881714 4.859375l0 -9.671879l1.46875 0l0 1.4687538q0.5625 -1.03125 1.03125 -1.359375q0.484375 -0.3281288 1.0625 -0.3281288q0.828125 0 1.6875 0.5312538l-0.5625 1.515625q-0.609375 -0.359375 -1.203125 -0.359375q-0.546875 0 -0.96875 0.328125q-0.421875 0.328125 -0.609375 0.890625q-0.28125 0.875 -0.28125 1.921875l0 5.0625l-1.625 0zm6.2283325 -11.468754l0 -1.890625l1.640625 0l0 1.890625l-1.640625 0zm0 11.468754l0 -9.671879l1.640625 0l0 9.671879l-1.640625 0zm3.5354614 -4.84375q0 -2.6875 1.484375 -3.96875q1.249939 -1.0781288 3.046814 -1.0781288q2.0 0 3.265625 1.3125038q1.265625 1.296875 1.265625 3.609375q0 1.859375 -0.5625 2.9375q-0.5625 1.0625 -1.640625 1.65625q-1.0625 0.59375 -2.328125 0.59375q-2.03125 0 -3.281189 -1.296875q-1.25 -1.3125 -1.25 -3.765625zm1.6875 0q0 1.859375 0.79681396 2.796875q0.8125 0.921875 2.046875 0.921875q1.21875 0 2.03125 -0.921875q0.8125 -0.9375 0.8125 -2.84375q0 -1.796875 -0.8125 -2.71875q-0.8125 -0.921875 -2.03125 -0.921875q-1.234375 0 -2.046875 0.921875q-0.79681396 0.90625 -0.79681396 2.765625zm14.605835 4.84375l0 -13.359379l1.78125 0l0 6.625004l6.625 -6.625004l2.390625 0l-5.59375 5.421879l5.84375 7.9375l-2.328125 0l-4.765625 -6.765625l-2.171875 2.140625l0 4.625l-1.78125 0zm18.631104 -1.1875q-0.921875 0.765625 -1.765625 1.09375q-0.828125 0.3125 -1.796875 0.3125q-1.59375 0 -2.453125 -0.78125q-0.859375 -0.78125 -0.859375 -1.984375q0 -0.71875 0.328125 -1.296875q0.328125 -0.59375 0.84375 -0.9375q0.53125 -0.359375 1.1875 -0.546875q0.46875 -0.125 1.453125 -0.25q1.984375 -0.234375 2.921875 -0.5625q0.015625 -0.34375 0.015625 -0.421875q0 -1.0 -0.46875 -1.421875q-0.625 -0.546875 -1.875 -0.546875q-1.15625 0 -1.703125 0.40625q-0.546875 0.40625 -0.8125 1.421875l-1.609375 -0.21875q0.21875 -1.015625 0.71875 -1.640625q0.5 -0.640625 1.453125 -0.984375q0.953125 -0.3437538 2.1875 -0.3437538q1.25 0 2.015625 0.2968788q0.78125 0.28125 1.140625 0.734375q0.375 0.4375 0.515625 1.109375q0.078125 0.421875 0.078125 1.515625l0 2.1875q0 2.28125 0.109375 2.890625q0.109375 0.59375 0.40625 1.15625l-1.703125 0q-0.265625 -0.515625 -0.328125 -1.1875zm-0.140625 -3.671875q-0.890625 0.375 -2.671875 0.625q-1.015625 0.140625 -1.4375 0.328125q-0.421875 0.1875 -0.65625 0.53125q-0.21875 0.34375 -0.21875 0.78125q0 0.65625 0.5 1.09375q0.5 0.4375 1.453125 0.4375q0.9375 0 1.671875 -0.40625q0.75 -0.421875 1.09375 -1.140625q0.265625 -0.5625 0.265625 -1.640625l0 -0.609375zm4.1882324 4.859375l0 -9.671879l1.46875 0l0 1.4687538q0.5625 -1.03125 1.03125 -1.359375q0.484375 -0.3281288 1.0625 -0.3281288q0.828125 0 1.6875 0.5312538l-0.5625 1.515625q-0.609375 -0.359375 -1.203125 -0.359375q-0.546875 0 -0.96875 0.328125q-0.421875 0.328125 -0.609375 0.890625q-0.28125 0.875 -0.28125 1.921875l0 5.0625l-1.625 0zm9.8063965 -1.46875l0.234375 1.453125q-0.6875 0.140625 -1.234375 0.140625q-0.890625 0 -1.390625 -0.28125q-0.484375 -0.28125 -0.6875 -0.734375q-0.203125 -0.46875 -0.203125 -1.9375l0 -5.578125l-1.203125 0l0 -1.2656288l1.203125 0l0 -2.390625l1.625 -0.984375l0 3.375l1.65625 0l0 1.2656288l-1.65625 0l0 5.671875q0 0.6875 0.078125 0.890625q0.09375 0.203125 0.28125 0.328125q0.203125 0.109375 0.578125 0.109375q0.265625 0 0.71875 -0.0625z" fill-rule="nonzero"/><g filter="url(#shadowFilter-p7.1)"><use xlink:href="#p7.1" transform="matrix(1.0 0.0 0.0 1.0 0.0 2.0)"/></g><defs><filter id="shadowFilter-p7.1" filterUnits="userSpaceOnUse"><feGaussianBlur in="SourceAlpha" stdDeviation="2.0" result="blur"/><feComponentTransfer in="blur" color-interpolation-filters="sRGB"><feFuncR type="linear" slope="0" intercept="0.0"/><feFuncG type="linear" slope="0" intercept="0.0"/><feFuncB type="linear" slope="0" intercept="0.0"/><feFuncA type="linear" slope="0.49803922" intercept="0"/></feComponentTransfer></filter></defs><g id="p7.1"><path fill="#000000" fill-opacity="0.0" d="m152.0 173.71391l469.7008 0l0 168.063l-469.7008 0z" fill-rule="evenodd"/><path fill="#000000" d="m163.25 212.15392l0 -21.9375l8.234375 0q2.515625 0 4.03125 0.671875q1.515625 0.65625 2.375 2.046875q0.859375 1.375 0.859375 2.890625q0 1.40625 -0.765625 2.65625q-0.765625 1.234375 -2.296875 2.0q1.984375 0.578125 3.046875 1.984375q1.078125 1.40625 1.078125 3.328125q0 1.546875 -0.65625 2.875q-0.640625 1.3125 -1.609375 2.03125q-0.953125 0.71875 -2.40625 1.09375q-1.4375 0.359375 -3.53125 0.359375l-8.359375 0zm2.90625 -12.71875l4.734375 0q1.9375 0 2.765625 -0.265625q1.109375 -0.328125 1.671875 -1.078125q0.5625 -0.765625 0.5625 -1.921875q0 -1.09375 -0.53125 -1.921875q-0.515625 -0.828125 -1.484375 -1.140625q-0.96875 -0.3125 -3.34375 -0.3125l-4.375 0l0 6.640625zm0 10.125l5.453125 0q1.40625 0 1.984375 -0.09375q1.0 -0.1875 1.671875 -0.609375q0.671875 -0.421875 1.109375 -1.21875q0.4375 -0.796875 0.4375 -1.84375q0 -1.234375 -0.640625 -2.140625q-0.625 -0.90625 -1.75 -1.265625q-1.109375 -0.375 -3.203125 -0.375l-5.0625 0l0 7.546875zm16.306854 -5.359375q0 -4.40625 2.453125 -6.53125q2.0625 -1.765625 5.0 -1.765625q3.28125 0 5.359375 2.15625q2.078125 2.140625 2.078125 5.921875q0 3.0625 -0.921875 4.828125q-0.90625 1.75 -2.671875 2.734375q-1.765625 0.96875 -3.84375 0.96875q-3.328125 0 -5.390625 -2.140625q-2.0625 -2.140625 -2.0625 -6.171875zm2.765625 0q0 3.0625 1.328125 4.578125q1.34375 1.515625 3.359375 1.515625q2.015625 0 3.34375 -1.515625q1.328125 -1.53125 1.328125 -4.65625q0 -2.953125 -1.34375 -4.46875q-1.328125 -1.53125 -3.328125 -1.53125q-2.015625 0 -3.359375 1.515625q-1.328125 1.515625 -1.328125 4.5625zm21.174545 5.546875l0.390625 2.375q-1.140625 0.234375 -2.046875 0.234375q-1.453125 0 -2.265625 -0.453125q-0.8125 -0.46875 -1.140625 -1.21875q-0.328125 -0.765625 -0.328125 -3.1875l0 -9.140625l-1.984375 0l0 -2.09375l1.984375 0l0 -3.9375l2.671875 -1.625l0 5.5625l2.71875 0l0 2.09375l-2.71875 0l0 9.296875q0 1.140625 0.140625 1.484375q0.15625 0.328125 0.46875 0.515625q0.328125 0.1875 0.921875 0.1875q0.453125 0 1.1875 -0.09375zm2.6266632 2.40625l0 -21.9375l2.703125 0l0 7.859375q1.875 -2.171875 4.75 -2.171875q1.765625 0 3.0625 0.703125q1.3125 0.6875 1.875 1.921875q0.5625 1.21875 0.5625 3.546875l0 10.078125l-2.6875 0l0 -10.078125q0 -2.015625 -0.890625 -2.9375q-0.875 -0.921875 -2.46875 -0.921875q-1.203125 0 -2.265625 0.625q-1.046875 0.625 -1.5 1.6875q-0.4375 1.0625 -0.4375 2.921875l0 8.703125l-2.703125 0zm24.926208 -7.046875l2.734375 -0.25q0.203125 1.65625 0.90625 2.71875q0.71875 1.046875 2.21875 1.703125q1.5 0.640625 3.359375 0.640625q1.671875 0 2.9375 -0.484375q1.265625 -0.5 1.890625 -1.359375q0.625 -0.859375 0.625 -1.875q0 -1.03125 -0.609375 -1.796875q-0.59375 -0.78125 -1.96875 -1.3125q-0.875 -0.34375 -3.90625 -1.0625q-3.015625 -0.734375 -4.234375 -1.375q-1.578125 -0.8125 -2.34375 -2.03125q-0.765625 -1.234375 -0.765625 -2.734375q0 -1.671875 0.9375 -3.109375q0.9375 -1.453125 2.75 -2.1875q1.8125 -0.75 4.03125 -0.75q2.4375 0 4.296875 0.78125q1.875 0.78125 2.875 2.3125q1.0 1.53125 1.078125 3.453125l-2.78125 0.21875q-0.234375 -2.09375 -1.53125 -3.15625q-1.28125 -1.0625 -3.8125 -1.0625q-2.640625 0 -3.84375 0.96875q-1.203125 0.96875 -1.203125 2.328125q0 1.1875 0.859375 1.953125q0.828125 0.765625 4.359375 1.5625q3.546875 0.796875 4.875 1.390625q1.90625 0.890625 2.8125 2.25q0.921875 1.34375 0.921875 3.109375q0 1.75 -1.0 3.3125q-1.0 1.546875 -2.890625 2.40625q-1.875 0.859375 -4.21875 0.859375q-2.984375 0 -5.0 -0.859375q-2.0 -0.875 -3.15625 -2.609375q-1.140625 -1.75 -1.203125 -3.953125zm31.50998 7.046875l0 -2.328125q-1.859375 2.6875 -5.046875 2.6875q-1.40625 0 -2.625 -0.53125q-1.21875 -0.546875 -1.8125 -1.359375q-0.59375 -0.8125 -0.828125 -2.0q-0.171875 -0.796875 -0.171875 -2.515625l0 -9.84375l2.703125 0l0 8.8125q0 2.109375 0.15625 2.84375q0.265625 1.0625 1.078125 1.671875q0.828125 0.609375 2.046875 0.609375q1.203125 0 2.265625 -0.625q1.0625 -0.625 1.5 -1.6875q0.453125 -1.078125 0.453125 -3.109375l0 -8.515625l2.6875 0l0 15.890625l-2.40625 0zm6.6276855 6.09375l0 -21.984375l2.453125 0l0 2.0625q0.875 -1.21875 1.96875 -1.8125q1.09375 -0.609375 2.65625 -0.609375q2.03125 0 3.578125 1.046875q1.5625 1.046875 2.359375 2.953125q0.796875 1.90625 0.796875 4.1875q0 2.4375 -0.875 4.390625q-0.875 1.953125 -2.546875 3.0q-1.671875 1.03125 -3.515625 1.03125q-1.34375 0 -2.421875 -0.5625q-1.0625 -0.578125 -1.75 -1.4375l0 7.734375l-2.703125 0zm2.4375 -13.953125q0 3.0625 1.25 4.53125q1.25 1.46875 3.015625 1.46875q1.796875 0 3.0625 -1.515625q1.28125 -1.515625 1.28125 -4.703125q0 -3.046875 -1.25 -4.546875q-1.25 -1.515625 -2.984375 -1.515625q-1.71875 0 -3.046875 1.609375q-1.328125 1.609375 -1.328125 4.671875zm25.502655 2.734375l2.78125 0.34375q-0.65625 2.453125 -2.4375 3.796875q-1.78125 1.34375 -4.546875 1.34375q-3.5 0 -5.546875 -2.140625q-2.03125 -2.15625 -2.03125 -6.03125q0 -4.015625 2.0625 -6.21875q2.0625 -2.21875 5.359375 -2.21875q3.1875 0 5.203125 2.171875q2.03125 2.15625 2.03125 6.09375q0 0.25 -0.015625 0.71875l-11.859375 0q0.15625 2.625 1.484375 4.015625q1.328125 1.390625 3.328125 1.390625q1.46875 0 2.515625 -0.765625q1.0625 -0.78125 1.671875 -2.5zm-8.84375 -4.34375l8.875 0q-0.1875 -2.015625 -1.015625 -3.015625q-1.296875 -1.5625 -3.34375 -1.5625q-1.859375 0 -3.125 1.25q-1.265625 1.234375 -1.390625 3.328125zm14.971405 9.46875l0 -15.890625l2.4375 0l0 2.40625q0.921875 -1.6875 1.703125 -2.21875q0.796875 -0.546875 1.734375 -0.546875q1.359375 0 2.765625 0.859375l-0.921875 2.5q-0.984375 -0.578125 -1.984375 -0.578125q-0.875 0 -1.578125 0.53125q-0.703125 0.53125 -1.0 1.46875q-0.453125 1.4375 -0.453125 3.140625l0 8.328125l-2.703125 0zm19.02295 0l0 -21.9375l4.359375 0l5.203125 15.53125q0.71875 2.171875 1.046875 3.25q0.375 -1.203125 1.171875 -3.515625l5.25 -15.265625l3.90625 0l0 21.9375l-2.796875 0l0 -18.359375l-6.375 18.359375l-2.625 0l-6.34375 -18.6875l0 18.6875l-2.796875 0zm35.64627 -1.953125q-1.5 1.265625 -2.890625 1.796875q-1.375 0.515625 -2.953125 0.515625q-2.625 0 -4.03125 -1.28125q-1.40625 -1.28125 -1.40625 -3.265625q0 -1.171875 0.53125 -2.140625q0.53125 -0.96875 1.390625 -1.546875q0.859375 -0.578125 1.9375 -0.875q0.796875 -0.21875 2.390625 -0.40625q3.265625 -0.390625 4.8125 -0.9375q0.015625 -0.546875 0.015625 -0.703125q0 -1.640625 -0.765625 -2.3125q-1.03125 -0.921875 -3.0625 -0.921875q-1.90625 0 -2.8125 0.671875q-0.90625 0.671875 -1.34375 2.359375l-2.625 -0.359375q0.359375 -1.6875 1.171875 -2.734375q0.828125 -1.046875 2.375 -1.59375q1.5625 -0.5625 3.609375 -0.5625q2.046875 0 3.3125 0.484375q1.28125 0.46875 1.875 1.203125q0.59375 0.71875 0.84375 1.828125q0.125 0.6875 0.125 2.484375l0 3.59375q0 3.75 0.171875 4.75q0.171875 1.0 0.6875 1.90625l-2.8125 0q-0.421875 -0.84375 -0.546875 -1.953125zm-0.21875 -6.03125q-1.46875 0.609375 -4.40625 1.03125q-1.65625 0.234375 -2.34375 0.53125q-0.6875 0.296875 -1.0625 0.875q-0.375 0.578125 -0.375 1.28125q0 1.078125 0.8125 1.796875q0.8125 0.71875 2.390625 0.71875q1.546875 0 2.765625 -0.671875q1.21875 -0.6875 1.78125 -1.875q0.4375 -0.90625 0.4375 -2.6875l0 -1.0zm6.86203 7.984375l0 -15.890625l2.4375 0l0 2.40625q0.921875 -1.6875 1.703125 -2.21875q0.796875 -0.546875 1.734375 -0.546875q1.359375 0 2.765625 0.859375l-0.921875 2.5q-0.984375 -0.578125 -1.984375 -0.578125q-0.875 0 -1.578125 0.53125q-0.703125 0.53125 -1.0 1.46875q-0.453125 1.4375 -0.453125 3.140625l0 8.328125l-2.703125 0zm10.255676 -18.84375l0 -3.09375l2.703125 0l0 3.09375l-2.703125 0zm0 18.84375l0 -15.890625l2.703125 0l0 15.890625l-2.703125 0zm5.7951965 -7.953125q0 -4.40625 2.453125 -6.53125q2.0625 -1.765625 5.0 -1.765625q3.28125 0 5.359375 2.15625q2.078125 2.140625 2.078125 5.921875q0 3.0625 -0.921875 4.828125q-0.90625 1.75 -2.671875 2.734375q-1.765625 0.96875 -3.84375 0.96875q-3.328125 0 -5.390625 -2.140625q-2.0625 -2.140625 -2.0625 -6.171875zm2.765625 0q0 3.0625 1.328125 4.578125q1.34375 1.515625 3.359375 1.515625q2.015625 0 3.34375 -1.515625q1.328125 -1.53125 1.328125 -4.65625q0 -2.953125 -1.34375 -4.46875q-1.328125 -1.53125 -3.328125 -1.53125q-2.015625 0 -3.359375 1.515625q-1.328125 1.515625 -1.328125 4.5625zm34.17621 6.0q-1.5 1.265625 -2.890625 1.796875q-1.375 0.515625 -2.953125 0.515625q-2.625 0 -4.03125 -1.28125q-1.40625 -1.28125 -1.40625 -3.265625q0 -1.171875 0.53125 -2.140625q0.53125 -0.96875 1.390625 -1.546875q0.859375 -0.578125 1.9375 -0.875q0.796875 -0.21875 2.390625 -0.40625q3.265625 -0.390625 4.8125 -0.9375q0.015625 -0.546875 0.015625 -0.703125q0 -1.640625 -0.765625 -2.3125q-1.03125 -0.921875 -3.0625 -0.921875q-1.90625 0 -2.8125 0.671875q-0.90625 0.671875 -1.34375 2.359375l-2.625 -0.359375q0.359375 -1.6875 1.171875 -2.734375q0.828125 -1.046875 2.375 -1.59375q1.5625 -0.5625 3.609375 -0.5625q2.046875 0 3.3125 0.484375q1.28125 0.46875 1.875 1.203125q0.59375 0.71875 0.84375 1.828125q0.125 0.6875 0.125 2.484375l0 3.59375q0 3.75 0.171875 4.75q0.171875 1.0 0.6875 1.90625l-2.8125 0q-0.421875 -0.84375 -0.546875 -1.953125zm-0.21875 -6.03125q-1.46875 0.609375 -4.40625 1.03125q-1.65625 0.234375 -2.34375 0.53125q-0.6875 0.296875 -1.0625 0.875q-0.375 0.578125 -0.375 1.28125q0 1.078125 0.8125 1.796875q0.8125 0.71875 2.390625 0.71875q1.546875 0 2.765625 -0.671875q1.21875 -0.6875 1.78125 -1.875q0.4375 -0.90625 0.4375 -2.6875l0 -1.0zm6.89328 7.984375l0 -15.890625l2.4375 0l0 2.25q1.75 -2.609375 5.046875 -2.609375q1.4375 0 2.640625 0.515625q1.21875 0.515625 1.8125 1.359375q0.59375 0.828125 0.84375 1.984375q0.140625 0.75 0.140625 2.609375l0 9.78125l-2.6875 0l0 -9.671875q0 -1.640625 -0.328125 -2.453125q-0.3125 -0.828125 -1.109375 -1.3125q-0.796875 -0.484375 -1.875 -0.484375q-1.71875 0 -2.96875 1.09375q-1.25 1.09375 -1.25 4.140625l0 8.6875l-2.703125 0zm27.36206 0l0 -2.0q-1.5 2.359375 -4.4375 2.359375q-1.90625 0 -3.5 -1.046875q-1.59375 -1.046875 -2.46875 -2.921875q-0.875 -1.890625 -0.875 -4.328125q0 -2.375 0.796875 -4.3125q0.796875 -1.9375 2.375 -2.96875q1.59375 -1.03125 3.546875 -1.03125q1.4375 0 2.5625 0.609375q1.125 0.59375 1.828125 1.5625l0 -7.859375l2.671875 0l0 21.9375l-2.5 0zm-8.515625 -7.9375q0 3.0625 1.28125 4.578125q1.296875 1.5 3.046875 1.5q1.765625 0 3.0 -1.4375q1.234375 -1.453125 1.234375 -4.40625q0 -3.265625 -1.265625 -4.796875q-1.25 -1.53125 -3.09375 -1.53125q-1.78125 0 -3.0 1.46875q-1.203125 1.46875 -1.203125 4.625zm24.113708 7.9375l0 -21.9375l8.28125 0q2.1875 0 3.34375 0.203125q1.609375 0.265625 2.703125 1.03125q1.09375 0.75 1.75 2.109375q0.671875 1.359375 0.671875 3.0q0 2.796875 -1.78125 4.734375q-1.78125 1.9375 -6.4375 1.9375l-5.625 0l0 8.921875l-2.90625 0zm2.90625 -11.515625l5.671875 0q2.8125 0 4.0 -1.046875q1.1875 -1.046875 1.1875 -2.9375q0 -1.390625 -0.703125 -2.359375q-0.6875 -0.984375 -1.828125 -1.296875q-0.734375 -0.203125 -2.71875 -0.203125l-5.609375 0l0 7.84375zm27.57248 9.5625q-1.5 1.265625 -2.890625 1.796875q-1.375 0.515625 -2.953125 0.515625q-2.625 0 -4.03125 -1.28125q-1.40625 -1.28125 -1.40625 -3.265625q0 -1.171875 0.53125 -2.140625q0.53125 -0.96875 1.390625 -1.546875q0.859375 -0.578125 1.9375 -0.875q0.796875 -0.21875 2.390625 -0.40625q3.265625 -0.390625 4.8125 -0.9375q0.015625 -0.546875 0.015625 -0.703125q0 -1.640625 -0.765625 -2.3125q-1.03125 -0.921875 -3.0625 -0.921875q-1.90625 0 -2.8125 0.671875q-0.90625 0.671875 -1.34375 2.359375l-2.625 -0.359375q0.359375 -1.6875 1.171875 -2.734375q0.828125 -1.046875 2.375 -1.59375q1.5625 -0.5625 3.609375 -0.5625q2.046875 0 3.3125 0.484375q1.28125 0.46875 1.875 1.203125q0.59375 0.71875 0.84375 1.828125q0.125 0.6875 0.125 2.484375l0 3.59375q0 3.75 0.171875 4.75q0.171875 1.0 0.6875 1.90625l-2.8125 0q-0.421875 -0.84375 -0.546875 -1.953125zm-0.21875 -6.03125q-1.46875 0.609375 -4.40625 1.03125q-1.65625 0.234375 -2.34375 0.53125q-0.6875 0.296875 -1.0625 0.875q-0.375 0.578125 -0.375 1.28125q0 1.078125 0.8125 1.796875q0.8125 0.71875 2.390625 0.71875q1.546875 0 2.765625 -0.671875q1.21875 -0.6875 1.78125 -1.875q0.4375 -0.90625 0.4375 -2.6875l0 -1.0zm17.26828 2.15625l2.65625 0.34375q-0.4375 2.75 -2.234375 4.296875q-1.78125 1.546875 -4.390625 1.546875q-3.25 0 -5.234375 -2.125q-1.984375 -2.140625 -1.984375 -6.125q0 -2.578125 0.84375 -4.5q0.859375 -1.9375 2.59375 -2.890625q1.75 -0.96875 3.796875 -0.96875q2.59375 0 4.234375 1.3125q1.65625 1.296875 2.125 3.703125l-2.625 0.40625q-0.375 -1.59375 -1.328125 -2.40625q-0.953125 -0.8125 -2.296875 -0.8125q-2.03125 0 -3.3125 1.46875q-1.265625 1.453125 -1.265625 4.609375q0 3.203125 1.21875 4.65625q1.234375 1.453125 3.203125 1.453125q1.59375 0 2.65625 -0.96875q1.0625 -0.96875 1.34375 -3.0zm13.736023 5.828125l0 -21.9375l4.359375 0l5.203125 15.53125q0.71875 2.171875 1.046875 3.25q0.375 -1.203125 1.171875 -3.515625l5.25 -15.265625l3.90625 0l0 21.9375l-2.796875 0l0 -18.359375l-6.375 18.359375l-2.625 0l-6.34375 -18.6875l0 18.6875l-2.796875 0zm35.6463 -1.953125q-1.5 1.265625 -2.890625 1.796875q-1.375 0.515625 -2.953125 0.515625q-2.625 0 -4.03125 -1.28125q-1.40625 -1.28125 -1.40625 -3.265625q0 -1.171875 0.53125 -2.140625q0.53125 -0.96875 1.390625 -1.546875q0.859375 -0.578125 1.9375 -0.875q0.796875 -0.21875 2.390625 -0.40625q3.265625 -0.390625 4.8125 -0.9375q0.015625 -0.546875 0.015625 -0.703125q0 -1.640625 -0.765625 -2.3125q-1.03125 -0.921875 -3.0625 -0.921875q-1.90625 0 -2.8125 0.671875q-0.90625 0.671875 -1.34375 2.359375l-2.625 -0.359375q0.359375 -1.6875 1.171875 -2.734375q0.828125 -1.046875 2.375 -1.59375q1.5625 -0.5625 3.609375 -0.5625q2.046875 0 3.3125 0.484375q1.28125 0.46875 1.875 1.203125q0.59375 0.71875 0.84375 1.828125q0.125 0.6875 0.125 2.484375l0 3.59375q0 3.75 0.171875 4.75q0.171875 1.0 0.6875 1.90625l-2.8125 0q-0.421875 -0.84375 -0.546875 -1.953125zm-0.21875 -6.03125q-1.46875 0.609375 -4.40625 1.03125q-1.65625 0.234375 -2.34375 0.53125q-0.6875 0.296875 -1.0625 0.875q-0.375 0.578125 -0.375 1.28125q0 1.078125 0.8125 1.796875q0.8125 0.71875 2.390625 0.71875q1.546875 0 2.765625 -0.671875q1.21875 -0.6875 1.78125 -1.875q0.4375 -0.90625 0.4375 -2.6875l0 -1.0zm6.8932495 7.984375l0 -15.890625l2.4375 0l0 2.25q1.75 -2.609375 5.046875 -2.609375q1.4375 0 2.640625 0.515625q1.21875 0.515625 1.8125 1.359375q0.59375 0.828125 0.84375 1.984375q0.140625 0.75 0.140625 2.609375l0 9.78125l-2.6875 0l0 -9.671875q0 -1.640625 -0.328125 -2.453125q-0.3125 -0.828125 -1.109375 -1.3125q-0.796875 -0.484375 -1.875 -0.484375q-1.71875 0 -2.96875 1.09375q-1.25 1.09375 -1.25 4.140625l0 8.6875l-2.703125 0z" fill-rule="nonzero"/><path fill="#000000" d="m173.39062 243.12578l2.65625 0.34375q-0.4375 2.75 -2.234375 4.296875q-1.78125 1.546875 -4.390625 1.546875q-3.25 0 -5.234375 -2.125q-1.984375 -2.140625 -1.984375 -6.125q0 -2.578125 0.84375 -4.5q0.859375 -1.9375 2.59375 -2.890625q1.75 -0.96875 3.796875 -0.96875q2.59375 0 4.234375 1.3125q1.65625 1.296875 2.125 3.703125l-2.625 0.40625q-0.375 -1.59375 -1.328125 -2.40625q-0.953125 -0.8125 -2.296875 -0.8125q-2.03125 0 -3.3125 1.46875q-1.265625 1.453125 -1.265625 4.609375q0 3.203125 1.21875 4.65625q1.234375 1.453125 3.203125 1.453125q1.59375 0 2.65625 -0.96875q1.0625 -0.96875 1.34375 -3.0zm15.328125 3.875q-1.5 1.265625 -2.890625 1.796875q-1.375 0.515625 -2.953125 0.515625q-2.625 0 -4.03125 -1.28125q-1.40625 -1.28125 -1.40625 -3.265625q0 -1.171875 0.53125 -2.140625q0.53125 -0.96875 1.390625 -1.546875q0.859375 -0.578125 1.9375 -0.875q0.796875 -0.21875 2.390625 -0.40625q3.265625 -0.390625 4.8125 -0.9375q0.015625 -0.546875 0.015625 -0.703125q0 -1.640625 -0.765625 -2.3125q-1.03125 -0.921875 -3.0625 -0.921875q-1.90625 0 -2.8125 0.671875q-0.90625 0.671875 -1.34375 2.359375l-2.625 -0.359375q0.359375 -1.6875 1.171875 -2.734375q0.828125 -1.046875 2.375 -1.59375q1.5625 -0.5625 3.609375 -0.5625q2.046875 0 3.3125 0.484375q1.28125 0.46875 1.875 1.203125q0.59375 0.71875 0.84375 1.828125q0.125 0.6875 0.125 2.484375l0 3.59375q0 3.75 0.171875 4.75q0.171875 1.0 0.6875 1.90625l-2.8125 0q-0.421875 -0.84375 -0.546875 -1.953125zm-0.21875 -6.03125q-1.46875 0.609375 -4.40625 1.03125q-1.65625 0.234375 -2.34375 0.53125q-0.6875 0.296875 -1.0625 0.875q-0.375 0.578125 -0.375 1.28125q0 1.078125 0.8125 1.796875q0.8125 0.71875 2.390625 0.71875q1.546875 0 2.765625 -0.671875q1.21875 -0.6875 1.78125 -1.875q0.4375 -0.90625 0.4375 -2.6875l0 -1.0zm6.8932953 7.984375l0 -15.890625l2.4375 0l0 2.25q1.75 -2.609375 5.046875 -2.609375q1.4375 0 2.640625 0.515625q1.21875 0.515625 1.8125 1.359375q0.59375 0.828125 0.84375 1.984375q0.140625 0.75 0.140625 2.609375l0 9.78125l-2.6875 0l0 -9.671875q0 -1.640625 -0.328125 -2.453125q-0.3125 -0.828125 -1.109375 -1.3125q-0.796875 -0.484375 -1.875 -0.484375q-1.71875 0 -2.96875 1.09375q-1.25 1.09375 -1.25 4.140625l0 8.6875l-2.703125 0zm24.488708 -4.75l2.671875 -0.421875q0.21875 1.609375 1.234375 2.46875q1.03125 0.84375 2.875 0.84375q1.859375 0 2.75 -0.75q0.90625 -0.765625 0.90625 -1.78125q0 -0.90625 -0.796875 -1.4375q-0.546875 -0.359375 -2.75 -0.90625q-2.96875 -0.75 -4.109375 -1.296875q-1.140625 -0.546875 -1.734375 -1.515625q-0.59375 -0.96875 -0.59375 -2.125q0 -1.0625 0.484375 -1.96875q0.484375 -0.90625 1.328125 -1.515625q0.625 -0.453125 1.703125 -0.765625q1.09375 -0.328125 2.34375 -0.328125q1.859375 0 3.265625 0.546875q1.421875 0.53125 2.09375 1.453125q0.6875 0.90625 0.9375 2.453125l-2.640625 0.359375q-0.171875 -1.21875 -1.03125 -1.90625q-0.859375 -0.703125 -2.4375 -0.703125q-1.859375 0 -2.65625 0.625q-0.78125 0.609375 -0.78125 1.4375q0 0.515625 0.328125 0.9375q0.328125 0.4375 1.03125 0.71875q0.40625 0.15625 2.375 0.6875q2.859375 0.765625 3.984375 1.25q1.140625 0.484375 1.78125 1.421875q0.640625 0.921875 0.640625 2.296875q0 1.34375 -0.78125 2.546875q-0.78125 1.1875 -2.265625 1.84375q-1.484375 0.640625 -3.359375 0.640625q-3.09375 0 -4.71875 -1.28125q-1.625 -1.296875 -2.078125 -3.828125zm16.40625 4.75l0 -21.9375l2.703125 0l0 7.859375q1.875 -2.171875 4.75 -2.171875q1.765625 0 3.0625 0.703125q1.3125 0.6875 1.875 1.921875q0.5625 1.21875 0.5625 3.546875l0 10.078125l-2.6875 0l0 -10.078125q0 -2.015625 -0.890625 -2.9375q-0.875 -0.921875 -2.46875 -0.921875q-1.203125 0 -2.265625 0.625q-1.046875 0.625 -1.5 1.6875q-0.4375 1.0625 -0.4375 2.921875l0 8.703125l-2.703125 0zm27.424545 -1.953125q-1.5 1.265625 -2.890625 1.796875q-1.375 0.515625 -2.953125 0.515625q-2.625 0 -4.03125 -1.28125q-1.40625 -1.28125 -1.40625 -3.265625q0 -1.171875 0.53125 -2.140625q0.53125 -0.96875 1.390625 -1.546875q0.859375 -0.578125 1.9375 -0.875q0.796875 -0.21875 2.390625 -0.40625q3.265625 -0.390625 4.8125 -0.9375q0.015625 -0.546875 0.015625 -0.703125q0 -1.640625 -0.765625 -2.3125q-1.03125 -0.921875 -3.0625 -0.921875q-1.90625 0 -2.8125 0.671875q-0.90625 0.671875 -1.34375 2.359375l-2.625 -0.359375q0.359375 -1.6875 1.171875 -2.734375q0.828125 -1.046875 2.375 -1.59375q1.5625 -0.5625 3.609375 -0.5625q2.046875 0 3.3125 0.484375q1.28125 0.46875 1.875 1.203125q0.59375 0.71875 0.84375 1.828125q0.125 0.6875 0.125 2.484375l0 3.59375q0 3.75 0.171875 4.75q0.171875 1.0 0.6875 1.90625l-2.8125 0q-0.421875 -0.84375 -0.546875 -1.953125zm-0.21875 -6.03125q-1.46875 0.609375 -4.40625 1.03125q-1.65625 0.234375 -2.34375 0.53125q-0.6875 0.296875 -1.0625 0.875q-0.375 0.578125 -0.375 1.28125q0 1.078125 0.8125 1.796875q0.8125 0.71875 2.390625 0.71875q1.546875 0 2.765625 -0.671875q1.21875 -0.6875 1.78125 -1.875q0.4375 -0.90625 0.4375 -2.6875l0 -1.0zm6.86203 7.984375l0 -15.890625l2.4375 0l0 2.40625q0.921875 -1.6875 1.703125 -2.21875q0.796875 -0.546875 1.734375 -0.546875q1.359375 0 2.765625 0.859375l-0.921875 2.5q-0.984375 -0.578125 -1.984375 -0.578125q-0.875 0 -1.578125 0.53125q-0.703125 0.53125 -1.0 1.46875q-0.453125 1.4375 -0.453125 3.140625l0 8.328125l-2.703125 0zm21.130676 -5.125l2.78125 0.34375q-0.65625 2.453125 -2.4375 3.796875q-1.78125 1.34375 -4.546875 1.34375q-3.5 0 -5.546875 -2.140625q-2.03125 -2.15625 -2.03125 -6.03125q0 -4.015625 2.0625 -6.21875q2.0625 -2.21875 5.359375 -2.21875q3.1875 0 5.203125 2.171875q2.03125 2.15625 2.03125 6.09375q0 0.25 -0.015625 0.71875l-11.859375 0q0.15625 2.625 1.484375 4.015625q1.328125 1.390625 3.328125 1.390625q1.46875 0 2.515625 -0.765625q1.0625 -0.78125 1.671875 -2.5zm-8.84375 -4.34375l8.875 0q-0.1875 -2.015625 -1.015625 -3.015625q-1.296875 -1.5625 -3.34375 -1.5625q-1.859375 0 -3.125 1.25q-1.265625 1.234375 -1.390625 3.328125zm29.410583 7.0625l0.390625 2.375q-1.140625 0.234375 -2.046875 0.234375q-1.453125 0 -2.265625 -0.453125q-0.8125 -0.46875 -1.140625 -1.21875q-0.328125 -0.765625 -0.328125 -3.1875l0 -9.140625l-1.984375 0l0 -2.09375l1.984375 0l0 -3.9375l2.671875 -1.625l0 5.5625l2.71875 0l0 2.09375l-2.71875 0l0 9.296875q0 1.140625 0.140625 1.484375q0.15625 0.328125 0.46875 0.515625q0.328125 0.1875 0.921875 0.1875q0.453125 0 1.1875 -0.09375zm2.626648 2.40625l0 -21.9375l2.703125 0l0 7.859375q1.875 -2.171875 4.75 -2.171875q1.765625 0 3.0625 0.703125q1.3125 0.6875 1.875 1.921875q0.5625 1.21875 0.5625 3.546875l0 10.078125l-2.6875 0l0 -10.078125q0 -2.015625 -0.890625 -2.9375q-0.875 -0.921875 -2.46875 -0.921875q-1.203125 0 -2.265625 0.625q-1.046875 0.625 -1.5 1.6875q-0.4375 1.0625 -0.4375 2.921875l0 8.703125l-2.703125 0zm27.940186 -5.125l2.78125 0.34375q-0.65625 2.453125 -2.4375 3.796875q-1.78125 1.34375 -4.546875 1.34375q-3.5 0 -5.546875 -2.140625q-2.03125 -2.15625 -2.03125 -6.03125q0 -4.015625 2.0625 -6.21875q2.0625 -2.21875 5.359375 -2.21875q3.1875 0 5.203125 2.171875q2.03125 2.15625 2.03125 6.09375q0 0.25 -0.015625 0.71875l-11.859375 0q0.15625 2.625 1.484375 4.015625q1.328125 1.390625 3.328125 1.390625q1.46875 0 2.515625 -0.765625q1.0625 -0.78125 1.671875 -2.5zm-8.84375 -4.34375l8.875 0q-0.1875 -2.015625 -1.015625 -3.015625q-1.296875 -1.5625 -3.34375 -1.5625q-1.859375 0 -3.125 1.25q-1.265625 1.234375 -1.390625 3.328125zm23.863708 9.46875l0 -21.9375l8.28125 0q2.1875 0 3.34375 0.203125q1.609375 0.265625 2.703125 1.03125q1.09375 0.75 1.75 2.109375q0.671875 1.359375 0.671875 3.0q0 2.796875 -1.78125 4.734375q-1.78125 1.9375 -6.4375 1.9375l-5.625 0l0 8.921875l-2.90625 0zm2.90625 -11.515625l5.671875 0q2.8125 0 4.0 -1.046875q1.1875 -1.046875 1.1875 -2.9375q0 -1.390625 -0.703125 -2.359375q-0.6875 -0.984375 -1.828125 -1.296875q-0.734375 -0.203125 -2.71875 -0.203125l-5.609375 0l0 7.84375zm17.197449 11.515625l0 -21.9375l2.703125 0l0 7.859375q1.875 -2.171875 4.75 -2.171875q1.765625 0 3.0625 0.703125q1.3125 0.6875 1.875 1.921875q0.5625 1.21875 0.5625 3.546875l0 10.078125l-2.6875 0l0 -10.078125q0 -2.015625 -0.890625 -2.9375q-0.875 -0.921875 -2.46875 -0.921875q-1.203125 0 -2.265625 0.625q-1.046875 0.625 -1.5 1.6875q-0.4375 1.0625 -0.4375 2.921875l0 8.703125l-2.703125 0zm16.940186 6.125l-0.296875 -2.53125q0.875 0.234375 1.53125 0.234375q0.90625 0 1.4375 -0.296875q0.546875 -0.296875 0.890625 -0.84375q0.25 -0.390625 0.8125 -2.0q0.078125 -0.21875 0.25 -0.65625l-6.03125 -15.921875l2.890625 0l3.3125 9.203125q0.640625 1.75 1.15625 3.671875q0.46875 -1.84375 1.109375 -3.609375l3.390625 -9.265625l2.703125 0l-6.046875 16.15625q-0.984375 2.625 -1.515625 3.609375q-0.71875 1.328125 -1.65625 1.953125q-0.921875 0.625 -2.203125 0.625q-0.78125 0 -1.734375 -0.328125zm14.359375 -10.875l2.671875 -0.421875q0.21875 1.609375 1.234375 2.46875q1.03125 0.84375 2.875 0.84375q1.859375 0 2.75 -0.75q0.90625 -0.765625 0.90625 -1.78125q0 -0.90625 -0.796875 -1.4375q-0.546875 -0.359375 -2.75 -0.90625q-2.96875 -0.75 -4.109375 -1.296875q-1.140625 -0.546875 -1.734375 -1.515625q-0.59375 -0.96875 -0.59375 -2.125q0 -1.0625 0.484375 -1.96875q0.484375 -0.90625 1.328125 -1.515625q0.625 -0.453125 1.703125 -0.765625q1.09375 -0.328125 2.34375 -0.328125q1.859375 0 3.265625 0.546875q1.421875 0.53125 2.09375 1.453125q0.6875 0.90625 0.9375 2.453125l-2.640625 0.359375q-0.171875 -1.21875 -1.03125 -1.90625q-0.859375 -0.703125 -2.4375 -0.703125q-1.859375 0 -2.65625 0.625q-0.78125 0.609375 -0.78125 1.4375q0 0.515625 0.328125 0.9375q0.328125 0.4375 1.03125 0.71875q0.40625 0.15625 2.375 0.6875q2.859375 0.765625 3.984375 1.25q1.140625 0.484375 1.78125 1.421875q0.640625 0.921875 0.640625 2.296875q0 1.34375 -0.78125 2.546875q-0.78125 1.1875 -2.265625 1.84375q-1.484375 0.640625 -3.359375 0.640625q-3.09375 0 -4.71875 -1.28125q-1.625 -1.296875 -2.078125 -3.828125zm16.421875 -14.09375l0 -3.09375l2.703125 0l0 3.09375l-2.703125 0zm0 18.84375l0 -15.890625l2.703125 0l0 15.890625l-2.703125 0zm17.170227 -5.828125l2.65625 0.34375q-0.4375 2.75 -2.234375 4.296875q-1.78125 1.546875 -4.390625 1.546875q-3.25 0 -5.234375 -2.125q-1.984375 -2.140625 -1.984375 -6.125q0 -2.578125 0.84375 -4.5q0.859375 -1.9375 2.59375 -2.890625q1.75 -0.96875 3.796875 -0.96875q2.59375 0 4.234375 1.3125q1.65625 1.296875 2.125 3.703125l-2.625 0.40625q-0.375 -1.59375 -1.328125 -2.40625q-0.953125 -0.8125 -2.296875 -0.8125q-2.03125 0 -3.3125 1.46875q-1.265625 1.453125 -1.265625 4.609375q0 3.203125 1.21875 4.65625q1.234375 1.453125 3.203125 1.453125q1.59375 0 2.65625 -0.96875q1.0625 -0.96875 1.34375 -3.0zm3.875 1.078125l2.671875 -0.421875q0.21875 1.609375 1.234375 2.46875q1.03125 0.84375 2.875 0.84375q1.859375 0 2.75 -0.75q0.90625 -0.765625 0.90625 -1.78125q0 -0.90625 -0.796875 -1.4375q-0.546875 -0.359375 -2.75 -0.90625q-2.96875 -0.75 -4.109375 -1.296875q-1.140625 -0.546875 -1.734375 -1.515625q-0.59375 -0.96875 -0.59375 -2.125q0 -1.0625 0.484375 -1.96875q0.484375 -0.90625 1.328125 -1.515625q0.625 -0.453125 1.703125 -0.765625q1.09375 -0.328125 2.34375 -0.328125q1.859375 0 3.265625 0.546875q1.421875 0.53125 2.09375 1.453125q0.6875 0.90625 0.9375 2.453125l-2.640625 0.359375q-0.171875 -1.21875 -1.03125 -1.90625q-0.859375 -0.703125 -2.4375 -0.703125q-1.859375 0 -2.65625 0.625q-0.78125 0.609375 -0.78125 1.4375q0 0.515625 0.328125 0.9375q0.328125 0.4375 1.03125 0.71875q0.40625 0.15625 2.375 0.6875q2.859375 0.765625 3.984375 1.25q1.140625 0.484375 1.78125 1.421875q0.640625 0.921875 0.640625 2.296875q0 1.34375 -0.78125 2.546875q-0.78125 1.1875 -2.265625 1.84375q-1.484375 0.640625 -3.359375 0.640625q-3.09375 0 -4.71875 -1.28125q-1.625 -1.296875 -2.078125 -3.828125zm35.298523 -1.078125l2.65625 0.34375q-0.4375 2.75 -2.234375 4.296875q-1.78125 1.546875 -4.390625 1.546875q-3.25 0 -5.234375 -2.125q-1.984375 -2.140625 -1.984375 -6.125q0 -2.578125 0.84375 -4.5q0.859375 -1.9375 2.59375 -2.890625q1.75 -0.96875 3.796875 -0.96875q2.59375 0 4.234375 1.3125q1.65625 1.296875 2.125 3.703125l-2.625 0.40625q-0.375 -1.59375 -1.328125 -2.40625q-0.953125 -0.8125 -2.296875 -0.8125q-2.03125 0 -3.3125 1.46875q-1.265625 1.453125 -1.265625 4.609375q0 3.203125 1.21875 4.65625q1.234375 1.453125 3.203125 1.453125q1.59375 0 2.65625 -0.96875q1.0625 -0.96875 1.34375 -3.0zm3.953125 -2.125q0 -4.40625 2.453125 -6.53125q2.0625 -1.765625 5.0 -1.765625q3.28125 0 5.359375 2.15625q2.078125 2.140625 2.078125 5.921875q0 3.0625 -0.921875 4.828125q-0.90625 1.75 -2.671875 2.734375q-1.765625 0.96875 -3.84375 0.96875q-3.328125 0 -5.390625 -2.140625q-2.0625 -2.140625 -2.0625 -6.171875zm2.765625 0q0 3.0625 1.328125 4.578125q1.34375 1.515625 3.359375 1.515625q2.015625 0 3.34375 -1.515625q1.328125 -1.53125 1.328125 -4.65625q0 -2.953125 -1.34375 -4.46875q-1.328125 -1.53125 -3.328125 -1.53125q-2.015625 0 -3.359375 1.515625q-1.328125 1.515625 -1.328125 4.5625zm25.596436 7.953125l0 -2.0q-1.5 2.359375 -4.4375 2.359375q-1.90625 0 -3.5 -1.046875q-1.59375 -1.046875 -2.46875 -2.921875q-0.875 -1.890625 -0.875 -4.328125q0 -2.375 0.796875 -4.3125q0.796875 -1.9375 2.375 -2.96875q1.59375 -1.03125 3.546875 -1.03125q1.4375 0 2.5625 0.609375q1.125 0.59375 1.828125 1.5625l0 -7.859375l2.671875 0l0 21.9375l-2.5 0zm-8.515625 -7.9375q0 3.0625 1.28125 4.578125q1.296875 1.5 3.046875 1.5q1.765625 0 3.0 -1.4375q1.234375 -1.453125 1.234375 -4.40625q0 -3.265625 -1.265625 -4.796875q-1.25 -1.53125 -3.09375 -1.53125q-1.78125 0 -3.0 1.46875q-1.203125 1.46875 -1.203125 4.625zm26.14331 2.8125l2.78125 0.34375q-0.65625 2.453125 -2.4375 3.796875q-1.78125 1.34375 -4.546875 1.34375q-3.5 0 -5.546875 -2.140625q-2.03125 -2.15625 -2.03125 -6.03125q0 -4.015625 2.0625 -6.21875q2.0625 -2.21875 5.359375 -2.21875q3.1875 0 5.203125 2.171875q2.03125 2.15625 2.03125 6.09375q0 0.25 -0.015625 0.71875l-11.859375 0q0.15625 2.625 1.484375 4.015625q1.328125 1.390625 3.328125 1.390625q1.46875 0 2.515625 -0.765625q1.0625 -0.78125 1.671875 -2.5zm-8.84375 -4.34375l8.875 0q-0.1875 -2.015625 -1.015625 -3.015625q-1.296875 -1.5625 -3.34375 -1.5625q-1.859375 0 -3.125 1.25q-1.265625 1.234375 -1.390625 3.328125zm16.440186 4.015625l-0.8125 -11.625l0 -4.859375l3.328125 0l0 4.859375l-0.78125 11.625l-1.734375 0zm-0.703125 5.453125l0 -3.0625l3.109375 0l0 3.0625l-3.109375 0zm9.220398 -5.453125l-0.8125 -11.625l0 -4.859375l3.328125 0l0 4.859375l-0.78125 11.625l-1.734375 0zm-0.703125 5.453125l0 -3.0625l3.109375 0l0 3.0625l-3.109375 0z" fill-rule="nonzero"/><path fill="#000000" d="m177.76562 300.6164l2.90625 0l0 12.671875q0 3.3125 -0.75 5.265625q-0.75 1.9375 -2.703125 3.15625q-1.953125 1.21875 -5.125 1.21875q-3.078125 0 -5.046875 -1.0625q-1.953125 -1.0625 -2.796875 -3.078125q-0.84375 -2.015625 -0.84375 -5.5l0 -12.671875l2.90625 0l0 12.65625q0 2.859375 0.53125 4.21875q0.53125 1.34375 1.828125 2.078125q1.296875 0.734375 3.171875 0.734375q3.203125 0 4.5625 -1.453125q1.359375 -1.453125 1.359375 -5.578125l0 -12.65625zm6.310837 17.1875l2.671875 -0.421875q0.21875 1.609375 1.234375 2.46875q1.03125 0.84375 2.875 0.84375q1.859375 0 2.75 -0.75q0.90625 -0.765625 0.90625 -1.78125q0 -0.90625 -0.796875 -1.4375q-0.546875 -0.359375 -2.75 -0.90625q-2.96875 -0.75 -4.109375 -1.296875q-1.140625 -0.546875 -1.734375 -1.515625q-0.59375 -0.96875 -0.59375 -2.125q0 -1.0625 0.484375 -1.96875q0.484375 -0.90625 1.328125 -1.515625q0.625 -0.453125 1.703125 -0.765625q1.09375 -0.328125 2.34375 -0.328125q1.859375 0 3.265625 0.546875q1.421875 0.53125 2.09375 1.453125q0.6875 0.90625 0.9375 2.453125l-2.640625 0.359375q-0.171875 -1.21875 -1.03125 -1.90625q-0.859375 -0.703125 -2.4375 -0.703125q-1.859375 0 -2.65625 0.625q-0.78125 0.609375 -0.78125 1.4375q0 0.515625 0.328125 0.9375q0.328125 0.4375 1.03125 0.71875q0.40625 0.15625 2.375 0.6875q2.859375 0.765625 3.984375 1.25q1.140625 0.484375 1.78125 1.421875q0.640625 0.921875 0.640625 2.296875q0 1.34375 -0.78125 2.546875q-0.78125 1.1875 -2.265625 1.84375q-1.484375 0.640625 -3.359375 0.640625q-3.09375 0 -4.71875 -1.28125q-1.625 -1.296875 -2.078125 -3.828125zm27.296875 -0.375l2.78125 0.34375q-0.65625 2.453125 -2.4375 3.796875q-1.78125 1.34375 -4.546875 1.34375q-3.5 0 -5.546875 -2.140625q-2.03125 -2.15625 -2.03125 -6.03125q0 -4.015625 2.0625 -6.21875q2.0625 -2.21875 5.359375 -2.21875q3.1875 0 5.203125 2.171875q2.03125 2.15625 2.03125 6.09375q0 0.25 -0.015625 0.71875l-11.859375 0q0.15625 2.625 1.484375 4.015625q1.328125 1.390625 3.328125 1.390625q1.46875 0 2.515625 -0.765625q1.0625 -0.78125 1.671875 -2.5zm-8.84375 -4.34375l8.875 0q-0.1875 -2.015625 -1.015625 -3.015625q-1.296875 -1.5625 -3.34375 -1.5625q-1.859375 0 -3.125 1.25q-1.265625 1.234375 -1.390625 3.328125zm13.924545 4.71875l2.671875 -0.421875q0.21875 1.609375 1.234375 2.46875q1.03125 0.84375 2.875 0.84375q1.859375 0 2.75 -0.75q0.90625 -0.765625 0.90625 -1.78125q0 -0.90625 -0.796875 -1.4375q-0.546875 -0.359375 -2.75 -0.90625q-2.96875 -0.75 -4.109375 -1.296875q-1.140625 -0.546875 -1.734375 -1.515625q-0.59375 -0.96875 -0.59375 -2.125q0 -1.0625 0.484375 -1.96875q0.484375 -0.90625 1.328125 -1.515625q0.625 -0.453125 1.703125 -0.765625q1.09375 -0.328125 2.34375 -0.328125q1.859375 0 3.265625 0.546875q1.421875 0.53125 2.09375 1.453125q0.6875 0.90625 0.9375 2.453125l-2.640625 0.359375q-0.171875 -1.21875 -1.03125 -1.90625q-0.859375 -0.703125 -2.4375 -0.703125q-1.859375 0 -2.65625 0.625q-0.78125 0.609375 -0.78125 1.4375q0 0.515625 0.328125 0.9375q0.328125 0.4375 1.03125 0.71875q0.40625 0.15625 2.375 0.6875q2.859375 0.765625 3.984375 1.25q1.140625 0.484375 1.78125 1.421875q0.640625 0.921875 0.640625 2.296875q0 1.34375 -0.78125 2.546875q-0.78125 1.1875 -2.265625 1.84375q-1.484375 0.640625 -3.359375 0.640625q-3.09375 0 -4.71875 -1.28125q-1.625 -1.296875 -2.078125 -3.828125zm24.861038 4.75l0 -21.9375l2.703125 0l0 21.9375l-2.703125 0zm17.763962 -5.125l2.78125 0.34375q-0.65625 2.453125 -2.4375 3.796875q-1.78125 1.34375 -4.546875 1.34375q-3.5 0 -5.546875 -2.140625q-2.03125 -2.15625 -2.03125 -6.03125q0 -4.015625 2.0625 -6.21875q2.0625 -2.21875 5.359375 -2.21875q3.1875 0 5.203125 2.171875q2.03125 2.15625 2.03125 6.09375q0 0.25 -0.015625 0.71875l-11.859375 0q0.15625 2.625 1.484375 4.015625q1.328125 1.390625 3.328125 1.390625q1.46875 0 2.515625 -0.765625q1.0625 -0.78125 1.671875 -2.5zm-8.84375 -4.34375l8.875 0q-0.1875 -2.015625 -1.015625 -3.015625q-1.296875 -1.5625 -3.34375 -1.5625q-1.859375 0 -3.125 1.25q-1.265625 1.234375 -1.390625 3.328125zm13.92453 4.71875l2.671875 -0.421875q0.21875 1.609375 1.234375 2.46875q1.03125 0.84375 2.875 0.84375q1.859375 0 2.75 -0.75q0.90625 -0.765625 0.90625 -1.78125q0 -0.90625 -0.796875 -1.4375q-0.546875 -0.359375 -2.75 -0.90625q-2.96875 -0.75 -4.109375 -1.296875q-1.140625 -0.546875 -1.734375 -1.515625q-0.59375 -0.96875 -0.59375 -2.125q0 -1.0625 0.484375 -1.96875q0.484375 -0.90625 1.328125 -1.515625q0.625 -0.453125 1.703125 -0.765625q1.09375 -0.328125 2.34375 -0.328125q1.859375 0 3.265625 0.546875q1.421875 0.53125 2.09375 1.453125q0.6875 0.90625 0.9375 2.453125l-2.640625 0.359375q-0.171875 -1.21875 -1.03125 -1.90625q-0.859375 -0.703125 -2.4375 -0.703125q-1.859375 0 -2.65625 0.625q-0.78125 0.609375 -0.78125 1.4375q0 0.515625 0.328125 0.9375q0.328125 0.4375 1.03125 0.71875q0.40625 0.15625 2.375 0.6875q2.859375 0.765625 3.984375 1.25q1.140625 0.484375 1.78125 1.421875q0.640625 0.921875 0.640625 2.296875q0 1.34375 -0.78125 2.546875q-0.78125 1.1875 -2.265625 1.84375q-1.484375 0.640625 -3.359375 0.640625q-3.09375 0 -4.71875 -1.28125q-1.625 -1.296875 -2.078125 -3.828125zm15.328125 0l2.671875 -0.421875q0.21875 1.609375 1.234375 2.46875q1.03125 0.84375 2.875 0.84375q1.859375 0 2.75 -0.75q0.90625 -0.765625 0.90625 -1.78125q0 -0.90625 -0.796875 -1.4375q-0.546875 -0.359375 -2.75 -0.90625q-2.96875 -0.75 -4.109375 -1.296875q-1.140625 -0.546875 -1.734375 -1.515625q-0.59375 -0.96875 -0.59375 -2.125q0 -1.0625 0.484375 -1.96875q0.484375 -0.90625 1.328125 -1.515625q0.625 -0.453125 1.703125 -0.765625q1.09375 -0.328125 2.34375 -0.328125q1.859375 0 3.265625 0.546875q1.421875 0.53125 2.09375 1.453125q0.6875 0.90625 0.9375 2.453125l-2.640625 0.359375q-0.171875 -1.21875 -1.03125 -1.90625q-0.859375 -0.703125 -2.4375 -0.703125q-1.859375 0 -2.65625 0.625q-0.78125 0.609375 -0.78125 1.4375q0 0.515625 0.328125 0.9375q0.328125 0.4375 1.03125 0.71875q0.40625 0.15625 2.375 0.6875q2.859375 0.765625 3.984375 1.25q1.140625 0.484375 1.78125 1.421875q0.640625 0.921875 0.640625 2.296875q0 1.34375 -0.78125 2.546875q-0.78125 1.1875 -2.265625 1.84375q-1.484375 0.640625 -3.359375 0.640625q-3.09375 0 -4.71875 -1.28125q-1.625 -1.296875 -2.078125 -3.828125zm23.845428 0l2.671875 -0.421875q0.21875 1.609375 1.234375 2.46875q1.03125 0.84375 2.875 0.84375q1.859375 0 2.75 -0.75q0.90625 -0.765625 0.90625 -1.78125q0 -0.90625 -0.796875 -1.4375q-0.546875 -0.359375 -2.75 -0.90625q-2.96875 -0.75 -4.109375 -1.296875q-1.140625 -0.546875 -1.734375 -1.515625q-0.59375 -0.96875 -0.59375 -2.125q0 -1.0625 0.484375 -1.96875q0.484375 -0.90625 1.328125 -1.515625q0.625 -0.453125 1.703125 -0.765625q1.09375 -0.328125 2.34375 -0.328125q1.859375 0 3.265625 0.546875q1.421875 0.53125 2.09375 1.453125q0.6875 0.90625 0.9375 2.453125l-2.640625 0.359375q-0.171875 -1.21875 -1.03125 -1.90625q-0.859375 -0.703125 -2.4375 -0.703125q-1.859375 0 -2.65625 0.625q-0.78125 0.609375 -0.78125 1.4375q0 0.515625 0.328125 0.9375q0.328125 0.4375 1.03125 0.71875q0.40625 0.15625 2.375 0.6875q2.859375 0.765625 3.984375 1.25q1.140625 0.484375 1.78125 1.421875q0.640625 0.921875 0.640625 2.296875q0 1.34375 -0.78125 2.546875q-0.78125 1.1875 -2.265625 1.84375q-1.484375 0.640625 -3.359375 0.640625q-3.09375 0 -4.71875 -1.28125q-1.625 -1.296875 -2.078125 -3.828125zm16.40625 10.84375l0 -21.984375l2.453125 0l0 2.0625q0.875 -1.21875 1.96875 -1.8125q1.09375 -0.609375 2.65625 -0.609375q2.03125 0 3.578125 1.046875q1.5625 1.046875 2.359375 2.953125q0.796875 1.90625 0.796875 4.1875q0 2.4375 -0.875 4.390625q-0.875 1.953125 -2.546875 3.0q-1.671875 1.03125 -3.515625 1.03125q-1.34375 0 -2.421875 -0.5625q-1.0625 -0.578125 -1.75 -1.4375l0 7.734375l-2.703125 0zm2.4375 -13.953125q0 3.0625 1.25 4.53125q1.25 1.46875 3.015625 1.46875q1.796875 0 3.0625 -1.515625q1.28125 -1.515625 1.28125 -4.703125q0 -3.046875 -1.25 -4.546875q-1.25 -1.515625 -2.984375 -1.515625q-1.71875 0 -3.046875 1.609375q-1.328125 1.609375 -1.328125 4.671875zm24.98703 5.90625q-1.5 1.265625 -2.890625 1.796875q-1.375 0.515625 -2.953125 0.515625q-2.625 0 -4.03125 -1.28125q-1.40625 -1.28125 -1.40625 -3.265625q0 -1.171875 0.53125 -2.140625q0.53125 -0.96875 1.390625 -1.546875q0.859375 -0.578125 1.9375 -0.875q0.796875 -0.21875 2.390625 -0.40625q3.265625 -0.390625 4.8125 -0.9375q0.015625 -0.546875 0.015625 -0.703125q0 -1.640625 -0.765625 -2.3125q-1.03125 -0.921875 -3.0625 -0.921875q-1.90625 0 -2.8125 0.671875q-0.90625 0.671875 -1.34375 2.359375l-2.625 -0.359375q0.359375 -1.6875 1.171875 -2.734375q0.828125 -1.046875 2.375 -1.59375q1.5625 -0.5625 3.609375 -0.5625q2.046875 0 3.3125 0.484375q1.28125 0.46875 1.875 1.203125q0.59375 0.71875 0.84375 1.828125q0.125 0.6875 0.125 2.484375l0 3.59375q0 3.75 0.171875 4.75q0.171875 1.0 0.6875 1.90625l-2.8125 0q-0.421875 -0.84375 -0.546875 -1.953125zm-0.21875 -6.03125q-1.46875 0.609375 -4.40625 1.03125q-1.65625 0.234375 -2.34375 0.53125q-0.6875 0.296875 -1.0625 0.875q-0.375 0.578125 -0.375 1.28125q0 1.078125 0.8125 1.796875q0.8125 0.71875 2.390625 0.71875q1.546875 0 2.765625 -0.671875q1.21875 -0.6875 1.78125 -1.875q0.4375 -0.90625 0.4375 -2.6875l0 -1.0zm17.26831 2.15625l2.65625 0.34375q-0.4375 2.75 -2.234375 4.296875q-1.78125 1.546875 -4.390625 1.546875q-3.25 0 -5.234375 -2.125q-1.984375 -2.140625 -1.984375 -6.125q0 -2.578125 0.84375 -4.5q0.859375 -1.9375 2.59375 -2.890625q1.75 -0.96875 3.796875 -0.96875q2.59375 0 4.234375 1.3125q1.65625 1.296875 2.125 3.703125l-2.625 0.40625q-0.375 -1.59375 -1.328125 -2.40625q-0.953125 -0.8125 -2.296875 -0.8125q-2.03125 0 -3.3125 1.46875q-1.265625 1.453125 -1.265625 4.609375q0 3.203125 1.21875 4.65625q1.234375 1.453125 3.203125 1.453125q1.59375 0 2.65625 -0.96875q1.0625 -0.96875 1.34375 -3.0zm15.84375 0.703125l2.78125 0.34375q-0.65625 2.453125 -2.4375 3.796875q-1.78125 1.34375 -4.546875 1.34375q-3.5 0 -5.546875 -2.140625q-2.03125 -2.15625 -2.03125 -6.03125q0 -4.015625 2.0625 -6.21875q2.0625 -2.21875 5.359375 -2.21875q3.1875 0 5.203125 2.171875q2.03125 2.15625 2.03125 6.09375q0 0.25 -0.015625 0.71875l-11.859375 0q0.15625 2.625 1.484375 4.015625q1.328125 1.390625 3.328125 1.390625q1.46875 0 2.515625 -0.765625q1.0625 -0.78125 1.671875 -2.5zm-8.84375 -4.34375l8.875 0q-0.1875 -2.015625 -1.015625 -3.015625q-1.296875 -1.5625 -3.34375 -1.5625q-1.859375 0 -3.125 1.25q-1.265625 1.234375 -1.390625 3.328125zm23.535583 -9.375l0 -3.09375l2.703125 0l0 3.09375l-2.703125 0zm0 18.84375l0 -15.890625l2.703125 0l0 15.890625l-2.703125 0zm6.795227 0l0 -15.890625l2.4375 0l0 2.25q1.75 -2.609375 5.046875 -2.609375q1.4375 0 2.640625 0.515625q1.21875 0.515625 1.8125 1.359375q0.59375 0.828125 0.84375 1.984375q0.140625 0.75 0.140625 2.609375l0 9.78125l-2.6875 0l0 -9.671875q0 -1.640625 -0.328125 -2.453125q-0.3125 -0.828125 -1.109375 -1.3125q-0.796875 -0.484375 -1.875 -0.484375q-1.71875 0 -2.96875 1.09375q-1.25 1.09375 -1.25 4.140625l0 8.6875l-2.703125 0zm25.566833 0l0 -15.890625l2.421875 0l0 2.21875q0.734375 -1.15625 1.984375 -1.859375q1.25 -0.71875 2.828125 -0.71875q1.765625 0 2.890625 0.734375q1.140625 0.71875 1.59375 2.046875q1.890625 -2.78125 4.921875 -2.78125q2.359375 0 3.625 1.3125q1.28125 1.296875 1.28125 4.03125l0 10.90625l-2.6875 0l0 -10.015625q0 -1.609375 -0.265625 -2.3125q-0.25 -0.71875 -0.9375 -1.15625q-0.6875 -0.4375 -1.625 -0.4375q-1.671875 0 -2.78125 1.125q-1.109375 1.109375 -1.109375 3.5625l0 9.234375l-2.6875 0l0 -10.328125q0 -1.796875 -0.65625 -2.6875q-0.65625 -0.90625 -2.15625 -0.90625q-1.140625 0 -2.109375 0.609375q-0.96875 0.59375 -1.40625 1.75q-0.421875 1.140625 -0.421875 3.3125l0 8.25l-2.703125 0zm36.42752 -5.125l2.78125 0.34375q-0.65625 2.453125 -2.4375 3.796875q-1.78125 1.34375 -4.546875 1.34375q-3.5 0 -5.546875 -2.140625q-2.03125 -2.15625 -2.03125 -6.03125q0 -4.015625 2.0625 -6.21875q2.0625 -2.21875 5.359375 -2.21875q3.1875 0 5.203125 2.171875q2.03125 2.15625 2.03125 6.09375q0 0.25 -0.015625 0.71875l-11.859375 0q0.15625 2.625 1.484375 4.015625q1.328125 1.390625 3.328125 1.390625q1.46875 0 2.515625 -0.765625q1.0625 -0.78125 1.671875 -2.5zm-8.84375 -4.34375l8.875 0q-0.1875 -2.015625 -1.015625 -3.015625q-1.296875 -1.5625 -3.34375 -1.5625q-1.859375 0 -3.125 1.25q-1.265625 1.234375 -1.390625 3.328125zm15.002655 9.46875l0 -15.890625l2.421875 0l0 2.21875q0.734375 -1.15625 1.984375 -1.859375q1.25 -0.71875 2.828125 -0.71875q1.765625 0 2.890625 0.734375q1.140625 0.71875 1.59375 2.046875q1.890625 -2.78125 4.921875 -2.78125q2.359375 0 3.625 1.3125q1.28125 1.296875 1.28125 4.03125l0 10.90625l-2.6875 0l0 -10.015625q0 -1.609375 -0.265625 -2.3125q-0.25 -0.71875 -0.9375 -1.15625q-0.6875 -0.4375 -1.625 -0.4375q-1.671875 0 -2.78125 1.125q-1.109375 1.109375 -1.109375 3.5625l0 9.234375l-2.6875 0l0 -10.328125q0 -1.796875 -0.65625 -2.6875q-0.65625 -0.90625 -2.15625 -0.90625q-1.140625 0 -2.109375 0.609375q-0.96875 0.59375 -1.40625 1.75q-0.421875 1.140625 -0.421875 3.3125l0 8.25l-2.703125 0zm24.536896 -7.953125q0 -4.40625 2.453125 -6.53125q2.0625 -1.765625 5.0 -1.765625q3.28125 0 5.359375 2.15625q2.078125 2.140625 2.078125 5.921875q0 3.0625 -0.921875 4.828125q-0.90625 1.75 -2.671875 2.734375q-1.765625 0.96875 -3.84375 0.96875q-3.328125 0 -5.390625 -2.140625q-2.0625 -2.140625 -2.0625 -6.171875zm2.765625 0q0 3.0625 1.328125 4.578125q1.34375 1.515625 3.359375 1.515625q2.015625 0 3.34375 -1.515625q1.328125 -1.53125 1.328125 -4.65625q0 -2.953125 -1.34375 -4.46875q-1.328125 -1.53125 -3.328125 -1.53125q-2.015625 0 -3.359375 1.515625q-1.328125 1.515625 -1.328125 4.5625zm15.252655 7.953125l0 -15.890625l2.4375 0l0 2.40625q0.921875 -1.6875 1.703125 -2.21875q0.796875 -0.546875 1.734375 -0.546875q1.359375 0 2.765625 0.859375l-0.921875 2.5q-0.984375 -0.578125 -1.984375 -0.578125q-0.875 0 -1.578125 0.53125q-0.703125 0.53125 -1.0 1.46875q-0.453125 1.4375 -0.453125 3.140625l0 8.328125l-2.703125 0zm10.130615 6.125l-0.296875 -2.53125q0.875 0.234375 1.53125 0.234375q0.90625 0 1.4375 -0.296875q0.546875 -0.296875 0.890625 -0.84375q0.25 -0.390625 0.8125 -2.0q0.078125 -0.21875 0.25 -0.65625l-6.03125 -15.921875l2.890625 0l3.3125 9.203125q0.640625 1.75 1.15625 3.671875q0.46875 -1.84375 1.109375 -3.609375l3.390625 -9.265625l2.703125 0l-6.046875 16.15625q-0.984375 2.625 -1.515625 3.609375q-0.71875 1.328125 -1.65625 1.953125q-0.921875 0.625 -2.203125 0.625q-0.78125 0 -1.734375 -0.328125zm16.875 -11.578125l-0.8125 -11.625l0 -4.859375l3.328125 0l0 4.859375l-0.78125 11.625l-1.734375 0zm-0.703125 5.453125l0 -3.0625l3.109375 0l0 3.0625l-3.109375 0z" fill-rule="nonzero"/></g></g></svg>